M48
; DRILL file {KiCad 9.0.7} date 2026-02-07T18:17:34+0100
; FORMAT={-:-/ absolute / inch / decimal}
; #@! TF.CreationDate,2026-02-07T18:17:34+01:00
; #@! TF.GenerationSoftware,Kicad,Pcbnew,9.0.7
; #@! TF.FileFunction,Plated,1,2,PTH
FMAT,2
INCH
; #@! TA.AperFunction,Plated,PTH,ComponentDrill
T1C0.0354
; #@! TA.AperFunction,Plated,PTH,ComponentDrill
T2C0.0433
; #@! TA.AperFunction,Plated,PTH,ComponentDrill
T3C0.0787
%
G90
G05
T1
X2.0472Y-2.2587
X2.0472Y-3.1587
X2.1472Y-2.2587
X2.1472Y-3.1587
X2.2472Y-2.2587
X2.7472Y-3.1587
X3.0472Y-2.2587
X3.0472Y-3.1587
X3.1472Y-2.2587
X3.1472Y-3.1587
X3.6717Y-2.6378
X3.6717Y-2.7362
X3.6717Y-2.8346
X3.9055Y-2.3268
X3.9055Y-2.5157
X3.9291Y-3.0996
X4.0276Y-3.0996
X4.126Y-3.0996
X4.1496Y-2.3268
X4.1496Y-2.5157
T2
X3.7717Y-2.5394
X3.7717Y-2.9331
X4.2835Y-2.5394
X4.2835Y-2.9331
T3
X2.0866Y-2.0866
X2.0866Y-3.3465
X4.3307Y-2.0866
X4.3307Y-3.3465
M30
