%TF.GenerationSoftware,KiCad,Pcbnew,9.0.7*%
%TF.CreationDate,2026-02-07T18:17:30+01:00*%
%TF.ProjectId,telecommande,74656c65-636f-46d6-9d61-6e64652e6b69,rev?*%
%TF.SameCoordinates,Original*%
%TF.FileFunction,Copper,L2,Bot*%
%TF.FilePolarity,Positive*%
%FSLAX46Y46*%
G04 Gerber Fmt 4.6, Leading zero omitted, Abs format (unit mm)*
G04 Created by KiCad (PCBNEW 9.0.7) date 2026-02-07 18:17:30*
%MOMM*%
%LPD*%
G01*
G04 APERTURE LIST*
G04 Aperture macros list*
%AMRoundRect*
0 Rectangle with rounded corners*
0 $1 Rounding radius*
0 $2 $3 $4 $5 $6 $7 $8 $9 X,Y pos of 4 corners*
0 Add a 4 corners polygon primitive as box body*
4,1,4,$2,$3,$4,$5,$6,$7,$8,$9,$2,$3,0*
0 Add four circle primitives for the rounded corners*
1,1,$1+$1,$2,$3*
1,1,$1+$1,$4,$5*
1,1,$1+$1,$6,$7*
1,1,$1+$1,$8,$9*
0 Add four rect primitives between the rounded corners*
20,1,$1+$1,$2,$3,$4,$5,0*
20,1,$1+$1,$4,$5,$6,$7,0*
20,1,$1+$1,$6,$7,$8,$9,0*
20,1,$1+$1,$8,$9,$2,$3,0*%
G04 Aperture macros list end*
%TA.AperFunction,ComponentPad*%
%ADD10RoundRect,0.300000X-0.700000X0.700000X-0.700000X-0.700000X0.700000X-0.700000X0.700000X0.700000X0*%
%TD*%
%TA.AperFunction,ComponentPad*%
%ADD11C,2.540000*%
%TD*%
%TA.AperFunction,ComponentPad*%
%ADD12C,2.000000*%
%TD*%
G04 APERTURE END LIST*
D10*
%TO.P,U1,1,5V*%
%TO.N,unconnected-(U1-5V-Pad1)*%
X52000000Y-80230000D03*
%TO.P,U1,2,GND*%
%TO.N,GND*%
X54540000Y-80230000D03*
%TO.P,U1,3,GPIO39*%
%TO.N,Net-(U1-GPIO39)*%
X69780000Y-80230000D03*
%TO.P,U1,4,GPIO36*%
%TO.N,Net-(U1-GPIO36)*%
X77400000Y-80230000D03*
%TO.P,U1,5,3.3V*%
%TO.N,Net-(U1-3.3V-Pad5)*%
X79940000Y-80230000D03*
%TO.P,U1,6,3.3V*%
%TO.N,unconnected-(U1-3.3V-Pad6)*%
X52000000Y-57370000D03*
%TO.P,U1,7,GND*%
%TO.N,GND*%
X54540000Y-57370000D03*
%TO.P,U1,8,GND*%
X57080000Y-57370000D03*
%TO.P,U1,9,GND*%
X77400000Y-57370000D03*
%TO.P,U1,10,GND*%
X79940000Y-57370000D03*
%TD*%
D11*
%TO.P,DH4,1,DH*%
%TO.N,GND*%
X110000000Y-85000000D03*
%TD*%
D12*
%TO.P,U2,1*%
%TO.N,Net-(U1-3.3V-Pad5)*%
X93260000Y-67000000D03*
%TO.P,U2,2*%
%TO.N,Net-(U1-GPIO36)*%
X93260000Y-69500000D03*
%TO.P,U2,3*%
%TO.N,GND*%
X93260000Y-72000000D03*
%TO.P,U2,4*%
X99800000Y-78730000D03*
%TO.P,U2,5*%
%TO.N,Net-(U1-GPIO39)*%
X102300000Y-78730000D03*
%TO.P,U2,6*%
%TO.N,Net-(U1-3.3V-Pad5)*%
X104800000Y-78730000D03*
%TO.P,U2,7*%
%TO.N,GND*%
X105400000Y-63900000D03*
%TO.P,U2,8*%
X99200000Y-63900000D03*
%TO.P,U2,9*%
X105400000Y-59100000D03*
%TO.P,U2,10*%
X99200000Y-59100000D03*
%TO.P,U2,11,G1*%
X95800000Y-74500000D03*
%TO.P,U2,12,G2*%
X108800000Y-74500000D03*
%TO.P,U2,13,G3*%
X95800000Y-64500000D03*
%TO.P,U2,14,G4*%
X108800000Y-64500000D03*
%TD*%
D11*
%TO.P,DH2,1,DH*%
%TO.N,GND*%
X53000000Y-85000000D03*
%TD*%
%TO.P,DH3,1,DH*%
%TO.N,GND*%
X110000000Y-53000000D03*
%TD*%
%TO.P,DH1,1,DH*%
%TO.N,GND*%
X53000000Y-53000000D03*
%TD*%
%TA.AperFunction,Conductor*%
%TO.N,GND*%
G36*
X88000000Y-52500000D02*
G01*
X81000000Y-52500000D01*
X81000000Y-50500500D01*
X88000000Y-50500500D01*
X88000000Y-52500000D01*
G37*
%TD.AperFunction*%
%TD*%
%TA.AperFunction,Conductor*%
%TO.N,GND*%
G36*
X81000000Y-52500000D02*
G01*
X81000000Y-55773645D01*
X80980315Y-55840684D01*
X80927511Y-55886439D01*
X80858353Y-55896383D01*
X80835047Y-55890687D01*
X80819143Y-55885122D01*
X80684930Y-55870000D01*
X80190000Y-55870000D01*
X80190000Y-56994722D01*
X80113694Y-56950667D01*
X79999244Y-56920000D01*
X79880756Y-56920000D01*
X79766306Y-56950667D01*
X79690000Y-56994722D01*
X79690000Y-55870000D01*
X79195070Y-55870000D01*
X79060858Y-55885122D01*
X78890698Y-55944663D01*
X78735972Y-56041884D01*
X78668735Y-56060884D01*
X78604028Y-56041884D01*
X78449301Y-55944663D01*
X78279141Y-55885122D01*
X78144930Y-55870000D01*
X77650000Y-55870000D01*
X77650000Y-56994722D01*
X77573694Y-56950667D01*
X77459244Y-56920000D01*
X77340756Y-56920000D01*
X77226306Y-56950667D01*
X77150000Y-56994722D01*
X77150000Y-55870000D01*
X76655070Y-55870000D01*
X76520858Y-55885122D01*
X76350698Y-55944663D01*
X76198051Y-56040577D01*
X76070577Y-56168051D01*
X75974663Y-56320698D01*
X75915122Y-56490858D01*
X75900000Y-56625069D01*
X75900000Y-57120000D01*
X77024722Y-57120000D01*
X76980667Y-57196306D01*
X76950000Y-57310756D01*
X76950000Y-57429244D01*
X76980667Y-57543694D01*
X77024722Y-57620000D01*
X75900000Y-57620000D01*
X75900000Y-58114930D01*
X75915122Y-58249141D01*
X75974663Y-58419301D01*
X76070577Y-58571948D01*
X76198051Y-58699422D01*
X76350698Y-58795336D01*
X76520858Y-58854877D01*
X76655069Y-58869999D01*
X76655070Y-58870000D01*
X77150000Y-58870000D01*
X77150000Y-57745277D01*
X77226306Y-57789333D01*
X77340756Y-57820000D01*
X77459244Y-57820000D01*
X77573694Y-57789333D01*
X77650000Y-57745277D01*
X77650000Y-58870000D01*
X78144930Y-58870000D01*
X78144930Y-58869999D01*
X78279141Y-58854877D01*
X78449301Y-58795336D01*
X78604028Y-58698115D01*
X78671264Y-58679115D01*
X78735972Y-58698115D01*
X78890698Y-58795336D01*
X79060858Y-58854877D01*
X79195069Y-58869999D01*
X79195070Y-58870000D01*
X79690000Y-58870000D01*
X79690000Y-57745277D01*
X79766306Y-57789333D01*
X79880756Y-57820000D01*
X79999244Y-57820000D01*
X80113694Y-57789333D01*
X80190000Y-57745277D01*
X80190000Y-58870000D01*
X80684930Y-58870000D01*
X80684930Y-58869999D01*
X80819143Y-58854877D01*
X80835042Y-58849314D01*
X80904821Y-58845750D01*
X80965449Y-58880477D01*
X80997678Y-58942470D01*
X81000000Y-58966354D01*
X81000000Y-78633115D01*
X80980315Y-78700154D01*
X80927511Y-78745909D01*
X80858353Y-78755853D01*
X80835046Y-78750157D01*
X80819257Y-78744632D01*
X80819249Y-78744630D01*
X80684960Y-78729500D01*
X80684954Y-78729500D01*
X79195046Y-78729500D01*
X79195039Y-78729500D01*
X79060750Y-78744630D01*
X79060745Y-78744631D01*
X78890476Y-78804211D01*
X78735972Y-78901293D01*
X78668735Y-78920293D01*
X78604028Y-78901293D01*
X78449523Y-78804211D01*
X78279254Y-78744631D01*
X78279249Y-78744630D01*
X78144960Y-78729500D01*
X78144954Y-78729500D01*
X76655046Y-78729500D01*
X76655039Y-78729500D01*
X76520750Y-78744630D01*
X76520745Y-78744631D01*
X76350476Y-78804211D01*
X76197737Y-78900184D01*
X76070184Y-79027737D01*
X75974211Y-79180476D01*
X75914631Y-79350745D01*
X75914630Y-79350750D01*
X75899500Y-79485039D01*
X75899500Y-80974960D01*
X75914630Y-81109249D01*
X75914631Y-81109254D01*
X75974211Y-81279523D01*
X76069987Y-81431948D01*
X76070184Y-81432262D01*
X76197738Y-81559816D01*
X76350478Y-81655789D01*
X76494773Y-81706280D01*
X76520745Y-81715368D01*
X76520750Y-81715369D01*
X76611246Y-81725565D01*
X76655040Y-81730499D01*
X76655043Y-81730500D01*
X76655046Y-81730500D01*
X78144957Y-81730500D01*
X78144958Y-81730499D01*
X78212104Y-81722934D01*
X78279249Y-81715369D01*
X78279252Y-81715368D01*
X78279255Y-81715368D01*
X78449522Y-81655789D01*
X78602262Y-81559816D01*
X78602262Y-81559815D01*
X78604028Y-81558706D01*
X78671264Y-81539706D01*
X78735972Y-81558706D01*
X78737737Y-81559815D01*
X78737738Y-81559816D01*
X78890478Y-81655789D01*
X79034773Y-81706280D01*
X79060745Y-81715368D01*
X79060750Y-81715369D01*
X79151246Y-81725565D01*
X79195040Y-81730499D01*
X79195043Y-81730500D01*
X79195046Y-81730500D01*
X80684957Y-81730500D01*
X80684958Y-81730499D01*
X80752104Y-81722934D01*
X80819249Y-81715369D01*
X80819251Y-81715368D01*
X80819255Y-81715368D01*
X80835041Y-81709843D01*
X80904820Y-81706280D01*
X80965449Y-81741007D01*
X80997678Y-81802999D01*
X81000000Y-81826884D01*
X81000000Y-87375500D01*
X80980315Y-87442539D01*
X80927511Y-87488294D01*
X80876000Y-87499500D01*
X50624500Y-87499500D01*
X50557461Y-87479815D01*
X50511706Y-87427011D01*
X50500500Y-87375500D01*
X50500500Y-84883994D01*
X51230000Y-84883994D01*
X51230000Y-85116005D01*
X51230001Y-85116022D01*
X51260283Y-85346040D01*
X51260286Y-85346053D01*
X51320336Y-85570167D01*
X51409124Y-85784521D01*
X51409132Y-85784538D01*
X51525136Y-85985461D01*
X51525142Y-85985469D01*
X51584117Y-86062327D01*
X52137425Y-85509019D01*
X52223249Y-85637463D01*
X52362537Y-85776751D01*
X52490979Y-85862573D01*
X51937671Y-86415881D01*
X52014530Y-86474857D01*
X52014538Y-86474863D01*
X52215461Y-86590867D01*
X52215478Y-86590875D01*
X52429832Y-86679663D01*
X52653946Y-86739713D01*
X52653959Y-86739716D01*
X52883977Y-86769998D01*
X52883995Y-86770000D01*
X53116005Y-86770000D01*
X53116022Y-86769998D01*
X53346040Y-86739716D01*
X53346053Y-86739713D01*
X53570167Y-86679663D01*
X53784521Y-86590875D01*
X53784538Y-86590867D01*
X53985475Y-86474855D01*
X54062327Y-86415883D01*
X54062327Y-86415880D01*
X53509020Y-85862573D01*
X53637463Y-85776751D01*
X53776751Y-85637463D01*
X53862573Y-85509020D01*
X54415880Y-86062327D01*
X54415883Y-86062327D01*
X54474855Y-85985475D01*
X54590867Y-85784538D01*
X54590875Y-85784521D01*
X54679663Y-85570167D01*
X54739713Y-85346053D01*
X54739716Y-85346040D01*
X54769998Y-85116022D01*
X54770000Y-85116005D01*
X54770000Y-84883994D01*
X54769998Y-84883977D01*
X54739716Y-84653959D01*
X54739713Y-84653946D01*
X54679663Y-84429832D01*
X54590875Y-84215478D01*
X54590867Y-84215461D01*
X54474863Y-84014538D01*
X54474857Y-84014530D01*
X54415881Y-83937671D01*
X53862573Y-84490979D01*
X53776751Y-84362537D01*
X53637463Y-84223249D01*
X53509019Y-84137425D01*
X54062327Y-83584117D01*
X53985469Y-83525142D01*
X53985461Y-83525136D01*
X53784538Y-83409132D01*
X53784521Y-83409124D01*
X53570167Y-83320336D01*
X53346053Y-83260286D01*
X53346040Y-83260283D01*
X53116022Y-83230001D01*
X53116005Y-83230000D01*
X52883995Y-83230000D01*
X52883977Y-83230001D01*
X52653959Y-83260283D01*
X52653946Y-83260286D01*
X52429832Y-83320336D01*
X52215478Y-83409124D01*
X52215461Y-83409132D01*
X52014541Y-83525134D01*
X52014533Y-83525140D01*
X51937671Y-83584116D01*
X51937671Y-83584117D01*
X52490979Y-84137425D01*
X52362537Y-84223249D01*
X52223249Y-84362537D01*
X52137426Y-84490979D01*
X51584117Y-83937671D01*
X51584116Y-83937671D01*
X51525140Y-84014533D01*
X51525134Y-84014541D01*
X51409132Y-84215461D01*
X51409124Y-84215478D01*
X51320336Y-84429832D01*
X51260286Y-84653946D01*
X51260283Y-84653959D01*
X51230001Y-84883977D01*
X51230000Y-84883994D01*
X50500500Y-84883994D01*
X50500500Y-81561940D01*
X50520185Y-81494901D01*
X50572989Y-81449146D01*
X50642147Y-81439202D01*
X50705703Y-81468227D01*
X50712181Y-81474259D01*
X50797738Y-81559816D01*
X50950478Y-81655789D01*
X51094773Y-81706280D01*
X51120745Y-81715368D01*
X51120750Y-81715369D01*
X51211246Y-81725565D01*
X51255040Y-81730499D01*
X51255043Y-81730500D01*
X51255046Y-81730500D01*
X52744957Y-81730500D01*
X52744958Y-81730499D01*
X52812104Y-81722934D01*
X52879249Y-81715369D01*
X52879252Y-81715368D01*
X52879255Y-81715368D01*
X53049522Y-81655789D01*
X53202262Y-81559816D01*
X53202262Y-81559815D01*
X53204498Y-81558411D01*
X53271735Y-81539411D01*
X53336442Y-81558411D01*
X53490698Y-81655336D01*
X53660858Y-81714877D01*
X53795069Y-81729999D01*
X53795070Y-81730000D01*
X54290000Y-81730000D01*
X54290000Y-80605277D01*
X54366306Y-80649333D01*
X54480756Y-80680000D01*
X54599244Y-80680000D01*
X54713694Y-80649333D01*
X54790000Y-80605277D01*
X54790000Y-81730000D01*
X55284930Y-81730000D01*
X55284930Y-81729999D01*
X55419141Y-81714877D01*
X55589301Y-81655336D01*
X55741948Y-81559422D01*
X55869422Y-81431948D01*
X55965336Y-81279301D01*
X56024877Y-81109141D01*
X56039999Y-80974930D01*
X56040000Y-80974930D01*
X56040000Y-80480000D01*
X54915278Y-80480000D01*
X54959333Y-80403694D01*
X54990000Y-80289244D01*
X54990000Y-80170756D01*
X54959333Y-80056306D01*
X54915278Y-79980000D01*
X56040000Y-79980000D01*
X56040000Y-79485084D01*
X56039998Y-79485054D01*
X56039996Y-79485039D01*
X68279500Y-79485039D01*
X68279500Y-80974960D01*
X68294630Y-81109249D01*
X68294631Y-81109254D01*
X68354211Y-81279523D01*
X68449987Y-81431948D01*
X68450184Y-81432262D01*
X68577738Y-81559816D01*
X68730478Y-81655789D01*
X68874773Y-81706280D01*
X68900745Y-81715368D01*
X68900750Y-81715369D01*
X68991246Y-81725565D01*
X69035040Y-81730499D01*
X69035043Y-81730500D01*
X69035046Y-81730500D01*
X70524957Y-81730500D01*
X70524958Y-81730499D01*
X70592104Y-81722934D01*
X70659249Y-81715369D01*
X70659252Y-81715368D01*
X70659255Y-81715368D01*
X70829522Y-81655789D01*
X70982262Y-81559816D01*
X71109816Y-81432262D01*
X71205789Y-81279522D01*
X71265368Y-81109255D01*
X71280500Y-80974954D01*
X71280500Y-79485046D01*
X71265368Y-79350745D01*
X71205789Y-79180478D01*
X71109816Y-79027738D01*
X70982262Y-78900184D01*
X70978882Y-78898060D01*
X70829523Y-78804211D01*
X70659254Y-78744631D01*
X70659249Y-78744630D01*
X70524960Y-78729500D01*
X70524954Y-78729500D01*
X69035046Y-78729500D01*
X69035039Y-78729500D01*
X68900750Y-78744630D01*
X68900745Y-78744631D01*
X68730476Y-78804211D01*
X68577737Y-78900184D01*
X68450184Y-79027737D01*
X68354211Y-79180476D01*
X68294631Y-79350745D01*
X68294630Y-79350750D01*
X68279500Y-79485039D01*
X56039996Y-79485039D01*
X56024877Y-79350858D01*
X55965336Y-79180698D01*
X55869422Y-79028051D01*
X55741948Y-78900577D01*
X55589301Y-78804663D01*
X55419141Y-78745122D01*
X55284930Y-78730000D01*
X54790000Y-78730000D01*
X54790000Y-79854722D01*
X54713694Y-79810667D01*
X54599244Y-79780000D01*
X54480756Y-79780000D01*
X54366306Y-79810667D01*
X54290000Y-79854722D01*
X54290000Y-78730000D01*
X53795070Y-78730000D01*
X53660858Y-78745122D01*
X53490698Y-78804663D01*
X53336441Y-78901589D01*
X53269204Y-78920589D01*
X53204497Y-78901588D01*
X53049526Y-78804212D01*
X52879254Y-78744631D01*
X52879249Y-78744630D01*
X52744960Y-78729500D01*
X52744954Y-78729500D01*
X51255046Y-78729500D01*
X51255039Y-78729500D01*
X51120750Y-78744630D01*
X51120745Y-78744631D01*
X50950476Y-78804211D01*
X50797737Y-78900184D01*
X50712181Y-78985741D01*
X50650858Y-79019226D01*
X50581166Y-79014242D01*
X50525233Y-78972370D01*
X50500816Y-78906906D01*
X50500500Y-78898060D01*
X50500500Y-58701940D01*
X50520185Y-58634901D01*
X50572989Y-58589146D01*
X50642147Y-58579202D01*
X50705703Y-58608227D01*
X50712181Y-58614259D01*
X50797738Y-58699816D01*
X50950478Y-58795789D01*
X51093258Y-58845750D01*
X51120745Y-58855368D01*
X51120750Y-58855369D01*
X51211246Y-58865565D01*
X51255040Y-58870499D01*
X51255043Y-58870500D01*
X51255046Y-58870500D01*
X52744957Y-58870500D01*
X52744958Y-58870499D01*
X52812104Y-58862934D01*
X52879249Y-58855369D01*
X52879252Y-58855368D01*
X52879255Y-58855368D01*
X53049522Y-58795789D01*
X53202262Y-58699816D01*
X53202262Y-58699815D01*
X53204498Y-58698411D01*
X53271735Y-58679411D01*
X53336442Y-58698411D01*
X53490698Y-58795336D01*
X53660858Y-58854877D01*
X53795069Y-58869999D01*
X53795070Y-58870000D01*
X54290000Y-58870000D01*
X54290000Y-57745277D01*
X54366306Y-57789333D01*
X54480756Y-57820000D01*
X54599244Y-57820000D01*
X54713694Y-57789333D01*
X54790000Y-57745277D01*
X54790000Y-58870000D01*
X55284930Y-58870000D01*
X55284930Y-58869999D01*
X55419141Y-58854877D01*
X55589301Y-58795336D01*
X55744028Y-58698115D01*
X55811264Y-58679115D01*
X55875972Y-58698115D01*
X56030698Y-58795336D01*
X56200858Y-58854877D01*
X56335069Y-58869999D01*
X56335070Y-58870000D01*
X56830000Y-58870000D01*
X56830000Y-57745277D01*
X56906306Y-57789333D01*
X57020756Y-57820000D01*
X57139244Y-57820000D01*
X57253694Y-57789333D01*
X57330000Y-57745277D01*
X57330000Y-58870000D01*
X57824930Y-58870000D01*
X57824930Y-58869999D01*
X57959141Y-58854877D01*
X58129301Y-58795336D01*
X58281948Y-58699422D01*
X58409422Y-58571948D01*
X58505336Y-58419301D01*
X58564877Y-58249141D01*
X58579999Y-58114930D01*
X58580000Y-58114930D01*
X58580000Y-57620000D01*
X57455278Y-57620000D01*
X57499333Y-57543694D01*
X57530000Y-57429244D01*
X57530000Y-57310756D01*
X57499333Y-57196306D01*
X57455278Y-57120000D01*
X58580000Y-57120000D01*
X58580000Y-56625070D01*
X58579999Y-56625069D01*
X58564877Y-56490858D01*
X58505336Y-56320698D01*
X58409422Y-56168051D01*
X58281948Y-56040577D01*
X58129301Y-55944663D01*
X57959141Y-55885122D01*
X57824930Y-55870000D01*
X57330000Y-55870000D01*
X57330000Y-56994722D01*
X57253694Y-56950667D01*
X57139244Y-56920000D01*
X57020756Y-56920000D01*
X56906306Y-56950667D01*
X56830000Y-56994722D01*
X56830000Y-55870000D01*
X56335070Y-55870000D01*
X56200858Y-55885122D01*
X56030698Y-55944663D01*
X55875972Y-56041884D01*
X55808735Y-56060884D01*
X55744028Y-56041884D01*
X55589301Y-55944663D01*
X55419141Y-55885122D01*
X55284930Y-55870000D01*
X54790000Y-55870000D01*
X54790000Y-56994722D01*
X54713694Y-56950667D01*
X54599244Y-56920000D01*
X54480756Y-56920000D01*
X54366306Y-56950667D01*
X54290000Y-56994722D01*
X54290000Y-55870000D01*
X53795070Y-55870000D01*
X53660858Y-55885122D01*
X53490698Y-55944663D01*
X53336441Y-56041589D01*
X53269204Y-56060589D01*
X53204497Y-56041588D01*
X53049526Y-55944212D01*
X52879254Y-55884631D01*
X52879249Y-55884630D01*
X52744960Y-55869500D01*
X52744954Y-55869500D01*
X51255046Y-55869500D01*
X51255039Y-55869500D01*
X51120750Y-55884630D01*
X51120745Y-55884631D01*
X50950476Y-55944211D01*
X50797737Y-56040184D01*
X50712181Y-56125741D01*
X50650858Y-56159226D01*
X50581166Y-56154242D01*
X50525233Y-56112370D01*
X50500816Y-56046906D01*
X50500500Y-56038060D01*
X50500500Y-52883994D01*
X51230000Y-52883994D01*
X51230000Y-53116005D01*
X51230001Y-53116022D01*
X51260283Y-53346040D01*
X51260286Y-53346053D01*
X51320336Y-53570167D01*
X51409124Y-53784521D01*
X51409132Y-53784538D01*
X51525136Y-53985461D01*
X51525142Y-53985469D01*
X51584117Y-54062327D01*
X52137425Y-53509019D01*
X52223249Y-53637463D01*
X52362537Y-53776751D01*
X52490979Y-53862573D01*
X51937671Y-54415881D01*
X52014530Y-54474857D01*
X52014538Y-54474863D01*
X52215461Y-54590867D01*
X52215478Y-54590875D01*
X52429832Y-54679663D01*
X52653946Y-54739713D01*
X52653959Y-54739716D01*
X52883977Y-54769998D01*
X52883995Y-54770000D01*
X53116005Y-54770000D01*
X53116022Y-54769998D01*
X53346040Y-54739716D01*
X53346053Y-54739713D01*
X53570167Y-54679663D01*
X53784521Y-54590875D01*
X53784538Y-54590867D01*
X53985475Y-54474855D01*
X54062327Y-54415883D01*
X54062327Y-54415880D01*
X53509020Y-53862573D01*
X53637463Y-53776751D01*
X53776751Y-53637463D01*
X53862573Y-53509020D01*
X54415880Y-54062327D01*
X54415883Y-54062327D01*
X54474855Y-53985475D01*
X54590867Y-53784538D01*
X54590875Y-53784521D01*
X54679663Y-53570167D01*
X54739713Y-53346053D01*
X54739716Y-53346040D01*
X54769998Y-53116022D01*
X54770000Y-53116005D01*
X54770000Y-52883994D01*
X54769998Y-52883977D01*
X54739716Y-52653959D01*
X54739713Y-52653946D01*
X54679663Y-52429832D01*
X54590875Y-52215478D01*
X54590867Y-52215461D01*
X54474863Y-52014538D01*
X54474857Y-52014530D01*
X54415881Y-51937671D01*
X53862573Y-52490979D01*
X53776751Y-52362537D01*
X53637463Y-52223249D01*
X53509019Y-52137425D01*
X54062327Y-51584117D01*
X53985469Y-51525142D01*
X53985461Y-51525136D01*
X53784538Y-51409132D01*
X53784521Y-51409124D01*
X53570167Y-51320336D01*
X53346053Y-51260286D01*
X53346040Y-51260283D01*
X53116022Y-51230001D01*
X53116005Y-51230000D01*
X52883995Y-51230000D01*
X52883977Y-51230001D01*
X52653959Y-51260283D01*
X52653946Y-51260286D01*
X52429832Y-51320336D01*
X52215478Y-51409124D01*
X52215461Y-51409132D01*
X52014541Y-51525134D01*
X52014533Y-51525140D01*
X51937671Y-51584116D01*
X51937671Y-51584117D01*
X52490979Y-52137425D01*
X52362537Y-52223249D01*
X52223249Y-52362537D01*
X52137426Y-52490979D01*
X51584117Y-51937671D01*
X51584116Y-51937671D01*
X51525140Y-52014533D01*
X51525134Y-52014541D01*
X51409132Y-52215461D01*
X51409124Y-52215478D01*
X51320336Y-52429832D01*
X51260286Y-52653946D01*
X51260283Y-52653959D01*
X51230001Y-52883977D01*
X51230000Y-52883994D01*
X50500500Y-52883994D01*
X50500500Y-50624500D01*
X50520185Y-50557461D01*
X50572989Y-50511706D01*
X50624500Y-50500500D01*
X81000000Y-50500500D01*
X81000000Y-52500000D01*
G37*
%TD.AperFunction*%
%TA.AperFunction,Conductor*%
G36*
X56660667Y-57196306D02*
G01*
X56630000Y-57310756D01*
X56630000Y-57429244D01*
X56660667Y-57543694D01*
X56704722Y-57620000D01*
X54915278Y-57620000D01*
X54959333Y-57543694D01*
X54990000Y-57429244D01*
X54990000Y-57310756D01*
X54959333Y-57196306D01*
X54915278Y-57120000D01*
X56704722Y-57120000D01*
X56660667Y-57196306D01*
G37*
%TD.AperFunction*%
%TA.AperFunction,Conductor*%
G36*
X79520667Y-57196306D02*
G01*
X79490000Y-57310756D01*
X79490000Y-57429244D01*
X79520667Y-57543694D01*
X79564722Y-57620000D01*
X77775278Y-57620000D01*
X77819333Y-57543694D01*
X77850000Y-57429244D01*
X77850000Y-57310756D01*
X77819333Y-57196306D01*
X77775278Y-57120000D01*
X79564722Y-57120000D01*
X79520667Y-57196306D01*
G37*
%TD.AperFunction*%
%TD*%
%TA.AperFunction,Conductor*%
%TO.N,GND*%
G36*
X112442539Y-50520185D02*
G01*
X112488294Y-50572989D01*
X112499500Y-50624500D01*
X112499500Y-87375500D01*
X112479815Y-87442539D01*
X112427011Y-87488294D01*
X112375500Y-87499500D01*
X88124000Y-87499500D01*
X88056961Y-87479815D01*
X88011206Y-87427011D01*
X88000000Y-87375500D01*
X88000000Y-84883994D01*
X108230000Y-84883994D01*
X108230000Y-85116005D01*
X108230001Y-85116022D01*
X108260283Y-85346040D01*
X108260286Y-85346053D01*
X108320336Y-85570167D01*
X108409124Y-85784521D01*
X108409132Y-85784538D01*
X108525136Y-85985461D01*
X108525142Y-85985469D01*
X108584117Y-86062327D01*
X109137425Y-85509019D01*
X109223249Y-85637463D01*
X109362537Y-85776751D01*
X109490979Y-85862573D01*
X108937671Y-86415881D01*
X109014530Y-86474857D01*
X109014538Y-86474863D01*
X109215461Y-86590867D01*
X109215478Y-86590875D01*
X109429832Y-86679663D01*
X109653946Y-86739713D01*
X109653959Y-86739716D01*
X109883977Y-86769998D01*
X109883995Y-86770000D01*
X110116005Y-86770000D01*
X110116022Y-86769998D01*
X110346040Y-86739716D01*
X110346053Y-86739713D01*
X110570167Y-86679663D01*
X110784521Y-86590875D01*
X110784538Y-86590867D01*
X110985475Y-86474855D01*
X111062327Y-86415883D01*
X111062327Y-86415880D01*
X110509020Y-85862573D01*
X110637463Y-85776751D01*
X110776751Y-85637463D01*
X110862573Y-85509020D01*
X111415880Y-86062327D01*
X111415883Y-86062327D01*
X111474855Y-85985475D01*
X111590867Y-85784538D01*
X111590875Y-85784521D01*
X111679663Y-85570167D01*
X111739713Y-85346053D01*
X111739716Y-85346040D01*
X111769998Y-85116022D01*
X111770000Y-85116005D01*
X111770000Y-84883994D01*
X111769998Y-84883977D01*
X111739716Y-84653959D01*
X111739713Y-84653946D01*
X111679663Y-84429832D01*
X111590875Y-84215478D01*
X111590867Y-84215461D01*
X111474863Y-84014538D01*
X111474857Y-84014530D01*
X111415881Y-83937671D01*
X110862573Y-84490979D01*
X110776751Y-84362537D01*
X110637463Y-84223249D01*
X110509019Y-84137425D01*
X111062327Y-83584117D01*
X110985469Y-83525142D01*
X110985461Y-83525136D01*
X110784538Y-83409132D01*
X110784521Y-83409124D01*
X110570167Y-83320336D01*
X110346053Y-83260286D01*
X110346040Y-83260283D01*
X110116022Y-83230001D01*
X110116005Y-83230000D01*
X109883995Y-83230000D01*
X109883977Y-83230001D01*
X109653959Y-83260283D01*
X109653946Y-83260286D01*
X109429832Y-83320336D01*
X109215478Y-83409124D01*
X109215461Y-83409132D01*
X109014541Y-83525134D01*
X109014533Y-83525140D01*
X108937671Y-83584116D01*
X108937671Y-83584117D01*
X109490979Y-84137425D01*
X109362537Y-84223249D01*
X109223249Y-84362537D01*
X109137426Y-84490979D01*
X108584117Y-83937671D01*
X108584116Y-83937671D01*
X108525140Y-84014533D01*
X108525134Y-84014541D01*
X108409132Y-84215461D01*
X108409124Y-84215478D01*
X108320336Y-84429832D01*
X108260286Y-84653946D01*
X108260283Y-84653959D01*
X108230001Y-84883977D01*
X108230000Y-84883994D01*
X88000000Y-84883994D01*
X88000000Y-78611947D01*
X98300000Y-78611947D01*
X98300000Y-78848052D01*
X98336934Y-79081247D01*
X98409897Y-79305802D01*
X98517087Y-79516174D01*
X98577338Y-79599104D01*
X98577340Y-79599105D01*
X99357861Y-78818584D01*
X99380667Y-78903694D01*
X99439910Y-79006306D01*
X99523694Y-79090090D01*
X99626306Y-79149333D01*
X99711415Y-79172138D01*
X98930893Y-79952658D01*
X99013828Y-80012914D01*
X99224197Y-80120102D01*
X99448752Y-80193065D01*
X99448751Y-80193065D01*
X99681948Y-80230000D01*
X99918052Y-80230000D01*
X100151247Y-80193065D01*
X100375802Y-80120102D01*
X100586163Y-80012918D01*
X100586169Y-80012914D01*
X100669104Y-79952658D01*
X100669105Y-79952658D01*
X99888584Y-79172138D01*
X99973694Y-79149333D01*
X100076306Y-79090090D01*
X100160090Y-79006306D01*
X100219333Y-78903694D01*
X100242138Y-78818585D01*
X101029270Y-79605717D01*
X101072943Y-79614891D01*
X101114614Y-79651259D01*
X101155483Y-79707510D01*
X101322490Y-79874517D01*
X101513567Y-80013343D01*
X101612991Y-80064002D01*
X101724003Y-80120566D01*
X101724005Y-80120566D01*
X101724008Y-80120568D01*
X101844412Y-80159689D01*
X101948631Y-80193553D01*
X102181903Y-80230500D01*
X102181908Y-80230500D01*
X102418097Y-80230500D01*
X102651368Y-80193553D01*
X102652870Y-80193065D01*
X102875992Y-80120568D01*
X103086433Y-80013343D01*
X103277510Y-79874517D01*
X103444517Y-79707510D01*
X103449682Y-79700401D01*
X103505012Y-79657735D01*
X103574625Y-79651756D01*
X103636420Y-79684362D01*
X103650318Y-79700401D01*
X103655483Y-79707510D01*
X103822490Y-79874517D01*
X104013567Y-80013343D01*
X104112991Y-80064002D01*
X104224003Y-80120566D01*
X104224005Y-80120566D01*
X104224008Y-80120568D01*
X104344412Y-80159689D01*
X104448631Y-80193553D01*
X104681903Y-80230500D01*
X104681908Y-80230500D01*
X104918097Y-80230500D01*
X105151368Y-80193553D01*
X105152870Y-80193065D01*
X105375992Y-80120568D01*
X105586433Y-80013343D01*
X105777510Y-79874517D01*
X105944517Y-79707510D01*
X106083343Y-79516433D01*
X106190568Y-79305992D01*
X106263553Y-79081368D01*
X106291694Y-78903694D01*
X106300500Y-78848097D01*
X106300500Y-78611902D01*
X106263553Y-78378631D01*
X106190566Y-78154003D01*
X106083342Y-77943566D01*
X105944517Y-77752490D01*
X105777510Y-77585483D01*
X105586433Y-77446657D01*
X105375996Y-77339433D01*
X105151368Y-77266446D01*
X104918097Y-77229500D01*
X104918092Y-77229500D01*
X104681908Y-77229500D01*
X104681903Y-77229500D01*
X104448631Y-77266446D01*
X104224003Y-77339433D01*
X104013566Y-77446657D01*
X103930047Y-77507338D01*
X103822490Y-77585483D01*
X103822488Y-77585485D01*
X103822487Y-77585485D01*
X103655482Y-77752490D01*
X103650315Y-77759603D01*
X103594983Y-77802266D01*
X103525370Y-77808242D01*
X103463576Y-77775634D01*
X103449685Y-77759603D01*
X103444517Y-77752490D01*
X103277512Y-77585485D01*
X103277510Y-77585483D01*
X103086433Y-77446657D01*
X102875996Y-77339433D01*
X102651368Y-77266446D01*
X102418097Y-77229500D01*
X102418092Y-77229500D01*
X102181908Y-77229500D01*
X102181903Y-77229500D01*
X101948631Y-77266446D01*
X101724003Y-77339433D01*
X101513566Y-77446657D01*
X101430047Y-77507338D01*
X101322490Y-77585483D01*
X101322488Y-77585485D01*
X101322487Y-77585485D01*
X101155482Y-77752490D01*
X101114615Y-77808739D01*
X101059285Y-77851404D01*
X101027455Y-77856096D01*
X100242137Y-78641414D01*
X100219333Y-78556306D01*
X100160090Y-78453694D01*
X100076306Y-78369910D01*
X99973694Y-78310667D01*
X99888584Y-78287861D01*
X100669105Y-77507340D01*
X100669104Y-77507338D01*
X100586174Y-77447087D01*
X100375802Y-77339897D01*
X100151247Y-77266934D01*
X100151248Y-77266934D01*
X99918052Y-77230000D01*
X99681948Y-77230000D01*
X99448752Y-77266934D01*
X99224197Y-77339897D01*
X99013830Y-77447084D01*
X98930894Y-77507340D01*
X99711415Y-78287861D01*
X99626306Y-78310667D01*
X99523694Y-78369910D01*
X99439910Y-78453694D01*
X99380667Y-78556306D01*
X99357861Y-78641415D01*
X98577340Y-77860894D01*
X98517084Y-77943830D01*
X98409897Y-78154197D01*
X98336934Y-78378752D01*
X98300000Y-78611947D01*
X88000000Y-78611947D01*
X88000000Y-74381947D01*
X94300000Y-74381947D01*
X94300000Y-74618052D01*
X94336934Y-74851247D01*
X94409897Y-75075802D01*
X94517087Y-75286174D01*
X94577338Y-75369104D01*
X94577340Y-75369105D01*
X95276212Y-74670233D01*
X95287482Y-74712292D01*
X95359890Y-74837708D01*
X95462292Y-74940110D01*
X95587708Y-75012518D01*
X95629765Y-75023787D01*
X94930893Y-75722658D01*
X95013828Y-75782914D01*
X95224197Y-75890102D01*
X95448752Y-75963065D01*
X95448751Y-75963065D01*
X95681948Y-76000000D01*
X95918052Y-76000000D01*
X96151247Y-75963065D01*
X96375802Y-75890102D01*
X96586163Y-75782918D01*
X96586169Y-75782914D01*
X96669104Y-75722658D01*
X96669105Y-75722658D01*
X95970233Y-75023787D01*
X96012292Y-75012518D01*
X96137708Y-74940110D01*
X96240110Y-74837708D01*
X96312518Y-74712292D01*
X96323787Y-74670234D01*
X97022658Y-75369105D01*
X97022658Y-75369104D01*
X97082914Y-75286169D01*
X97082918Y-75286163D01*
X97190102Y-75075802D01*
X97263065Y-74851247D01*
X97300000Y-74618052D01*
X97300000Y-74381947D01*
X107300000Y-74381947D01*
X107300000Y-74618052D01*
X107336934Y-74851247D01*
X107409897Y-75075802D01*
X107517087Y-75286174D01*
X107577338Y-75369104D01*
X107577340Y-75369105D01*
X108276212Y-74670233D01*
X108287482Y-74712292D01*
X108359890Y-74837708D01*
X108462292Y-74940110D01*
X108587708Y-75012518D01*
X108629765Y-75023787D01*
X107930893Y-75722658D01*
X108013828Y-75782914D01*
X108224197Y-75890102D01*
X108448752Y-75963065D01*
X108448751Y-75963065D01*
X108681948Y-76000000D01*
X108918052Y-76000000D01*
X109151247Y-75963065D01*
X109375802Y-75890102D01*
X109586163Y-75782918D01*
X109586169Y-75782914D01*
X109669104Y-75722658D01*
X109669105Y-75722658D01*
X108970233Y-75023787D01*
X109012292Y-75012518D01*
X109137708Y-74940110D01*
X109240110Y-74837708D01*
X109312518Y-74712292D01*
X109323787Y-74670234D01*
X110022658Y-75369105D01*
X110022658Y-75369104D01*
X110082914Y-75286169D01*
X110082918Y-75286163D01*
X110190102Y-75075802D01*
X110263065Y-74851247D01*
X110300000Y-74618052D01*
X110300000Y-74381947D01*
X110263065Y-74148752D01*
X110190102Y-73924197D01*
X110082914Y-73713828D01*
X110022658Y-73630894D01*
X110022658Y-73630893D01*
X109323787Y-74329765D01*
X109312518Y-74287708D01*
X109240110Y-74162292D01*
X109137708Y-74059890D01*
X109012292Y-73987482D01*
X108970234Y-73976212D01*
X109669105Y-73277340D01*
X109669104Y-73277338D01*
X109586174Y-73217087D01*
X109375802Y-73109897D01*
X109151247Y-73036934D01*
X109151248Y-73036934D01*
X108918052Y-73000000D01*
X108681948Y-73000000D01*
X108448752Y-73036934D01*
X108224197Y-73109897D01*
X108013830Y-73217084D01*
X107930894Y-73277340D01*
X108629766Y-73976212D01*
X108587708Y-73987482D01*
X108462292Y-74059890D01*
X108359890Y-74162292D01*
X108287482Y-74287708D01*
X108276212Y-74329766D01*
X107577340Y-73630894D01*
X107517084Y-73713830D01*
X107409897Y-73924197D01*
X107336934Y-74148752D01*
X107300000Y-74381947D01*
X97300000Y-74381947D01*
X97263065Y-74148752D01*
X97190102Y-73924197D01*
X97082914Y-73713828D01*
X97022658Y-73630894D01*
X97022658Y-73630893D01*
X96323787Y-74329765D01*
X96312518Y-74287708D01*
X96240110Y-74162292D01*
X96137708Y-74059890D01*
X96012292Y-73987482D01*
X95970234Y-73976212D01*
X96669105Y-73277340D01*
X96669104Y-73277339D01*
X96586174Y-73217087D01*
X96375802Y-73109897D01*
X96151247Y-73036934D01*
X96151248Y-73036934D01*
X95918052Y-73000000D01*
X95681948Y-73000000D01*
X95448752Y-73036934D01*
X95224197Y-73109897D01*
X95013830Y-73217084D01*
X94930894Y-73277340D01*
X95629766Y-73976212D01*
X95587708Y-73987482D01*
X95462292Y-74059890D01*
X95359890Y-74162292D01*
X95287482Y-74287708D01*
X95276212Y-74329766D01*
X94577340Y-73630894D01*
X94517084Y-73713830D01*
X94409897Y-73924197D01*
X94336934Y-74148752D01*
X94300000Y-74381947D01*
X88000000Y-74381947D01*
X88000000Y-66881902D01*
X91759500Y-66881902D01*
X91759500Y-67118097D01*
X91796446Y-67351368D01*
X91869433Y-67575996D01*
X91976657Y-67786433D01*
X92115483Y-67977510D01*
X92115485Y-67977512D01*
X92282490Y-68144517D01*
X92289603Y-68149685D01*
X92332266Y-68205017D01*
X92338242Y-68274630D01*
X92305634Y-68336424D01*
X92289603Y-68350315D01*
X92282490Y-68355482D01*
X92115485Y-68522487D01*
X92115485Y-68522488D01*
X92115483Y-68522490D01*
X92055862Y-68604550D01*
X91976657Y-68713566D01*
X91869433Y-68924003D01*
X91796446Y-69148631D01*
X91759500Y-69381902D01*
X91759500Y-69618097D01*
X91796446Y-69851368D01*
X91869433Y-70075996D01*
X91976657Y-70286433D01*
X92115483Y-70477510D01*
X92282490Y-70644517D01*
X92338739Y-70685384D01*
X92381403Y-70740713D01*
X92386095Y-70772542D01*
X93171415Y-71557861D01*
X93086306Y-71580667D01*
X92983694Y-71639910D01*
X92899910Y-71723694D01*
X92840667Y-71826306D01*
X92817861Y-71911415D01*
X92037340Y-71130894D01*
X91977084Y-71213830D01*
X91869897Y-71424197D01*
X91796934Y-71648752D01*
X91760000Y-71881947D01*
X91760000Y-72118052D01*
X91796934Y-72351247D01*
X91869897Y-72575802D01*
X91977087Y-72786174D01*
X92037338Y-72869104D01*
X92037340Y-72869105D01*
X92817861Y-72088584D01*
X92840667Y-72173694D01*
X92899910Y-72276306D01*
X92983694Y-72360090D01*
X93086306Y-72419333D01*
X93171415Y-72442138D01*
X92390893Y-73222658D01*
X92473828Y-73282914D01*
X92684197Y-73390102D01*
X92908752Y-73463065D01*
X92908751Y-73463065D01*
X93141948Y-73500000D01*
X93378052Y-73500000D01*
X93611247Y-73463065D01*
X93835802Y-73390102D01*
X94046163Y-73282918D01*
X94046169Y-73282914D01*
X94126872Y-73224281D01*
X94129104Y-73222658D01*
X94129105Y-73222658D01*
X93348584Y-72442138D01*
X93433694Y-72419333D01*
X93536306Y-72360090D01*
X93620090Y-72276306D01*
X93679333Y-72173694D01*
X93702138Y-72088585D01*
X94482658Y-72869105D01*
X94482658Y-72869104D01*
X94542914Y-72786169D01*
X94542918Y-72786163D01*
X94650102Y-72575802D01*
X94723065Y-72351247D01*
X94760000Y-72118052D01*
X94760000Y-71881947D01*
X94723065Y-71648752D01*
X94650102Y-71424197D01*
X94542914Y-71213828D01*
X94482658Y-71130894D01*
X94482658Y-71130893D01*
X93702137Y-71911414D01*
X93679333Y-71826306D01*
X93620090Y-71723694D01*
X93536306Y-71639910D01*
X93433694Y-71580667D01*
X93348584Y-71557861D01*
X94135716Y-70770729D01*
X94144891Y-70727054D01*
X94181257Y-70685386D01*
X94237510Y-70644517D01*
X94404517Y-70477510D01*
X94543343Y-70286433D01*
X94650568Y-70075992D01*
X94723553Y-69851368D01*
X94760500Y-69618097D01*
X94760500Y-69381902D01*
X94723553Y-69148631D01*
X94650566Y-68924003D01*
X94543342Y-68713566D01*
X94404517Y-68522490D01*
X94237510Y-68355483D01*
X94230401Y-68350318D01*
X94187735Y-68294988D01*
X94181756Y-68225375D01*
X94214362Y-68163580D01*
X94230401Y-68149682D01*
X94230500Y-68149609D01*
X94237510Y-68144517D01*
X94404517Y-67977510D01*
X94543343Y-67786433D01*
X94650568Y-67575992D01*
X94723553Y-67351368D01*
X94760500Y-67118097D01*
X94760500Y-66881902D01*
X94723553Y-66648631D01*
X94650566Y-66424003D01*
X94543342Y-66213566D01*
X94404517Y-66022490D01*
X94237510Y-65855483D01*
X94046433Y-65716657D01*
X93835996Y-65609433D01*
X93611368Y-65536446D01*
X93378097Y-65499500D01*
X93378092Y-65499500D01*
X93141908Y-65499500D01*
X93141903Y-65499500D01*
X92908631Y-65536446D01*
X92684003Y-65609433D01*
X92473566Y-65716657D01*
X92392278Y-65775717D01*
X92282490Y-65855483D01*
X92282488Y-65855485D01*
X92282487Y-65855485D01*
X92115485Y-66022487D01*
X92115485Y-66022488D01*
X92115483Y-66022490D01*
X92055862Y-66104550D01*
X91976657Y-66213566D01*
X91869433Y-66424003D01*
X91796446Y-66648631D01*
X91759500Y-66881902D01*
X88000000Y-66881902D01*
X88000000Y-64381947D01*
X94300000Y-64381947D01*
X94300000Y-64618052D01*
X94336934Y-64851247D01*
X94409897Y-65075802D01*
X94517087Y-65286174D01*
X94577338Y-65369104D01*
X94577340Y-65369105D01*
X95276212Y-64670233D01*
X95287482Y-64712292D01*
X95359890Y-64837708D01*
X95462292Y-64940110D01*
X95587708Y-65012518D01*
X95629765Y-65023787D01*
X94930893Y-65722658D01*
X95013828Y-65782914D01*
X95224197Y-65890102D01*
X95448752Y-65963065D01*
X95448751Y-65963065D01*
X95681948Y-66000000D01*
X95918052Y-66000000D01*
X96151247Y-65963065D01*
X96375802Y-65890102D01*
X96586163Y-65782918D01*
X96586169Y-65782914D01*
X96669104Y-65722658D01*
X96669105Y-65722658D01*
X95970233Y-65023787D01*
X96012292Y-65012518D01*
X96137708Y-64940110D01*
X96240110Y-64837708D01*
X96312518Y-64712292D01*
X96323787Y-64670234D01*
X97022658Y-65369105D01*
X97022658Y-65369104D01*
X97082914Y-65286169D01*
X97082918Y-65286163D01*
X97190102Y-65075802D01*
X97202684Y-65037081D01*
X97202684Y-65037080D01*
X97263065Y-64851245D01*
X97300000Y-64618052D01*
X97300000Y-64381947D01*
X97263065Y-64148752D01*
X97190102Y-63924197D01*
X97143824Y-63833370D01*
X97117623Y-63781947D01*
X97700000Y-63781947D01*
X97700000Y-64018052D01*
X97736934Y-64251247D01*
X97809897Y-64475802D01*
X97917087Y-64686174D01*
X97977338Y-64769104D01*
X97977340Y-64769105D01*
X98757861Y-63988584D01*
X98780667Y-64073694D01*
X98839910Y-64176306D01*
X98923694Y-64260090D01*
X99026306Y-64319333D01*
X99111415Y-64342138D01*
X98330893Y-65122658D01*
X98413828Y-65182914D01*
X98624197Y-65290102D01*
X98848752Y-65363065D01*
X98848751Y-65363065D01*
X99081948Y-65400000D01*
X99318052Y-65400000D01*
X99551247Y-65363065D01*
X99775802Y-65290102D01*
X99986163Y-65182918D01*
X99986169Y-65182914D01*
X100069104Y-65122658D01*
X100069105Y-65122658D01*
X99288584Y-64342138D01*
X99373694Y-64319333D01*
X99476306Y-64260090D01*
X99560090Y-64176306D01*
X99619333Y-64073694D01*
X99642138Y-63988585D01*
X100422658Y-64769105D01*
X100422658Y-64769104D01*
X100482914Y-64686169D01*
X100482918Y-64686163D01*
X100590102Y-64475802D01*
X100663065Y-64251247D01*
X100700000Y-64018052D01*
X100700000Y-63781947D01*
X103900000Y-63781947D01*
X103900000Y-64018052D01*
X103936934Y-64251247D01*
X104009897Y-64475802D01*
X104117087Y-64686174D01*
X104177338Y-64769104D01*
X104177340Y-64769105D01*
X104957861Y-63988584D01*
X104980667Y-64073694D01*
X105039910Y-64176306D01*
X105123694Y-64260090D01*
X105226306Y-64319333D01*
X105311415Y-64342138D01*
X104530893Y-65122658D01*
X104613828Y-65182914D01*
X104824197Y-65290102D01*
X105048752Y-65363065D01*
X105048751Y-65363065D01*
X105281948Y-65400000D01*
X105518052Y-65400000D01*
X105751247Y-65363065D01*
X105975802Y-65290102D01*
X106186163Y-65182918D01*
X106186169Y-65182914D01*
X106269104Y-65122658D01*
X106269105Y-65122658D01*
X105488584Y-64342138D01*
X105573694Y-64319333D01*
X105676306Y-64260090D01*
X105760090Y-64176306D01*
X105819333Y-64073694D01*
X105842138Y-63988585D01*
X106622658Y-64769105D01*
X106622658Y-64769104D01*
X106682914Y-64686169D01*
X106682918Y-64686163D01*
X106790102Y-64475802D01*
X106820598Y-64381947D01*
X107300000Y-64381947D01*
X107300000Y-64618052D01*
X107336934Y-64851247D01*
X107409897Y-65075802D01*
X107517087Y-65286174D01*
X107577338Y-65369104D01*
X107577340Y-65369105D01*
X108276212Y-64670233D01*
X108287482Y-64712292D01*
X108359890Y-64837708D01*
X108462292Y-64940110D01*
X108587708Y-65012518D01*
X108629765Y-65023787D01*
X107930893Y-65722658D01*
X108013828Y-65782914D01*
X108224197Y-65890102D01*
X108448752Y-65963065D01*
X108448751Y-65963065D01*
X108681948Y-66000000D01*
X108918052Y-66000000D01*
X109151247Y-65963065D01*
X109375802Y-65890102D01*
X109586163Y-65782918D01*
X109586169Y-65782914D01*
X109669104Y-65722658D01*
X109669105Y-65722658D01*
X108970233Y-65023787D01*
X109012292Y-65012518D01*
X109137708Y-64940110D01*
X109240110Y-64837708D01*
X109312518Y-64712292D01*
X109323787Y-64670234D01*
X110022658Y-65369105D01*
X110022658Y-65369104D01*
X110082914Y-65286169D01*
X110082918Y-65286163D01*
X110190102Y-65075802D01*
X110263065Y-64851247D01*
X110300000Y-64618052D01*
X110300000Y-64381947D01*
X110263065Y-64148752D01*
X110190102Y-63924197D01*
X110082914Y-63713828D01*
X110022658Y-63630894D01*
X110022658Y-63630893D01*
X109323787Y-64329765D01*
X109312518Y-64287708D01*
X109240110Y-64162292D01*
X109137708Y-64059890D01*
X109012292Y-63987482D01*
X108970234Y-63976212D01*
X109669105Y-63277340D01*
X109669104Y-63277338D01*
X109586174Y-63217087D01*
X109375802Y-63109897D01*
X109151247Y-63036934D01*
X109151248Y-63036934D01*
X108918052Y-63000000D01*
X108681948Y-63000000D01*
X108448752Y-63036934D01*
X108224197Y-63109897D01*
X108013830Y-63217084D01*
X107930894Y-63277340D01*
X108629766Y-63976212D01*
X108587708Y-63987482D01*
X108462292Y-64059890D01*
X108359890Y-64162292D01*
X108287482Y-64287708D01*
X108276212Y-64329766D01*
X107577340Y-63630894D01*
X107517084Y-63713830D01*
X107409897Y-63924197D01*
X107336934Y-64148752D01*
X107300000Y-64381947D01*
X106820598Y-64381947D01*
X106834632Y-64338757D01*
X106863065Y-64251247D01*
X106900000Y-64018052D01*
X106900000Y-63781947D01*
X106863065Y-63548751D01*
X106802684Y-63362917D01*
X106790102Y-63324195D01*
X106682914Y-63113828D01*
X106622658Y-63030894D01*
X106622658Y-63030893D01*
X105842137Y-63811414D01*
X105819333Y-63726306D01*
X105760090Y-63623694D01*
X105676306Y-63539910D01*
X105573694Y-63480667D01*
X105488584Y-63457861D01*
X106269105Y-62677340D01*
X106269104Y-62677338D01*
X106186174Y-62617087D01*
X105975802Y-62509897D01*
X105751247Y-62436934D01*
X105751248Y-62436934D01*
X105518052Y-62400000D01*
X105281948Y-62400000D01*
X105048752Y-62436934D01*
X104824197Y-62509897D01*
X104613830Y-62617084D01*
X104530894Y-62677340D01*
X105311415Y-63457861D01*
X105226306Y-63480667D01*
X105123694Y-63539910D01*
X105039910Y-63623694D01*
X104980667Y-63726306D01*
X104957861Y-63811415D01*
X104177340Y-63030894D01*
X104117084Y-63113830D01*
X104009897Y-63324197D01*
X103936934Y-63548752D01*
X103900000Y-63781947D01*
X100700000Y-63781947D01*
X100663065Y-63548752D01*
X100590102Y-63324197D01*
X100482914Y-63113828D01*
X100422658Y-63030894D01*
X100422658Y-63030893D01*
X99642137Y-63811414D01*
X99619333Y-63726306D01*
X99560090Y-63623694D01*
X99476306Y-63539910D01*
X99373694Y-63480667D01*
X99288584Y-63457861D01*
X100069105Y-62677340D01*
X100069104Y-62677339D01*
X99986174Y-62617087D01*
X99775802Y-62509897D01*
X99551247Y-62436934D01*
X99551248Y-62436934D01*
X99318052Y-62400000D01*
X99081948Y-62400000D01*
X98848752Y-62436934D01*
X98624197Y-62509897D01*
X98413830Y-62617084D01*
X98330894Y-62677340D01*
X99111415Y-63457861D01*
X99026306Y-63480667D01*
X98923694Y-63539910D01*
X98839910Y-63623694D01*
X98780667Y-63726306D01*
X98757861Y-63811415D01*
X97977340Y-63030894D01*
X97917084Y-63113830D01*
X97809897Y-63324197D01*
X97736934Y-63548752D01*
X97700000Y-63781947D01*
X97117623Y-63781947D01*
X97082914Y-63713828D01*
X97022658Y-63630894D01*
X97022658Y-63630893D01*
X96323787Y-64329765D01*
X96312518Y-64287708D01*
X96240110Y-64162292D01*
X96137708Y-64059890D01*
X96012292Y-63987482D01*
X95970234Y-63976212D01*
X96669105Y-63277340D01*
X96669104Y-63277338D01*
X96586174Y-63217087D01*
X96375802Y-63109897D01*
X96151247Y-63036934D01*
X96151248Y-63036934D01*
X95918052Y-63000000D01*
X95681948Y-63000000D01*
X95448752Y-63036934D01*
X95224197Y-63109897D01*
X95013830Y-63217084D01*
X94930894Y-63277340D01*
X95629766Y-63976212D01*
X95587708Y-63987482D01*
X95462292Y-64059890D01*
X95359890Y-64162292D01*
X95287482Y-64287708D01*
X95276212Y-64329766D01*
X94577340Y-63630894D01*
X94517084Y-63713830D01*
X94409897Y-63924197D01*
X94336934Y-64148752D01*
X94300000Y-64381947D01*
X88000000Y-64381947D01*
X88000000Y-58981947D01*
X97700000Y-58981947D01*
X97700000Y-59218052D01*
X97736934Y-59451247D01*
X97809897Y-59675802D01*
X97917087Y-59886174D01*
X97977338Y-59969104D01*
X97977340Y-59969105D01*
X98757861Y-59188584D01*
X98780667Y-59273694D01*
X98839910Y-59376306D01*
X98923694Y-59460090D01*
X99026306Y-59519333D01*
X99111415Y-59542138D01*
X98330893Y-60322658D01*
X98413828Y-60382914D01*
X98624197Y-60490102D01*
X98848752Y-60563065D01*
X98848751Y-60563065D01*
X99081948Y-60600000D01*
X99318052Y-60600000D01*
X99551247Y-60563065D01*
X99775802Y-60490102D01*
X99986163Y-60382918D01*
X99986169Y-60382914D01*
X100069104Y-60322658D01*
X100069105Y-60322658D01*
X99288584Y-59542138D01*
X99373694Y-59519333D01*
X99476306Y-59460090D01*
X99560090Y-59376306D01*
X99619333Y-59273694D01*
X99642138Y-59188585D01*
X100422658Y-59969105D01*
X100422658Y-59969104D01*
X100482914Y-59886169D01*
X100482918Y-59886163D01*
X100590102Y-59675802D01*
X100663065Y-59451247D01*
X100700000Y-59218052D01*
X100700000Y-58981947D01*
X103900000Y-58981947D01*
X103900000Y-59218052D01*
X103936934Y-59451247D01*
X104009897Y-59675802D01*
X104117087Y-59886174D01*
X104177338Y-59969104D01*
X104177340Y-59969105D01*
X104957861Y-59188584D01*
X104980667Y-59273694D01*
X105039910Y-59376306D01*
X105123694Y-59460090D01*
X105226306Y-59519333D01*
X105311415Y-59542138D01*
X104530893Y-60322658D01*
X104613828Y-60382914D01*
X104824197Y-60490102D01*
X105048752Y-60563065D01*
X105048751Y-60563065D01*
X105281948Y-60600000D01*
X105518052Y-60600000D01*
X105751247Y-60563065D01*
X105975802Y-60490102D01*
X106186163Y-60382918D01*
X106186169Y-60382914D01*
X106269104Y-60322658D01*
X106269105Y-60322658D01*
X105488584Y-59542138D01*
X105573694Y-59519333D01*
X105676306Y-59460090D01*
X105760090Y-59376306D01*
X105819333Y-59273694D01*
X105842138Y-59188585D01*
X106622658Y-59969105D01*
X106622658Y-59969104D01*
X106682914Y-59886169D01*
X106682918Y-59886163D01*
X106790102Y-59675802D01*
X106863065Y-59451247D01*
X106900000Y-59218052D01*
X106900000Y-58981947D01*
X106863065Y-58748752D01*
X106790102Y-58524197D01*
X106682914Y-58313828D01*
X106622658Y-58230894D01*
X106622658Y-58230893D01*
X105842137Y-59011414D01*
X105819333Y-58926306D01*
X105760090Y-58823694D01*
X105676306Y-58739910D01*
X105573694Y-58680667D01*
X105488584Y-58657861D01*
X106269105Y-57877340D01*
X106269104Y-57877338D01*
X106186174Y-57817087D01*
X105975802Y-57709897D01*
X105751247Y-57636934D01*
X105751248Y-57636934D01*
X105518052Y-57600000D01*
X105281948Y-57600000D01*
X105048752Y-57636934D01*
X104824197Y-57709897D01*
X104613830Y-57817084D01*
X104530894Y-57877340D01*
X105311415Y-58657861D01*
X105226306Y-58680667D01*
X105123694Y-58739910D01*
X105039910Y-58823694D01*
X104980667Y-58926306D01*
X104957861Y-59011415D01*
X104177340Y-58230894D01*
X104117084Y-58313830D01*
X104009897Y-58524197D01*
X103936934Y-58748752D01*
X103900000Y-58981947D01*
X100700000Y-58981947D01*
X100663065Y-58748752D01*
X100590102Y-58524197D01*
X100482914Y-58313828D01*
X100422658Y-58230894D01*
X100422658Y-58230893D01*
X99642137Y-59011414D01*
X99619333Y-58926306D01*
X99560090Y-58823694D01*
X99476306Y-58739910D01*
X99373694Y-58680667D01*
X99288584Y-58657861D01*
X100069105Y-57877340D01*
X100069104Y-57877339D01*
X99986174Y-57817087D01*
X99775802Y-57709897D01*
X99551247Y-57636934D01*
X99551248Y-57636934D01*
X99318052Y-57600000D01*
X99081948Y-57600000D01*
X98848752Y-57636934D01*
X98624197Y-57709897D01*
X98413830Y-57817084D01*
X98330894Y-57877340D01*
X99111415Y-58657861D01*
X99026306Y-58680667D01*
X98923694Y-58739910D01*
X98839910Y-58823694D01*
X98780667Y-58926306D01*
X98757861Y-59011415D01*
X97977340Y-58230894D01*
X97917084Y-58313830D01*
X97809897Y-58524197D01*
X97736934Y-58748752D01*
X97700000Y-58981947D01*
X88000000Y-58981947D01*
X88000000Y-52883994D01*
X108230000Y-52883994D01*
X108230000Y-53116005D01*
X108230001Y-53116022D01*
X108260283Y-53346040D01*
X108260286Y-53346053D01*
X108320336Y-53570167D01*
X108409124Y-53784521D01*
X108409132Y-53784538D01*
X108525136Y-53985461D01*
X108525142Y-53985469D01*
X108584117Y-54062327D01*
X109137425Y-53509019D01*
X109223249Y-53637463D01*
X109362537Y-53776751D01*
X109490979Y-53862573D01*
X108937671Y-54415881D01*
X109014530Y-54474857D01*
X109014538Y-54474863D01*
X109215461Y-54590867D01*
X109215478Y-54590875D01*
X109429832Y-54679663D01*
X109653946Y-54739713D01*
X109653959Y-54739716D01*
X109883977Y-54769998D01*
X109883995Y-54770000D01*
X110116005Y-54770000D01*
X110116022Y-54769998D01*
X110346040Y-54739716D01*
X110346053Y-54739713D01*
X110570167Y-54679663D01*
X110784521Y-54590875D01*
X110784538Y-54590867D01*
X110985475Y-54474855D01*
X111062327Y-54415883D01*
X111062327Y-54415880D01*
X110509020Y-53862573D01*
X110637463Y-53776751D01*
X110776751Y-53637463D01*
X110862573Y-53509020D01*
X111415880Y-54062327D01*
X111415883Y-54062327D01*
X111474855Y-53985475D01*
X111590867Y-53784538D01*
X111590875Y-53784521D01*
X111679663Y-53570167D01*
X111739713Y-53346053D01*
X111739716Y-53346040D01*
X111769998Y-53116022D01*
X111770000Y-53116005D01*
X111770000Y-52883994D01*
X111769998Y-52883977D01*
X111739716Y-52653959D01*
X111739713Y-52653946D01*
X111679663Y-52429832D01*
X111590875Y-52215478D01*
X111590867Y-52215461D01*
X111474863Y-52014538D01*
X111474857Y-52014530D01*
X111415881Y-51937671D01*
X110862573Y-52490979D01*
X110776751Y-52362537D01*
X110637463Y-52223249D01*
X110509019Y-52137425D01*
X111062327Y-51584117D01*
X110985469Y-51525142D01*
X110985461Y-51525136D01*
X110784538Y-51409132D01*
X110784521Y-51409124D01*
X110570167Y-51320336D01*
X110346053Y-51260286D01*
X110346040Y-51260283D01*
X110116022Y-51230001D01*
X110116005Y-51230000D01*
X109883995Y-51230000D01*
X109883977Y-51230001D01*
X109653959Y-51260283D01*
X109653946Y-51260286D01*
X109429832Y-51320336D01*
X109215478Y-51409124D01*
X109215461Y-51409132D01*
X109014541Y-51525134D01*
X109014533Y-51525140D01*
X108937671Y-51584116D01*
X108937671Y-51584117D01*
X109490979Y-52137425D01*
X109362537Y-52223249D01*
X109223249Y-52362537D01*
X109137426Y-52490979D01*
X108584117Y-51937671D01*
X108584116Y-51937671D01*
X108525140Y-52014533D01*
X108525134Y-52014541D01*
X108409132Y-52215461D01*
X108409124Y-52215478D01*
X108320336Y-52429832D01*
X108260286Y-52653946D01*
X108260283Y-52653959D01*
X108230001Y-52883977D01*
X108230000Y-52883994D01*
X88000000Y-52883994D01*
X88000000Y-52500000D01*
X88000000Y-50500500D01*
X112375500Y-50500500D01*
X112442539Y-50520185D01*
G37*
%TD.AperFunction*%
%TD*%
M02*
