%TF.GenerationSoftware,KiCad,Pcbnew,9.0.7*%
%TF.CreationDate,2026-02-07T18:17:30+01:00*%
%TF.ProjectId,telecommande,74656c65-636f-46d6-9d61-6e64652e6b69,rev?*%
%TF.SameCoordinates,Original*%
%TF.FileFunction,Copper,L1,Top*%
%TF.FilePolarity,Positive*%
%FSLAX46Y46*%
G04 Gerber Fmt 4.6, Leading zero omitted, Abs format (unit mm)*
G04 Created by KiCad (PCBNEW 9.0.7) date 2026-02-07 18:17:30*
%MOMM*%
%LPD*%
G01*
G04 APERTURE LIST*
G04 Aperture macros list*
%AMRoundRect*
0 Rectangle with rounded corners*
0 $1 Rounding radius*
0 $2 $3 $4 $5 $6 $7 $8 $9 X,Y pos of 4 corners*
0 Add a 4 corners polygon primitive as box body*
4,1,4,$2,$3,$4,$5,$6,$7,$8,$9,$2,$3,0*
0 Add four circle primitives for the rounded corners*
1,1,$1+$1,$2,$3*
1,1,$1+$1,$4,$5*
1,1,$1+$1,$6,$7*
1,1,$1+$1,$8,$9*
0 Add four rect primitives between the rounded corners*
20,1,$1+$1,$2,$3,$4,$5,0*
20,1,$1+$1,$4,$5,$6,$7,0*
20,1,$1+$1,$6,$7,$8,$9,0*
20,1,$1+$1,$8,$9,$2,$3,0*%
G04 Aperture macros list end*
%TA.AperFunction,ComponentPad*%
%ADD10RoundRect,0.300000X-0.700000X0.700000X-0.700000X-0.700000X0.700000X-0.700000X0.700000X0.700000X0*%
%TD*%
%TA.AperFunction,ComponentPad*%
%ADD11C,2.540000*%
%TD*%
%TA.AperFunction,ComponentPad*%
%ADD12C,2.000000*%
%TD*%
%TA.AperFunction,Conductor*%
%ADD13C,0.600000*%
%TD*%
G04 APERTURE END LIST*
D10*
%TO.P,U1,1,5V*%
%TO.N,unconnected-(U1-5V-Pad1)*%
X52000000Y-80230000D03*
%TO.P,U1,2,GND*%
%TO.N,GND*%
X54540000Y-80230000D03*
%TO.P,U1,3,GPIO39*%
%TO.N,Net-(U1-GPIO39)*%
X69780000Y-80230000D03*
%TO.P,U1,4,GPIO36*%
%TO.N,Net-(U1-GPIO36)*%
X77400000Y-80230000D03*
%TO.P,U1,5,3.3V*%
%TO.N,Net-(U1-3.3V-Pad5)*%
X79940000Y-80230000D03*
%TO.P,U1,6,3.3V*%
%TO.N,unconnected-(U1-3.3V-Pad6)*%
X52000000Y-57370000D03*
%TO.P,U1,7,GND*%
%TO.N,GND*%
X54540000Y-57370000D03*
%TO.P,U1,8,GND*%
X57080000Y-57370000D03*
%TO.P,U1,9,GND*%
X77400000Y-57370000D03*
%TO.P,U1,10,GND*%
X79940000Y-57370000D03*
%TD*%
D11*
%TO.P,DH4,1,DH*%
%TO.N,GND*%
X110000000Y-85000000D03*
%TD*%
D12*
%TO.P,U2,1*%
%TO.N,Net-(U1-3.3V-Pad5)*%
X93260000Y-67000000D03*
%TO.P,U2,2*%
%TO.N,Net-(U1-GPIO36)*%
X93260000Y-69500000D03*
%TO.P,U2,3*%
%TO.N,GND*%
X93260000Y-72000000D03*
%TO.P,U2,4*%
X99800000Y-78730000D03*
%TO.P,U2,5*%
%TO.N,Net-(U1-GPIO39)*%
X102300000Y-78730000D03*
%TO.P,U2,6*%
%TO.N,Net-(U1-3.3V-Pad5)*%
X104800000Y-78730000D03*
%TO.P,U2,7*%
%TO.N,GND*%
X105400000Y-63900000D03*
%TO.P,U2,8*%
X99200000Y-63900000D03*
%TO.P,U2,9*%
X105400000Y-59100000D03*
%TO.P,U2,10*%
X99200000Y-59100000D03*
%TO.P,U2,11,G1*%
X95800000Y-74500000D03*
%TO.P,U2,12,G2*%
X108800000Y-74500000D03*
%TO.P,U2,13,G3*%
X95800000Y-64500000D03*
%TO.P,U2,14,G4*%
X108800000Y-64500000D03*
%TD*%
D11*
%TO.P,DH2,1,DH*%
%TO.N,GND*%
X53000000Y-85000000D03*
%TD*%
%TO.P,DH3,1,DH*%
%TO.N,GND*%
X110000000Y-53000000D03*
%TD*%
%TO.P,DH1,1,DH*%
%TO.N,GND*%
X53000000Y-53000000D03*
%TD*%
D13*
%TO.N,Net-(U1-GPIO36)*%
X79000000Y-84000000D02*
X90000000Y-84000000D01*
X77400000Y-82400000D02*
X79000000Y-84000000D01*
X90000000Y-84000000D02*
X90000000Y-72760000D01*
X90000000Y-72760000D02*
X93260000Y-69500000D01*
X77400000Y-80230000D02*
X77400000Y-82400000D01*
%TO.N,Net-(U1-3.3V-Pad5)*%
X88200000Y-82600000D02*
X88200000Y-72060000D01*
X81000000Y-82600000D02*
X88200000Y-82600000D01*
X79940000Y-80230000D02*
X79940000Y-81740000D01*
X88200000Y-72060000D02*
X93260000Y-67000000D01*
X80900000Y-82700000D02*
X81000000Y-82600000D01*
X79940000Y-81740000D02*
X80900000Y-82700000D01*
X93260000Y-67000000D02*
X104800000Y-78540000D01*
X104800000Y-78540000D02*
X104800000Y-78730000D01*
%TO.N,Net-(U1-GPIO39)*%
X74200000Y-85900000D02*
X74300000Y-85800000D01*
X69780000Y-81480000D02*
X74200000Y-85900000D01*
X74300000Y-85800000D02*
X95230000Y-85800000D01*
X95230000Y-85800000D02*
X102300000Y-78730000D01*
X69780000Y-80230000D02*
X69780000Y-81480000D01*
%TD*%
M02*
