%TF.GenerationSoftware,KiCad,Pcbnew,9.0.7*%
%TF.CreationDate,2026-02-07T17:54:55+01:00*%
%TF.ProjectId,robot,726f626f-742e-46b6-9963-61645f706362,rev?*%
%TF.SameCoordinates,Original*%
%TF.FileFunction,Legend,Top*%
%TF.FilePolarity,Positive*%
%FSLAX46Y46*%
G04 Gerber Fmt 4.6, Leading zero omitted, Abs format (unit mm)*
G04 Created by KiCad (PCBNEW 9.0.7) date 2026-02-07 17:54:55*
%MOMM*%
%LPD*%
G01*
G04 APERTURE LIST*
%ADD10C,0.100000*%
%ADD11C,0.200000*%
G04 APERTURE END LIST*
D10*
X107866666Y-84057419D02*
X107866666Y-84771704D01*
X107866666Y-84771704D02*
X107819047Y-84914561D01*
X107819047Y-84914561D02*
X107723809Y-85009800D01*
X107723809Y-85009800D02*
X107580952Y-85057419D01*
X107580952Y-85057419D02*
X107485714Y-85057419D01*
X108819047Y-84057419D02*
X108342857Y-84057419D01*
X108342857Y-84057419D02*
X108295238Y-84533609D01*
X108295238Y-84533609D02*
X108342857Y-84485990D01*
X108342857Y-84485990D02*
X108438095Y-84438371D01*
X108438095Y-84438371D02*
X108676190Y-84438371D01*
X108676190Y-84438371D02*
X108771428Y-84485990D01*
X108771428Y-84485990D02*
X108819047Y-84533609D01*
X108819047Y-84533609D02*
X108866666Y-84628847D01*
X108866666Y-84628847D02*
X108866666Y-84866942D01*
X108866666Y-84866942D02*
X108819047Y-84962180D01*
X108819047Y-84962180D02*
X108771428Y-85009800D01*
X108771428Y-85009800D02*
X108676190Y-85057419D01*
X108676190Y-85057419D02*
X108438095Y-85057419D01*
X108438095Y-85057419D02*
X108342857Y-85009800D01*
X108342857Y-85009800D02*
X108295238Y-84962180D01*
X73266666Y-57657419D02*
X73266666Y-58371704D01*
X73266666Y-58371704D02*
X73219047Y-58514561D01*
X73219047Y-58514561D02*
X73123809Y-58609800D01*
X73123809Y-58609800D02*
X72980952Y-58657419D01*
X72980952Y-58657419D02*
X72885714Y-58657419D01*
X73647619Y-57657419D02*
X74266666Y-57657419D01*
X74266666Y-57657419D02*
X73933333Y-58038371D01*
X73933333Y-58038371D02*
X74076190Y-58038371D01*
X74076190Y-58038371D02*
X74171428Y-58085990D01*
X74171428Y-58085990D02*
X74219047Y-58133609D01*
X74219047Y-58133609D02*
X74266666Y-58228847D01*
X74266666Y-58228847D02*
X74266666Y-58466942D01*
X74266666Y-58466942D02*
X74219047Y-58562180D01*
X74219047Y-58562180D02*
X74171428Y-58609800D01*
X74171428Y-58609800D02*
X74076190Y-58657419D01*
X74076190Y-58657419D02*
X73790476Y-58657419D01*
X73790476Y-58657419D02*
X73695238Y-58609800D01*
X73695238Y-58609800D02*
X73647619Y-58562180D01*
X68961905Y-86457419D02*
X68961905Y-85457419D01*
X68961905Y-85457419D02*
X69200000Y-85457419D01*
X69200000Y-85457419D02*
X69342857Y-85505038D01*
X69342857Y-85505038D02*
X69438095Y-85600276D01*
X69438095Y-85600276D02*
X69485714Y-85695514D01*
X69485714Y-85695514D02*
X69533333Y-85885990D01*
X69533333Y-85885990D02*
X69533333Y-86028847D01*
X69533333Y-86028847D02*
X69485714Y-86219323D01*
X69485714Y-86219323D02*
X69438095Y-86314561D01*
X69438095Y-86314561D02*
X69342857Y-86409800D01*
X69342857Y-86409800D02*
X69200000Y-86457419D01*
X69200000Y-86457419D02*
X68961905Y-86457419D01*
X69914286Y-85552657D02*
X69961905Y-85505038D01*
X69961905Y-85505038D02*
X70057143Y-85457419D01*
X70057143Y-85457419D02*
X70295238Y-85457419D01*
X70295238Y-85457419D02*
X70390476Y-85505038D01*
X70390476Y-85505038D02*
X70438095Y-85552657D01*
X70438095Y-85552657D02*
X70485714Y-85647895D01*
X70485714Y-85647895D02*
X70485714Y-85743133D01*
X70485714Y-85743133D02*
X70438095Y-85885990D01*
X70438095Y-85885990D02*
X69866667Y-86457419D01*
X69866667Y-86457419D02*
X70485714Y-86457419D01*
X90672419Y-94457544D02*
X90672419Y-94648020D01*
X90672419Y-94648020D02*
X90720038Y-94743258D01*
X90720038Y-94743258D02*
X90767657Y-94790877D01*
X90767657Y-94790877D02*
X90910514Y-94886115D01*
X90910514Y-94886115D02*
X91100990Y-94933734D01*
X91100990Y-94933734D02*
X91481942Y-94933734D01*
X91481942Y-94933734D02*
X91577180Y-94886115D01*
X91577180Y-94886115D02*
X91624800Y-94838496D01*
X91624800Y-94838496D02*
X91672419Y-94743258D01*
X91672419Y-94743258D02*
X91672419Y-94552782D01*
X91672419Y-94552782D02*
X91624800Y-94457544D01*
X91624800Y-94457544D02*
X91577180Y-94409925D01*
X91577180Y-94409925D02*
X91481942Y-94362306D01*
X91481942Y-94362306D02*
X91243847Y-94362306D01*
X91243847Y-94362306D02*
X91148609Y-94409925D01*
X91148609Y-94409925D02*
X91100990Y-94457544D01*
X91100990Y-94457544D02*
X91053371Y-94552782D01*
X91053371Y-94552782D02*
X91053371Y-94743258D01*
X91053371Y-94743258D02*
X91100990Y-94838496D01*
X91100990Y-94838496D02*
X91148609Y-94886115D01*
X91148609Y-94886115D02*
X91243847Y-94933734D01*
X90624800Y-93219449D02*
X91910514Y-94076591D01*
X90672419Y-92981353D02*
X90672419Y-92314687D01*
X90672419Y-92314687D02*
X91672419Y-92743258D01*
X83872419Y-95362306D02*
X83872419Y-95933734D01*
X83872419Y-95648020D02*
X82872419Y-95648020D01*
X82872419Y-95648020D02*
X83015276Y-95743258D01*
X83015276Y-95743258D02*
X83110514Y-95838496D01*
X83110514Y-95838496D02*
X83158133Y-95933734D01*
X82872419Y-95028972D02*
X82872419Y-94409925D01*
X82872419Y-94409925D02*
X83253371Y-94743258D01*
X83253371Y-94743258D02*
X83253371Y-94600401D01*
X83253371Y-94600401D02*
X83300990Y-94505163D01*
X83300990Y-94505163D02*
X83348609Y-94457544D01*
X83348609Y-94457544D02*
X83443847Y-94409925D01*
X83443847Y-94409925D02*
X83681942Y-94409925D01*
X83681942Y-94409925D02*
X83777180Y-94457544D01*
X83777180Y-94457544D02*
X83824800Y-94505163D01*
X83824800Y-94505163D02*
X83872419Y-94600401D01*
X83872419Y-94600401D02*
X83872419Y-94886115D01*
X83872419Y-94886115D02*
X83824800Y-94981353D01*
X83824800Y-94981353D02*
X83777180Y-95028972D01*
X82824800Y-93267068D02*
X84110514Y-94124210D01*
X83872419Y-92409925D02*
X83872419Y-92981353D01*
X83872419Y-92695639D02*
X82872419Y-92695639D01*
X82872419Y-92695639D02*
X83015276Y-92790877D01*
X83015276Y-92790877D02*
X83110514Y-92886115D01*
X83110514Y-92886115D02*
X83158133Y-92981353D01*
X82967657Y-92028972D02*
X82920038Y-91981353D01*
X82920038Y-91981353D02*
X82872419Y-91886115D01*
X82872419Y-91886115D02*
X82872419Y-91648020D01*
X82872419Y-91648020D02*
X82920038Y-91552782D01*
X82920038Y-91552782D02*
X82967657Y-91505163D01*
X82967657Y-91505163D02*
X83062895Y-91457544D01*
X83062895Y-91457544D02*
X83158133Y-91457544D01*
X83158133Y-91457544D02*
X83300990Y-91505163D01*
X83300990Y-91505163D02*
X83872419Y-92076591D01*
X83872419Y-92076591D02*
X83872419Y-91457544D01*
X81472419Y-95362306D02*
X81472419Y-95933734D01*
X81472419Y-95648020D02*
X80472419Y-95648020D01*
X80472419Y-95648020D02*
X80615276Y-95743258D01*
X80615276Y-95743258D02*
X80710514Y-95838496D01*
X80710514Y-95838496D02*
X80758133Y-95933734D01*
X80805752Y-94505163D02*
X81472419Y-94505163D01*
X80424800Y-94743258D02*
X81139085Y-94981353D01*
X81139085Y-94981353D02*
X81139085Y-94362306D01*
X80424800Y-93267068D02*
X81710514Y-94124210D01*
X80472419Y-93028972D02*
X80472419Y-92409925D01*
X80472419Y-92409925D02*
X80853371Y-92743258D01*
X80853371Y-92743258D02*
X80853371Y-92600401D01*
X80853371Y-92600401D02*
X80900990Y-92505163D01*
X80900990Y-92505163D02*
X80948609Y-92457544D01*
X80948609Y-92457544D02*
X81043847Y-92409925D01*
X81043847Y-92409925D02*
X81281942Y-92409925D01*
X81281942Y-92409925D02*
X81377180Y-92457544D01*
X81377180Y-92457544D02*
X81424800Y-92505163D01*
X81424800Y-92505163D02*
X81472419Y-92600401D01*
X81472419Y-92600401D02*
X81472419Y-92886115D01*
X81472419Y-92886115D02*
X81424800Y-92981353D01*
X81424800Y-92981353D02*
X81377180Y-93028972D01*
X81377180Y-91981353D02*
X81424800Y-91933734D01*
X81424800Y-91933734D02*
X81472419Y-91981353D01*
X81472419Y-91981353D02*
X81424800Y-92028972D01*
X81424800Y-92028972D02*
X81377180Y-91981353D01*
X81377180Y-91981353D02*
X81472419Y-91981353D01*
X80472419Y-91600401D02*
X80472419Y-90981354D01*
X80472419Y-90981354D02*
X80853371Y-91314687D01*
X80853371Y-91314687D02*
X80853371Y-91171830D01*
X80853371Y-91171830D02*
X80900990Y-91076592D01*
X80900990Y-91076592D02*
X80948609Y-91028973D01*
X80948609Y-91028973D02*
X81043847Y-90981354D01*
X81043847Y-90981354D02*
X81281942Y-90981354D01*
X81281942Y-90981354D02*
X81377180Y-91028973D01*
X81377180Y-91028973D02*
X81424800Y-91076592D01*
X81424800Y-91076592D02*
X81472419Y-91171830D01*
X81472419Y-91171830D02*
X81472419Y-91457544D01*
X81472419Y-91457544D02*
X81424800Y-91552782D01*
X81424800Y-91552782D02*
X81377180Y-91600401D01*
X80472419Y-90695639D02*
X81472419Y-90362306D01*
X81472419Y-90362306D02*
X80472419Y-90028973D01*
X86472419Y-102962306D02*
X86472419Y-103533734D01*
X86472419Y-103248020D02*
X85472419Y-103248020D01*
X85472419Y-103248020D02*
X85615276Y-103343258D01*
X85615276Y-103343258D02*
X85710514Y-103438496D01*
X85710514Y-103438496D02*
X85758133Y-103533734D01*
X85472419Y-102105163D02*
X85472419Y-102295639D01*
X85472419Y-102295639D02*
X85520038Y-102390877D01*
X85520038Y-102390877D02*
X85567657Y-102438496D01*
X85567657Y-102438496D02*
X85710514Y-102533734D01*
X85710514Y-102533734D02*
X85900990Y-102581353D01*
X85900990Y-102581353D02*
X86281942Y-102581353D01*
X86281942Y-102581353D02*
X86377180Y-102533734D01*
X86377180Y-102533734D02*
X86424800Y-102486115D01*
X86424800Y-102486115D02*
X86472419Y-102390877D01*
X86472419Y-102390877D02*
X86472419Y-102200401D01*
X86472419Y-102200401D02*
X86424800Y-102105163D01*
X86424800Y-102105163D02*
X86377180Y-102057544D01*
X86377180Y-102057544D02*
X86281942Y-102009925D01*
X86281942Y-102009925D02*
X86043847Y-102009925D01*
X86043847Y-102009925D02*
X85948609Y-102057544D01*
X85948609Y-102057544D02*
X85900990Y-102105163D01*
X85900990Y-102105163D02*
X85853371Y-102200401D01*
X85853371Y-102200401D02*
X85853371Y-102390877D01*
X85853371Y-102390877D02*
X85900990Y-102486115D01*
X85900990Y-102486115D02*
X85948609Y-102533734D01*
X85948609Y-102533734D02*
X86043847Y-102581353D01*
X85424800Y-100867068D02*
X86710514Y-101724210D01*
X86472419Y-100009925D02*
X86472419Y-100581353D01*
X86472419Y-100295639D02*
X85472419Y-100295639D01*
X85472419Y-100295639D02*
X85615276Y-100390877D01*
X85615276Y-100390877D02*
X85710514Y-100486115D01*
X85710514Y-100486115D02*
X85758133Y-100581353D01*
X85472419Y-99676591D02*
X85472419Y-99009925D01*
X85472419Y-99009925D02*
X86472419Y-99438496D01*
X93405752Y-94457544D02*
X94072419Y-94457544D01*
X93024800Y-94695639D02*
X93739085Y-94933734D01*
X93739085Y-94933734D02*
X93739085Y-94314687D01*
X93024800Y-93219449D02*
X94310514Y-94076591D01*
X93072419Y-92409925D02*
X93072419Y-92886115D01*
X93072419Y-92886115D02*
X93548609Y-92933734D01*
X93548609Y-92933734D02*
X93500990Y-92886115D01*
X93500990Y-92886115D02*
X93453371Y-92790877D01*
X93453371Y-92790877D02*
X93453371Y-92552782D01*
X93453371Y-92552782D02*
X93500990Y-92457544D01*
X93500990Y-92457544D02*
X93548609Y-92409925D01*
X93548609Y-92409925D02*
X93643847Y-92362306D01*
X93643847Y-92362306D02*
X93881942Y-92362306D01*
X93881942Y-92362306D02*
X93977180Y-92409925D01*
X93977180Y-92409925D02*
X94024800Y-92457544D01*
X94024800Y-92457544D02*
X94072419Y-92552782D01*
X94072419Y-92552782D02*
X94072419Y-92790877D01*
X94072419Y-92790877D02*
X94024800Y-92886115D01*
X94024800Y-92886115D02*
X93977180Y-92933734D01*
X89072419Y-102962306D02*
X89072419Y-103533734D01*
X89072419Y-103248020D02*
X88072419Y-103248020D01*
X88072419Y-103248020D02*
X88215276Y-103343258D01*
X88215276Y-103343258D02*
X88310514Y-103438496D01*
X88310514Y-103438496D02*
X88358133Y-103533734D01*
X88500990Y-102390877D02*
X88453371Y-102486115D01*
X88453371Y-102486115D02*
X88405752Y-102533734D01*
X88405752Y-102533734D02*
X88310514Y-102581353D01*
X88310514Y-102581353D02*
X88262895Y-102581353D01*
X88262895Y-102581353D02*
X88167657Y-102533734D01*
X88167657Y-102533734D02*
X88120038Y-102486115D01*
X88120038Y-102486115D02*
X88072419Y-102390877D01*
X88072419Y-102390877D02*
X88072419Y-102200401D01*
X88072419Y-102200401D02*
X88120038Y-102105163D01*
X88120038Y-102105163D02*
X88167657Y-102057544D01*
X88167657Y-102057544D02*
X88262895Y-102009925D01*
X88262895Y-102009925D02*
X88310514Y-102009925D01*
X88310514Y-102009925D02*
X88405752Y-102057544D01*
X88405752Y-102057544D02*
X88453371Y-102105163D01*
X88453371Y-102105163D02*
X88500990Y-102200401D01*
X88500990Y-102200401D02*
X88500990Y-102390877D01*
X88500990Y-102390877D02*
X88548609Y-102486115D01*
X88548609Y-102486115D02*
X88596228Y-102533734D01*
X88596228Y-102533734D02*
X88691466Y-102581353D01*
X88691466Y-102581353D02*
X88881942Y-102581353D01*
X88881942Y-102581353D02*
X88977180Y-102533734D01*
X88977180Y-102533734D02*
X89024800Y-102486115D01*
X89024800Y-102486115D02*
X89072419Y-102390877D01*
X89072419Y-102390877D02*
X89072419Y-102200401D01*
X89072419Y-102200401D02*
X89024800Y-102105163D01*
X89024800Y-102105163D02*
X88977180Y-102057544D01*
X88977180Y-102057544D02*
X88881942Y-102009925D01*
X88881942Y-102009925D02*
X88691466Y-102009925D01*
X88691466Y-102009925D02*
X88596228Y-102057544D01*
X88596228Y-102057544D02*
X88548609Y-102105163D01*
X88548609Y-102105163D02*
X88500990Y-102200401D01*
X88024800Y-100867068D02*
X89310514Y-101724210D01*
X88167657Y-100581353D02*
X88120038Y-100533734D01*
X88120038Y-100533734D02*
X88072419Y-100438496D01*
X88072419Y-100438496D02*
X88072419Y-100200401D01*
X88072419Y-100200401D02*
X88120038Y-100105163D01*
X88120038Y-100105163D02*
X88167657Y-100057544D01*
X88167657Y-100057544D02*
X88262895Y-100009925D01*
X88262895Y-100009925D02*
X88358133Y-100009925D01*
X88358133Y-100009925D02*
X88500990Y-100057544D01*
X88500990Y-100057544D02*
X89072419Y-100628972D01*
X89072419Y-100628972D02*
X89072419Y-100009925D01*
X89072419Y-99057544D02*
X89072419Y-99628972D01*
X89072419Y-99343258D02*
X88072419Y-99343258D01*
X88072419Y-99343258D02*
X88215276Y-99438496D01*
X88215276Y-99438496D02*
X88310514Y-99533734D01*
X88310514Y-99533734D02*
X88358133Y-99628972D01*
X95672419Y-103581353D02*
X95672419Y-102962306D01*
X95672419Y-102962306D02*
X96053371Y-103295639D01*
X96053371Y-103295639D02*
X96053371Y-103152782D01*
X96053371Y-103152782D02*
X96100990Y-103057544D01*
X96100990Y-103057544D02*
X96148609Y-103009925D01*
X96148609Y-103009925D02*
X96243847Y-102962306D01*
X96243847Y-102962306D02*
X96481942Y-102962306D01*
X96481942Y-102962306D02*
X96577180Y-103009925D01*
X96577180Y-103009925D02*
X96624800Y-103057544D01*
X96624800Y-103057544D02*
X96672419Y-103152782D01*
X96672419Y-103152782D02*
X96672419Y-103438496D01*
X96672419Y-103438496D02*
X96624800Y-103533734D01*
X96624800Y-103533734D02*
X96577180Y-103581353D01*
X95672419Y-102628972D02*
X95672419Y-101962306D01*
X95672419Y-101962306D02*
X96672419Y-102390877D01*
X95624800Y-100867068D02*
X96910514Y-101724210D01*
X95672419Y-100628972D02*
X95672419Y-100009925D01*
X95672419Y-100009925D02*
X96053371Y-100343258D01*
X96053371Y-100343258D02*
X96053371Y-100200401D01*
X96053371Y-100200401D02*
X96100990Y-100105163D01*
X96100990Y-100105163D02*
X96148609Y-100057544D01*
X96148609Y-100057544D02*
X96243847Y-100009925D01*
X96243847Y-100009925D02*
X96481942Y-100009925D01*
X96481942Y-100009925D02*
X96577180Y-100057544D01*
X96577180Y-100057544D02*
X96624800Y-100105163D01*
X96624800Y-100105163D02*
X96672419Y-100200401D01*
X96672419Y-100200401D02*
X96672419Y-100486115D01*
X96672419Y-100486115D02*
X96624800Y-100581353D01*
X96624800Y-100581353D02*
X96577180Y-100628972D01*
X96100990Y-99438496D02*
X96053371Y-99533734D01*
X96053371Y-99533734D02*
X96005752Y-99581353D01*
X96005752Y-99581353D02*
X95910514Y-99628972D01*
X95910514Y-99628972D02*
X95862895Y-99628972D01*
X95862895Y-99628972D02*
X95767657Y-99581353D01*
X95767657Y-99581353D02*
X95720038Y-99533734D01*
X95720038Y-99533734D02*
X95672419Y-99438496D01*
X95672419Y-99438496D02*
X95672419Y-99248020D01*
X95672419Y-99248020D02*
X95720038Y-99152782D01*
X95720038Y-99152782D02*
X95767657Y-99105163D01*
X95767657Y-99105163D02*
X95862895Y-99057544D01*
X95862895Y-99057544D02*
X95910514Y-99057544D01*
X95910514Y-99057544D02*
X96005752Y-99105163D01*
X96005752Y-99105163D02*
X96053371Y-99152782D01*
X96053371Y-99152782D02*
X96100990Y-99248020D01*
X96100990Y-99248020D02*
X96100990Y-99438496D01*
X96100990Y-99438496D02*
X96148609Y-99533734D01*
X96148609Y-99533734D02*
X96196228Y-99581353D01*
X96196228Y-99581353D02*
X96291466Y-99628972D01*
X96291466Y-99628972D02*
X96481942Y-99628972D01*
X96481942Y-99628972D02*
X96577180Y-99581353D01*
X96577180Y-99581353D02*
X96624800Y-99533734D01*
X96624800Y-99533734D02*
X96672419Y-99438496D01*
X96672419Y-99438496D02*
X96672419Y-99248020D01*
X96672419Y-99248020D02*
X96624800Y-99152782D01*
X96624800Y-99152782D02*
X96577180Y-99105163D01*
X96577180Y-99105163D02*
X96481942Y-99057544D01*
X96481942Y-99057544D02*
X96291466Y-99057544D01*
X96291466Y-99057544D02*
X96196228Y-99105163D01*
X96196228Y-99105163D02*
X96148609Y-99152782D01*
X96148609Y-99152782D02*
X96100990Y-99248020D01*
X83120038Y-103762306D02*
X83072419Y-103857544D01*
X83072419Y-103857544D02*
X83072419Y-104000401D01*
X83072419Y-104000401D02*
X83120038Y-104143258D01*
X83120038Y-104143258D02*
X83215276Y-104238496D01*
X83215276Y-104238496D02*
X83310514Y-104286115D01*
X83310514Y-104286115D02*
X83500990Y-104333734D01*
X83500990Y-104333734D02*
X83643847Y-104333734D01*
X83643847Y-104333734D02*
X83834323Y-104286115D01*
X83834323Y-104286115D02*
X83929561Y-104238496D01*
X83929561Y-104238496D02*
X84024800Y-104143258D01*
X84024800Y-104143258D02*
X84072419Y-104000401D01*
X84072419Y-104000401D02*
X84072419Y-103905163D01*
X84072419Y-103905163D02*
X84024800Y-103762306D01*
X84024800Y-103762306D02*
X83977180Y-103714687D01*
X83977180Y-103714687D02*
X83643847Y-103714687D01*
X83643847Y-103714687D02*
X83643847Y-103905163D01*
X84072419Y-103286115D02*
X83072419Y-103286115D01*
X83072419Y-103286115D02*
X84072419Y-102714687D01*
X84072419Y-102714687D02*
X83072419Y-102714687D01*
X84072419Y-102238496D02*
X83072419Y-102238496D01*
X83072419Y-102238496D02*
X83072419Y-102000401D01*
X83072419Y-102000401D02*
X83120038Y-101857544D01*
X83120038Y-101857544D02*
X83215276Y-101762306D01*
X83215276Y-101762306D02*
X83310514Y-101714687D01*
X83310514Y-101714687D02*
X83500990Y-101667068D01*
X83500990Y-101667068D02*
X83643847Y-101667068D01*
X83643847Y-101667068D02*
X83834323Y-101714687D01*
X83834323Y-101714687D02*
X83929561Y-101762306D01*
X83929561Y-101762306D02*
X84024800Y-101857544D01*
X84024800Y-101857544D02*
X84072419Y-102000401D01*
X84072419Y-102000401D02*
X84072419Y-102238496D01*
X83024800Y-100524211D02*
X84310514Y-101381353D01*
X83120038Y-99667068D02*
X83072419Y-99762306D01*
X83072419Y-99762306D02*
X83072419Y-99905163D01*
X83072419Y-99905163D02*
X83120038Y-100048020D01*
X83120038Y-100048020D02*
X83215276Y-100143258D01*
X83215276Y-100143258D02*
X83310514Y-100190877D01*
X83310514Y-100190877D02*
X83500990Y-100238496D01*
X83500990Y-100238496D02*
X83643847Y-100238496D01*
X83643847Y-100238496D02*
X83834323Y-100190877D01*
X83834323Y-100190877D02*
X83929561Y-100143258D01*
X83929561Y-100143258D02*
X84024800Y-100048020D01*
X84024800Y-100048020D02*
X84072419Y-99905163D01*
X84072419Y-99905163D02*
X84072419Y-99809925D01*
X84072419Y-99809925D02*
X84024800Y-99667068D01*
X84024800Y-99667068D02*
X83977180Y-99619449D01*
X83977180Y-99619449D02*
X83643847Y-99619449D01*
X83643847Y-99619449D02*
X83643847Y-99809925D01*
X84072419Y-99190877D02*
X83072419Y-99190877D01*
X83072419Y-99190877D02*
X84072419Y-98619449D01*
X84072419Y-98619449D02*
X83072419Y-98619449D01*
X84072419Y-98143258D02*
X83072419Y-98143258D01*
X83072419Y-98143258D02*
X83072419Y-97905163D01*
X83072419Y-97905163D02*
X83120038Y-97762306D01*
X83120038Y-97762306D02*
X83215276Y-97667068D01*
X83215276Y-97667068D02*
X83310514Y-97619449D01*
X83310514Y-97619449D02*
X83500990Y-97571830D01*
X83500990Y-97571830D02*
X83643847Y-97571830D01*
X83643847Y-97571830D02*
X83834323Y-97619449D01*
X83834323Y-97619449D02*
X83929561Y-97667068D01*
X83929561Y-97667068D02*
X84024800Y-97762306D01*
X84024800Y-97762306D02*
X84072419Y-97905163D01*
X84072419Y-97905163D02*
X84072419Y-98143258D01*
X90672419Y-103781353D02*
X90672419Y-103162306D01*
X90672419Y-103162306D02*
X91053371Y-103495639D01*
X91053371Y-103495639D02*
X91053371Y-103352782D01*
X91053371Y-103352782D02*
X91100990Y-103257544D01*
X91100990Y-103257544D02*
X91148609Y-103209925D01*
X91148609Y-103209925D02*
X91243847Y-103162306D01*
X91243847Y-103162306D02*
X91481942Y-103162306D01*
X91481942Y-103162306D02*
X91577180Y-103209925D01*
X91577180Y-103209925D02*
X91624800Y-103257544D01*
X91624800Y-103257544D02*
X91672419Y-103352782D01*
X91672419Y-103352782D02*
X91672419Y-103638496D01*
X91672419Y-103638496D02*
X91624800Y-103733734D01*
X91624800Y-103733734D02*
X91577180Y-103781353D01*
X90672419Y-102828972D02*
X90672419Y-102209925D01*
X90672419Y-102209925D02*
X91053371Y-102543258D01*
X91053371Y-102543258D02*
X91053371Y-102400401D01*
X91053371Y-102400401D02*
X91100990Y-102305163D01*
X91100990Y-102305163D02*
X91148609Y-102257544D01*
X91148609Y-102257544D02*
X91243847Y-102209925D01*
X91243847Y-102209925D02*
X91481942Y-102209925D01*
X91481942Y-102209925D02*
X91577180Y-102257544D01*
X91577180Y-102257544D02*
X91624800Y-102305163D01*
X91624800Y-102305163D02*
X91672419Y-102400401D01*
X91672419Y-102400401D02*
X91672419Y-102686115D01*
X91672419Y-102686115D02*
X91624800Y-102781353D01*
X91624800Y-102781353D02*
X91577180Y-102828972D01*
X90624800Y-101067068D02*
X91910514Y-101924210D01*
X90672419Y-100828972D02*
X90672419Y-100209925D01*
X90672419Y-100209925D02*
X91053371Y-100543258D01*
X91053371Y-100543258D02*
X91053371Y-100400401D01*
X91053371Y-100400401D02*
X91100990Y-100305163D01*
X91100990Y-100305163D02*
X91148609Y-100257544D01*
X91148609Y-100257544D02*
X91243847Y-100209925D01*
X91243847Y-100209925D02*
X91481942Y-100209925D01*
X91481942Y-100209925D02*
X91577180Y-100257544D01*
X91577180Y-100257544D02*
X91624800Y-100305163D01*
X91624800Y-100305163D02*
X91672419Y-100400401D01*
X91672419Y-100400401D02*
X91672419Y-100686115D01*
X91672419Y-100686115D02*
X91624800Y-100781353D01*
X91624800Y-100781353D02*
X91577180Y-100828972D01*
X91005752Y-99352782D02*
X91672419Y-99352782D01*
X90624800Y-99590877D02*
X91339085Y-99828972D01*
X91339085Y-99828972D02*
X91339085Y-99209925D01*
X93072419Y-103781353D02*
X93072419Y-103162306D01*
X93072419Y-103162306D02*
X93453371Y-103495639D01*
X93453371Y-103495639D02*
X93453371Y-103352782D01*
X93453371Y-103352782D02*
X93500990Y-103257544D01*
X93500990Y-103257544D02*
X93548609Y-103209925D01*
X93548609Y-103209925D02*
X93643847Y-103162306D01*
X93643847Y-103162306D02*
X93881942Y-103162306D01*
X93881942Y-103162306D02*
X93977180Y-103209925D01*
X93977180Y-103209925D02*
X94024800Y-103257544D01*
X94024800Y-103257544D02*
X94072419Y-103352782D01*
X94072419Y-103352782D02*
X94072419Y-103638496D01*
X94072419Y-103638496D02*
X94024800Y-103733734D01*
X94024800Y-103733734D02*
X93977180Y-103781353D01*
X93072419Y-102257544D02*
X93072419Y-102733734D01*
X93072419Y-102733734D02*
X93548609Y-102781353D01*
X93548609Y-102781353D02*
X93500990Y-102733734D01*
X93500990Y-102733734D02*
X93453371Y-102638496D01*
X93453371Y-102638496D02*
X93453371Y-102400401D01*
X93453371Y-102400401D02*
X93500990Y-102305163D01*
X93500990Y-102305163D02*
X93548609Y-102257544D01*
X93548609Y-102257544D02*
X93643847Y-102209925D01*
X93643847Y-102209925D02*
X93881942Y-102209925D01*
X93881942Y-102209925D02*
X93977180Y-102257544D01*
X93977180Y-102257544D02*
X94024800Y-102305163D01*
X94024800Y-102305163D02*
X94072419Y-102400401D01*
X94072419Y-102400401D02*
X94072419Y-102638496D01*
X94072419Y-102638496D02*
X94024800Y-102733734D01*
X94024800Y-102733734D02*
X93977180Y-102781353D01*
X93024800Y-101067068D02*
X94310514Y-101924210D01*
X93072419Y-100828972D02*
X93072419Y-100209925D01*
X93072419Y-100209925D02*
X93453371Y-100543258D01*
X93453371Y-100543258D02*
X93453371Y-100400401D01*
X93453371Y-100400401D02*
X93500990Y-100305163D01*
X93500990Y-100305163D02*
X93548609Y-100257544D01*
X93548609Y-100257544D02*
X93643847Y-100209925D01*
X93643847Y-100209925D02*
X93881942Y-100209925D01*
X93881942Y-100209925D02*
X93977180Y-100257544D01*
X93977180Y-100257544D02*
X94024800Y-100305163D01*
X94024800Y-100305163D02*
X94072419Y-100400401D01*
X94072419Y-100400401D02*
X94072419Y-100686115D01*
X94072419Y-100686115D02*
X94024800Y-100781353D01*
X94024800Y-100781353D02*
X93977180Y-100828972D01*
X93072419Y-99352782D02*
X93072419Y-99543258D01*
X93072419Y-99543258D02*
X93120038Y-99638496D01*
X93120038Y-99638496D02*
X93167657Y-99686115D01*
X93167657Y-99686115D02*
X93310514Y-99781353D01*
X93310514Y-99781353D02*
X93500990Y-99828972D01*
X93500990Y-99828972D02*
X93881942Y-99828972D01*
X93881942Y-99828972D02*
X93977180Y-99781353D01*
X93977180Y-99781353D02*
X94024800Y-99733734D01*
X94024800Y-99733734D02*
X94072419Y-99638496D01*
X94072419Y-99638496D02*
X94072419Y-99448020D01*
X94072419Y-99448020D02*
X94024800Y-99352782D01*
X94024800Y-99352782D02*
X93977180Y-99305163D01*
X93977180Y-99305163D02*
X93881942Y-99257544D01*
X93881942Y-99257544D02*
X93643847Y-99257544D01*
X93643847Y-99257544D02*
X93548609Y-99305163D01*
X93548609Y-99305163D02*
X93500990Y-99352782D01*
X93500990Y-99352782D02*
X93453371Y-99448020D01*
X93453371Y-99448020D02*
X93453371Y-99638496D01*
X93453371Y-99638496D02*
X93500990Y-99733734D01*
X93500990Y-99733734D02*
X93548609Y-99781353D01*
X93548609Y-99781353D02*
X93643847Y-99828972D01*
X98272419Y-103581353D02*
X98272419Y-102962306D01*
X98272419Y-102962306D02*
X98653371Y-103295639D01*
X98653371Y-103295639D02*
X98653371Y-103152782D01*
X98653371Y-103152782D02*
X98700990Y-103057544D01*
X98700990Y-103057544D02*
X98748609Y-103009925D01*
X98748609Y-103009925D02*
X98843847Y-102962306D01*
X98843847Y-102962306D02*
X99081942Y-102962306D01*
X99081942Y-102962306D02*
X99177180Y-103009925D01*
X99177180Y-103009925D02*
X99224800Y-103057544D01*
X99224800Y-103057544D02*
X99272419Y-103152782D01*
X99272419Y-103152782D02*
X99272419Y-103438496D01*
X99272419Y-103438496D02*
X99224800Y-103533734D01*
X99224800Y-103533734D02*
X99177180Y-103581353D01*
X99272419Y-102486115D02*
X99272419Y-102295639D01*
X99272419Y-102295639D02*
X99224800Y-102200401D01*
X99224800Y-102200401D02*
X99177180Y-102152782D01*
X99177180Y-102152782D02*
X99034323Y-102057544D01*
X99034323Y-102057544D02*
X98843847Y-102009925D01*
X98843847Y-102009925D02*
X98462895Y-102009925D01*
X98462895Y-102009925D02*
X98367657Y-102057544D01*
X98367657Y-102057544D02*
X98320038Y-102105163D01*
X98320038Y-102105163D02*
X98272419Y-102200401D01*
X98272419Y-102200401D02*
X98272419Y-102390877D01*
X98272419Y-102390877D02*
X98320038Y-102486115D01*
X98320038Y-102486115D02*
X98367657Y-102533734D01*
X98367657Y-102533734D02*
X98462895Y-102581353D01*
X98462895Y-102581353D02*
X98700990Y-102581353D01*
X98700990Y-102581353D02*
X98796228Y-102533734D01*
X98796228Y-102533734D02*
X98843847Y-102486115D01*
X98843847Y-102486115D02*
X98891466Y-102390877D01*
X98891466Y-102390877D02*
X98891466Y-102200401D01*
X98891466Y-102200401D02*
X98843847Y-102105163D01*
X98843847Y-102105163D02*
X98796228Y-102057544D01*
X98796228Y-102057544D02*
X98700990Y-102009925D01*
X98224800Y-100867068D02*
X99510514Y-101724210D01*
X98605752Y-100105163D02*
X99272419Y-100105163D01*
X98224800Y-100343258D02*
X98939085Y-100581353D01*
X98939085Y-100581353D02*
X98939085Y-99962306D01*
X98272419Y-99390877D02*
X98272419Y-99295639D01*
X98272419Y-99295639D02*
X98320038Y-99200401D01*
X98320038Y-99200401D02*
X98367657Y-99152782D01*
X98367657Y-99152782D02*
X98462895Y-99105163D01*
X98462895Y-99105163D02*
X98653371Y-99057544D01*
X98653371Y-99057544D02*
X98891466Y-99057544D01*
X98891466Y-99057544D02*
X99081942Y-99105163D01*
X99081942Y-99105163D02*
X99177180Y-99152782D01*
X99177180Y-99152782D02*
X99224800Y-99200401D01*
X99224800Y-99200401D02*
X99272419Y-99295639D01*
X99272419Y-99295639D02*
X99272419Y-99390877D01*
X99272419Y-99390877D02*
X99224800Y-99486115D01*
X99224800Y-99486115D02*
X99177180Y-99533734D01*
X99177180Y-99533734D02*
X99081942Y-99581353D01*
X99081942Y-99581353D02*
X98891466Y-99628972D01*
X98891466Y-99628972D02*
X98653371Y-99628972D01*
X98653371Y-99628972D02*
X98462895Y-99581353D01*
X98462895Y-99581353D02*
X98367657Y-99533734D01*
X98367657Y-99533734D02*
X98320038Y-99486115D01*
X98320038Y-99486115D02*
X98272419Y-99390877D01*
X80472419Y-104028972D02*
X81472419Y-103695639D01*
X81472419Y-103695639D02*
X80472419Y-103362306D01*
X81424800Y-103076591D02*
X81472419Y-102933734D01*
X81472419Y-102933734D02*
X81472419Y-102695639D01*
X81472419Y-102695639D02*
X81424800Y-102600401D01*
X81424800Y-102600401D02*
X81377180Y-102552782D01*
X81377180Y-102552782D02*
X81281942Y-102505163D01*
X81281942Y-102505163D02*
X81186704Y-102505163D01*
X81186704Y-102505163D02*
X81091466Y-102552782D01*
X81091466Y-102552782D02*
X81043847Y-102600401D01*
X81043847Y-102600401D02*
X80996228Y-102695639D01*
X80996228Y-102695639D02*
X80948609Y-102886115D01*
X80948609Y-102886115D02*
X80900990Y-102981353D01*
X80900990Y-102981353D02*
X80853371Y-103028972D01*
X80853371Y-103028972D02*
X80758133Y-103076591D01*
X80758133Y-103076591D02*
X80662895Y-103076591D01*
X80662895Y-103076591D02*
X80567657Y-103028972D01*
X80567657Y-103028972D02*
X80520038Y-102981353D01*
X80520038Y-102981353D02*
X80472419Y-102886115D01*
X80472419Y-102886115D02*
X80472419Y-102648020D01*
X80472419Y-102648020D02*
X80520038Y-102505163D01*
X80996228Y-101886115D02*
X81472419Y-101886115D01*
X80472419Y-102219448D02*
X80996228Y-101886115D01*
X80996228Y-101886115D02*
X80472419Y-101552782D01*
X81424800Y-101267067D02*
X81472419Y-101124210D01*
X81472419Y-101124210D02*
X81472419Y-100886115D01*
X81472419Y-100886115D02*
X81424800Y-100790877D01*
X81424800Y-100790877D02*
X81377180Y-100743258D01*
X81377180Y-100743258D02*
X81281942Y-100695639D01*
X81281942Y-100695639D02*
X81186704Y-100695639D01*
X81186704Y-100695639D02*
X81091466Y-100743258D01*
X81091466Y-100743258D02*
X81043847Y-100790877D01*
X81043847Y-100790877D02*
X80996228Y-100886115D01*
X80996228Y-100886115D02*
X80948609Y-101076591D01*
X80948609Y-101076591D02*
X80900990Y-101171829D01*
X80900990Y-101171829D02*
X80853371Y-101219448D01*
X80853371Y-101219448D02*
X80758133Y-101267067D01*
X80758133Y-101267067D02*
X80662895Y-101267067D01*
X80662895Y-101267067D02*
X80567657Y-101219448D01*
X80567657Y-101219448D02*
X80520038Y-101171829D01*
X80520038Y-101171829D02*
X80472419Y-101076591D01*
X80472419Y-101076591D02*
X80472419Y-100838496D01*
X80472419Y-100838496D02*
X80520038Y-100695639D01*
X80424800Y-99552782D02*
X81710514Y-100409924D01*
X81472419Y-98695639D02*
X81472419Y-99267067D01*
X81472419Y-98981353D02*
X80472419Y-98981353D01*
X80472419Y-98981353D02*
X80615276Y-99076591D01*
X80615276Y-99076591D02*
X80710514Y-99171829D01*
X80710514Y-99171829D02*
X80758133Y-99267067D01*
X80472419Y-97790877D02*
X80472419Y-98267067D01*
X80472419Y-98267067D02*
X80948609Y-98314686D01*
X80948609Y-98314686D02*
X80900990Y-98267067D01*
X80900990Y-98267067D02*
X80853371Y-98171829D01*
X80853371Y-98171829D02*
X80853371Y-97933734D01*
X80853371Y-97933734D02*
X80900990Y-97838496D01*
X80900990Y-97838496D02*
X80948609Y-97790877D01*
X80948609Y-97790877D02*
X81043847Y-97743258D01*
X81043847Y-97743258D02*
X81281942Y-97743258D01*
X81281942Y-97743258D02*
X81377180Y-97790877D01*
X81377180Y-97790877D02*
X81424800Y-97838496D01*
X81424800Y-97838496D02*
X81472419Y-97933734D01*
X81472419Y-97933734D02*
X81472419Y-98171829D01*
X81472419Y-98171829D02*
X81424800Y-98267067D01*
X81424800Y-98267067D02*
X81377180Y-98314686D01*
X95767657Y-94733734D02*
X95720038Y-94686115D01*
X95720038Y-94686115D02*
X95672419Y-94590877D01*
X95672419Y-94590877D02*
X95672419Y-94352782D01*
X95672419Y-94352782D02*
X95720038Y-94257544D01*
X95720038Y-94257544D02*
X95767657Y-94209925D01*
X95767657Y-94209925D02*
X95862895Y-94162306D01*
X95862895Y-94162306D02*
X95958133Y-94162306D01*
X95958133Y-94162306D02*
X96100990Y-94209925D01*
X96100990Y-94209925D02*
X96672419Y-94781353D01*
X96672419Y-94781353D02*
X96672419Y-94162306D01*
X95624800Y-93019449D02*
X96910514Y-93876591D01*
X95672419Y-92781353D02*
X95672419Y-92162306D01*
X95672419Y-92162306D02*
X96053371Y-92495639D01*
X96053371Y-92495639D02*
X96053371Y-92352782D01*
X96053371Y-92352782D02*
X96100990Y-92257544D01*
X96100990Y-92257544D02*
X96148609Y-92209925D01*
X96148609Y-92209925D02*
X96243847Y-92162306D01*
X96243847Y-92162306D02*
X96481942Y-92162306D01*
X96481942Y-92162306D02*
X96577180Y-92209925D01*
X96577180Y-92209925D02*
X96624800Y-92257544D01*
X96624800Y-92257544D02*
X96672419Y-92352782D01*
X96672419Y-92352782D02*
X96672419Y-92638496D01*
X96672419Y-92638496D02*
X96624800Y-92733734D01*
X96624800Y-92733734D02*
X96577180Y-92781353D01*
X86672419Y-95362306D02*
X86672419Y-95933734D01*
X86672419Y-95648020D02*
X85672419Y-95648020D01*
X85672419Y-95648020D02*
X85815276Y-95743258D01*
X85815276Y-95743258D02*
X85910514Y-95838496D01*
X85910514Y-95838496D02*
X85958133Y-95933734D01*
X85672419Y-94743258D02*
X85672419Y-94648020D01*
X85672419Y-94648020D02*
X85720038Y-94552782D01*
X85720038Y-94552782D02*
X85767657Y-94505163D01*
X85767657Y-94505163D02*
X85862895Y-94457544D01*
X85862895Y-94457544D02*
X86053371Y-94409925D01*
X86053371Y-94409925D02*
X86291466Y-94409925D01*
X86291466Y-94409925D02*
X86481942Y-94457544D01*
X86481942Y-94457544D02*
X86577180Y-94505163D01*
X86577180Y-94505163D02*
X86624800Y-94552782D01*
X86624800Y-94552782D02*
X86672419Y-94648020D01*
X86672419Y-94648020D02*
X86672419Y-94743258D01*
X86672419Y-94743258D02*
X86624800Y-94838496D01*
X86624800Y-94838496D02*
X86577180Y-94886115D01*
X86577180Y-94886115D02*
X86481942Y-94933734D01*
X86481942Y-94933734D02*
X86291466Y-94981353D01*
X86291466Y-94981353D02*
X86053371Y-94981353D01*
X86053371Y-94981353D02*
X85862895Y-94933734D01*
X85862895Y-94933734D02*
X85767657Y-94886115D01*
X85767657Y-94886115D02*
X85720038Y-94838496D01*
X85720038Y-94838496D02*
X85672419Y-94743258D01*
X85624800Y-93267068D02*
X86910514Y-94124210D01*
X86672419Y-92409925D02*
X86672419Y-92981353D01*
X86672419Y-92695639D02*
X85672419Y-92695639D01*
X85672419Y-92695639D02*
X85815276Y-92790877D01*
X85815276Y-92790877D02*
X85910514Y-92886115D01*
X85910514Y-92886115D02*
X85958133Y-92981353D01*
X86672419Y-91457544D02*
X86672419Y-92028972D01*
X86672419Y-91743258D02*
X85672419Y-91743258D01*
X85672419Y-91743258D02*
X85815276Y-91838496D01*
X85815276Y-91838496D02*
X85910514Y-91933734D01*
X85910514Y-91933734D02*
X85958133Y-92028972D01*
X88500990Y-94943258D02*
X88453371Y-95038496D01*
X88453371Y-95038496D02*
X88405752Y-95086115D01*
X88405752Y-95086115D02*
X88310514Y-95133734D01*
X88310514Y-95133734D02*
X88262895Y-95133734D01*
X88262895Y-95133734D02*
X88167657Y-95086115D01*
X88167657Y-95086115D02*
X88120038Y-95038496D01*
X88120038Y-95038496D02*
X88072419Y-94943258D01*
X88072419Y-94943258D02*
X88072419Y-94752782D01*
X88072419Y-94752782D02*
X88120038Y-94657544D01*
X88120038Y-94657544D02*
X88167657Y-94609925D01*
X88167657Y-94609925D02*
X88262895Y-94562306D01*
X88262895Y-94562306D02*
X88310514Y-94562306D01*
X88310514Y-94562306D02*
X88405752Y-94609925D01*
X88405752Y-94609925D02*
X88453371Y-94657544D01*
X88453371Y-94657544D02*
X88500990Y-94752782D01*
X88500990Y-94752782D02*
X88500990Y-94943258D01*
X88500990Y-94943258D02*
X88548609Y-95038496D01*
X88548609Y-95038496D02*
X88596228Y-95086115D01*
X88596228Y-95086115D02*
X88691466Y-95133734D01*
X88691466Y-95133734D02*
X88881942Y-95133734D01*
X88881942Y-95133734D02*
X88977180Y-95086115D01*
X88977180Y-95086115D02*
X89024800Y-95038496D01*
X89024800Y-95038496D02*
X89072419Y-94943258D01*
X89072419Y-94943258D02*
X89072419Y-94752782D01*
X89072419Y-94752782D02*
X89024800Y-94657544D01*
X89024800Y-94657544D02*
X88977180Y-94609925D01*
X88977180Y-94609925D02*
X88881942Y-94562306D01*
X88881942Y-94562306D02*
X88691466Y-94562306D01*
X88691466Y-94562306D02*
X88596228Y-94609925D01*
X88596228Y-94609925D02*
X88548609Y-94657544D01*
X88548609Y-94657544D02*
X88500990Y-94752782D01*
X88024800Y-93419449D02*
X89310514Y-94276591D01*
X89072419Y-93038496D02*
X89072419Y-92848020D01*
X89072419Y-92848020D02*
X89024800Y-92752782D01*
X89024800Y-92752782D02*
X88977180Y-92705163D01*
X88977180Y-92705163D02*
X88834323Y-92609925D01*
X88834323Y-92609925D02*
X88643847Y-92562306D01*
X88643847Y-92562306D02*
X88262895Y-92562306D01*
X88262895Y-92562306D02*
X88167657Y-92609925D01*
X88167657Y-92609925D02*
X88120038Y-92657544D01*
X88120038Y-92657544D02*
X88072419Y-92752782D01*
X88072419Y-92752782D02*
X88072419Y-92943258D01*
X88072419Y-92943258D02*
X88120038Y-93038496D01*
X88120038Y-93038496D02*
X88167657Y-93086115D01*
X88167657Y-93086115D02*
X88262895Y-93133734D01*
X88262895Y-93133734D02*
X88500990Y-93133734D01*
X88500990Y-93133734D02*
X88596228Y-93086115D01*
X88596228Y-93086115D02*
X88643847Y-93038496D01*
X88643847Y-93038496D02*
X88691466Y-92943258D01*
X88691466Y-92943258D02*
X88691466Y-92752782D01*
X88691466Y-92752782D02*
X88643847Y-92657544D01*
X88643847Y-92657544D02*
X88596228Y-92609925D01*
X88596228Y-92609925D02*
X88500990Y-92562306D01*
X99272419Y-94162306D02*
X99272419Y-94733734D01*
X99272419Y-94448020D02*
X98272419Y-94448020D01*
X98272419Y-94448020D02*
X98415276Y-94543258D01*
X98415276Y-94543258D02*
X98510514Y-94638496D01*
X98510514Y-94638496D02*
X98558133Y-94733734D01*
X98224800Y-93019449D02*
X99510514Y-93876591D01*
X98748609Y-92686115D02*
X98748609Y-92352782D01*
X99272419Y-92209925D02*
X99272419Y-92686115D01*
X99272419Y-92686115D02*
X98272419Y-92686115D01*
X98272419Y-92686115D02*
X98272419Y-92209925D01*
X99272419Y-91781353D02*
X98272419Y-91781353D01*
X98272419Y-91781353D02*
X99272419Y-91209925D01*
X99272419Y-91209925D02*
X98272419Y-91209925D01*
X57233333Y-95077419D02*
X56900000Y-94601228D01*
X56661905Y-95077419D02*
X56661905Y-94077419D01*
X56661905Y-94077419D02*
X57042857Y-94077419D01*
X57042857Y-94077419D02*
X57138095Y-94125038D01*
X57138095Y-94125038D02*
X57185714Y-94172657D01*
X57185714Y-94172657D02*
X57233333Y-94267895D01*
X57233333Y-94267895D02*
X57233333Y-94410752D01*
X57233333Y-94410752D02*
X57185714Y-94505990D01*
X57185714Y-94505990D02*
X57138095Y-94553609D01*
X57138095Y-94553609D02*
X57042857Y-94601228D01*
X57042857Y-94601228D02*
X56661905Y-94601228D01*
X58185714Y-95077419D02*
X57614286Y-95077419D01*
X57900000Y-95077419D02*
X57900000Y-94077419D01*
X57900000Y-94077419D02*
X57804762Y-94220276D01*
X57804762Y-94220276D02*
X57709524Y-94315514D01*
X57709524Y-94315514D02*
X57614286Y-94363133D01*
X107866666Y-99157419D02*
X107866666Y-99871704D01*
X107866666Y-99871704D02*
X107819047Y-100014561D01*
X107819047Y-100014561D02*
X107723809Y-100109800D01*
X107723809Y-100109800D02*
X107580952Y-100157419D01*
X107580952Y-100157419D02*
X107485714Y-100157419D01*
X108247619Y-99157419D02*
X108914285Y-99157419D01*
X108914285Y-99157419D02*
X108485714Y-100157419D01*
X92666666Y-57757419D02*
X92666666Y-58471704D01*
X92666666Y-58471704D02*
X92619047Y-58614561D01*
X92619047Y-58614561D02*
X92523809Y-58709800D01*
X92523809Y-58709800D02*
X92380952Y-58757419D01*
X92380952Y-58757419D02*
X92285714Y-58757419D01*
X93095238Y-57852657D02*
X93142857Y-57805038D01*
X93142857Y-57805038D02*
X93238095Y-57757419D01*
X93238095Y-57757419D02*
X93476190Y-57757419D01*
X93476190Y-57757419D02*
X93571428Y-57805038D01*
X93571428Y-57805038D02*
X93619047Y-57852657D01*
X93619047Y-57852657D02*
X93666666Y-57947895D01*
X93666666Y-57947895D02*
X93666666Y-58043133D01*
X93666666Y-58043133D02*
X93619047Y-58185990D01*
X93619047Y-58185990D02*
X93047619Y-58757419D01*
X93047619Y-58757419D02*
X93666666Y-58757419D01*
X51666667Y-92909800D02*
X51809524Y-92957419D01*
X51809524Y-92957419D02*
X52047619Y-92957419D01*
X52047619Y-92957419D02*
X52142857Y-92909800D01*
X52142857Y-92909800D02*
X52190476Y-92862180D01*
X52190476Y-92862180D02*
X52238095Y-92766942D01*
X52238095Y-92766942D02*
X52238095Y-92671704D01*
X52238095Y-92671704D02*
X52190476Y-92576466D01*
X52190476Y-92576466D02*
X52142857Y-92528847D01*
X52142857Y-92528847D02*
X52047619Y-92481228D01*
X52047619Y-92481228D02*
X51857143Y-92433609D01*
X51857143Y-92433609D02*
X51761905Y-92385990D01*
X51761905Y-92385990D02*
X51714286Y-92338371D01*
X51714286Y-92338371D02*
X51666667Y-92243133D01*
X51666667Y-92243133D02*
X51666667Y-92147895D01*
X51666667Y-92147895D02*
X51714286Y-92052657D01*
X51714286Y-92052657D02*
X51761905Y-92005038D01*
X51761905Y-92005038D02*
X51857143Y-91957419D01*
X51857143Y-91957419D02*
X52095238Y-91957419D01*
X52095238Y-91957419D02*
X52238095Y-92005038D01*
X52571429Y-91957419D02*
X52809524Y-92957419D01*
X52809524Y-92957419D02*
X53000000Y-92243133D01*
X53000000Y-92243133D02*
X53190476Y-92957419D01*
X53190476Y-92957419D02*
X53428572Y-91957419D01*
X54333333Y-92957419D02*
X53761905Y-92957419D01*
X54047619Y-92957419D02*
X54047619Y-91957419D01*
X54047619Y-91957419D02*
X53952381Y-92100276D01*
X53952381Y-92100276D02*
X53857143Y-92195514D01*
X53857143Y-92195514D02*
X53761905Y-92243133D01*
X107866666Y-91257419D02*
X107866666Y-91971704D01*
X107866666Y-91971704D02*
X107819047Y-92114561D01*
X107819047Y-92114561D02*
X107723809Y-92209800D01*
X107723809Y-92209800D02*
X107580952Y-92257419D01*
X107580952Y-92257419D02*
X107485714Y-92257419D01*
X108771428Y-91257419D02*
X108580952Y-91257419D01*
X108580952Y-91257419D02*
X108485714Y-91305038D01*
X108485714Y-91305038D02*
X108438095Y-91352657D01*
X108438095Y-91352657D02*
X108342857Y-91495514D01*
X108342857Y-91495514D02*
X108295238Y-91685990D01*
X108295238Y-91685990D02*
X108295238Y-92066942D01*
X108295238Y-92066942D02*
X108342857Y-92162180D01*
X108342857Y-92162180D02*
X108390476Y-92209800D01*
X108390476Y-92209800D02*
X108485714Y-92257419D01*
X108485714Y-92257419D02*
X108676190Y-92257419D01*
X108676190Y-92257419D02*
X108771428Y-92209800D01*
X108771428Y-92209800D02*
X108819047Y-92162180D01*
X108819047Y-92162180D02*
X108866666Y-92066942D01*
X108866666Y-92066942D02*
X108866666Y-91828847D01*
X108866666Y-91828847D02*
X108819047Y-91733609D01*
X108819047Y-91733609D02*
X108771428Y-91685990D01*
X108771428Y-91685990D02*
X108676190Y-91638371D01*
X108676190Y-91638371D02*
X108485714Y-91638371D01*
X108485714Y-91638371D02*
X108390476Y-91685990D01*
X108390476Y-91685990D02*
X108342857Y-91733609D01*
X108342857Y-91733609D02*
X108295238Y-91828847D01*
X72661905Y-76757419D02*
X72661905Y-75757419D01*
X72661905Y-75757419D02*
X72900000Y-75757419D01*
X72900000Y-75757419D02*
X73042857Y-75805038D01*
X73042857Y-75805038D02*
X73138095Y-75900276D01*
X73138095Y-75900276D02*
X73185714Y-75995514D01*
X73185714Y-75995514D02*
X73233333Y-76185990D01*
X73233333Y-76185990D02*
X73233333Y-76328847D01*
X73233333Y-76328847D02*
X73185714Y-76519323D01*
X73185714Y-76519323D02*
X73138095Y-76614561D01*
X73138095Y-76614561D02*
X73042857Y-76709800D01*
X73042857Y-76709800D02*
X72900000Y-76757419D01*
X72900000Y-76757419D02*
X72661905Y-76757419D01*
X74185714Y-76757419D02*
X73614286Y-76757419D01*
X73900000Y-76757419D02*
X73900000Y-75757419D01*
X73900000Y-75757419D02*
X73804762Y-75900276D01*
X73804762Y-75900276D02*
X73709524Y-75995514D01*
X73709524Y-75995514D02*
X73614286Y-76043133D01*
%TO.C,D3*%
X95899999Y-71300000D02*
X93299999Y-71300000D01*
X95899999Y-79000000D02*
X93299999Y-79000000D01*
X93299999Y-68600000D01*
X95899999Y-68600000D01*
X95899999Y-79000000D01*
%TO.C,J5*%
X109150000Y-80700000D02*
X114850000Y-80700000D01*
X109150000Y-87700000D02*
X109150000Y-80700000D01*
X114850000Y-80700000D02*
X114850000Y-82150000D01*
X114850000Y-85750000D02*
X114850000Y-87700000D01*
X114850000Y-87700000D02*
X109150000Y-87700000D01*
%TO.C,U2*%
X80250000Y-53300000D02*
X85320000Y-53300000D01*
X85320000Y-73290000D01*
X80250000Y-73290000D01*
X80250000Y-53300000D01*
X81530000Y-53140000D02*
X84070000Y-53140000D01*
X84070000Y-53775000D01*
X81530000Y-53775000D01*
X81530000Y-53140000D01*
%TO.C,J3*%
X70450000Y-59530000D02*
X76150000Y-59530000D01*
X70450000Y-61480000D02*
X70450000Y-59530000D01*
X70450000Y-66530000D02*
X70450000Y-65080000D01*
X76150000Y-59530000D02*
X76150000Y-66530000D01*
X76150000Y-66530000D02*
X70450000Y-66530000D01*
%TO.C,D2*%
X68400000Y-84100000D02*
X71000000Y-84100000D01*
X71000000Y-89100000D01*
X68400000Y-89100000D01*
X68400000Y-84100000D01*
%TO.C,U1*%
X71620000Y-101690000D02*
X79120000Y-101690000D01*
X79120000Y-92690000D01*
X71620000Y-92690000D01*
X71620000Y-101690000D01*
X71620000Y-109940000D02*
X106120000Y-109940000D01*
X106120000Y-84440000D01*
X71620000Y-84440000D01*
X71620000Y-109940000D01*
%TO.C,R1*%
X57500000Y-84500000D02*
X57500000Y-83720000D01*
X57500000Y-90500000D02*
X57500000Y-91320000D01*
X59000000Y-90500000D02*
X56000000Y-90500000D01*
X56000000Y-84500000D01*
X59000000Y-84500000D01*
X59000000Y-90500000D01*
%TO.C,J7*%
X109150000Y-95930000D02*
X114850000Y-95930000D01*
X109150000Y-102930000D02*
X109150000Y-95930000D01*
X114850000Y-95930000D02*
X114850000Y-97380000D01*
X114850000Y-100980000D02*
X114850000Y-102930000D01*
X114850000Y-102930000D02*
X109150000Y-102930000D01*
%TO.C,J2*%
X89950000Y-59800000D02*
X95650000Y-59800000D01*
X89950000Y-66800000D02*
X89950000Y-59800000D01*
X95650000Y-59800000D02*
X95650000Y-61250000D01*
X95650000Y-64850000D02*
X95650000Y-66800000D01*
X95650000Y-66800000D02*
X89950000Y-66800000D01*
%TO.C,SW1*%
D11*
X50968000Y-81888000D02*
X55032000Y-81888000D01*
X55032000Y-91032000D01*
X50968000Y-91032000D01*
X50968000Y-81888000D01*
D10*
%TO.C,J6*%
X109150000Y-88270000D02*
X114850000Y-88270000D01*
X109150000Y-95270000D02*
X109150000Y-88270000D01*
X114850000Y-88270000D02*
X114850000Y-89720000D01*
X114850000Y-93320000D02*
X114850000Y-95270000D01*
X114850000Y-95270000D02*
X109150000Y-95270000D01*
%TO.C,J1*%
X59730000Y-81850000D02*
X66730000Y-81850000D01*
X59730000Y-87550000D02*
X59730000Y-81850000D01*
X61680000Y-87550000D02*
X59730000Y-87550000D01*
X66730000Y-81850000D02*
X66730000Y-87550000D01*
X66730000Y-87550000D02*
X65280000Y-87550000D01*
%TO.C,J4*%
X71770000Y-78500000D02*
X71770000Y-84000000D01*
X71770000Y-84000000D02*
X81770000Y-84000000D01*
X73380000Y-78500000D02*
X71770000Y-78500000D01*
X81770000Y-78500000D02*
X80180000Y-78500000D01*
X81770000Y-84000000D02*
X81770000Y-78500000D01*
%TO.C,D1*%
X71500000Y-77600000D02*
X76500000Y-77600000D01*
X76500000Y-75000000D01*
X71500000Y-75000000D01*
X71500000Y-77600000D01*
%TD*%
M02*
