%TF.GenerationSoftware,KiCad,Pcbnew,9.0.7*%
%TF.CreationDate,2026-02-07T17:54:55+01:00*%
%TF.ProjectId,robot,726f626f-742e-46b6-9963-61645f706362,rev?*%
%TF.SameCoordinates,Original*%
%TF.FileFunction,Copper,L2,Bot*%
%TF.FilePolarity,Positive*%
%FSLAX46Y46*%
G04 Gerber Fmt 4.6, Leading zero omitted, Abs format (unit mm)*
G04 Created by KiCad (PCBNEW 9.0.7) date 2026-02-07 17:54:55*
%MOMM*%
%LPD*%
G01*
G04 APERTURE LIST*
%TA.AperFunction,ComponentPad*%
%ADD10C,2.000000*%
%TD*%
%TA.AperFunction,ComponentPad*%
%ADD11C,2.540000*%
%TD*%
%TA.AperFunction,Conductor*%
%ADD12C,0.400000*%
%TD*%
G04 APERTURE END LIST*
D10*
%TO.P,D3,1,DOUT*%
%TO.N,unconnected-(D3-DOUT-Pad1)*%
X94599999Y-70000000D03*
%TO.P,D3,2,GND*%
%TO.N,GND*%
X94599999Y-72540000D03*
%TO.P,D3,3,VDD*%
%TO.N,Net-(D3-VDD)*%
X94599999Y-75080000D03*
%TO.P,D3,4,DIN*%
%TO.N,Net-(D3-DIN)*%
X94599999Y-77620000D03*
%TD*%
%TO.P,J5,1,1*%
%TO.N,Net-(U1-GPIO21)*%
X112300000Y-82930000D03*
%TO.P,J5,2,2*%
%TO.N,Net-(U1-GPIO34)*%
X112300000Y-85470000D03*
%TD*%
%TO.P,U2,1,EN12*%
%TO.N,Net-(U1-GPIO9)*%
X78990000Y-54410000D03*
%TO.P,U2,2,1A*%
%TO.N,Net-(U1-GPIO11)*%
X78990000Y-56950000D03*
%TO.P,U2,3,1Y*%
%TO.N,Net-(U2-1Y)*%
X78990000Y-59490000D03*
%TO.P,U2,4,GND*%
%TO.N,GND*%
X78990000Y-62030000D03*
%TO.P,U2,5,GND*%
X78990000Y-64570000D03*
%TO.P,U2,6,2Y*%
%TO.N,Net-(U2-2Y)*%
X78990000Y-67110000D03*
%TO.P,U2,7,2A*%
%TO.N,Net-(U1-GPIO12)*%
X78990000Y-69650000D03*
%TO.P,U2,8,VM*%
%TO.N,/5V*%
X78990000Y-72190000D03*
%TO.P,U2,9,EN34*%
%TO.N,Net-(U1-GPIO5)*%
X86610000Y-72190000D03*
%TO.P,U2,10,4A*%
%TO.N,Net-(U1-GPIO3)*%
X86610000Y-69650000D03*
%TO.P,U2,11,4Y*%
%TO.N,Net-(U2-4Y)*%
X86610000Y-67110000D03*
%TO.P,U2,12,GND*%
%TO.N,GND*%
X86610000Y-64570000D03*
%TO.P,U2,13,GND*%
X86610000Y-62030000D03*
%TO.P,U2,14,3Y*%
%TO.N,Net-(U2-3Y)*%
X86610000Y-59490000D03*
%TO.P,U2,15,3A*%
%TO.N,Net-(U1-GPIO7)*%
X86610000Y-56950000D03*
%TO.P,U2,16,5V*%
%TO.N,/5V*%
X86610000Y-54410000D03*
%TD*%
D11*
%TO.P,DH3,1,DH*%
%TO.N,GND*%
X53000000Y-107000000D03*
%TD*%
D10*
%TO.P,J3,1,1*%
%TO.N,Net-(U2-2Y)*%
X73000000Y-64300000D03*
%TO.P,J3,2,2*%
%TO.N,Net-(U2-1Y)*%
X73000000Y-61760000D03*
%TD*%
D11*
%TO.P,D2,1*%
%TO.N,/5V*%
X69700000Y-82280000D03*
%TO.P,D2,2*%
%TO.N,/VSYS*%
X69700000Y-90890000D03*
%TD*%
D10*
%TO.P,U1,1,GPIO1*%
%TO.N,Net-(D3-DIN)*%
X98620000Y-88300000D03*
%TO.P,U1,2,GPIO2*%
%TO.N,unconnected-(U1-GPIO2-Pad2)*%
X96080000Y-88300000D03*
%TO.P,U1,3,GPIO3*%
%TO.N,Net-(U1-GPIO3)*%
X96080000Y-85760000D03*
%TO.P,U1,4,GPIO4*%
%TO.N,unconnected-(U1-GPIO4-Pad4)*%
X93540000Y-88300000D03*
%TO.P,U1,5,GPIO5*%
%TO.N,Net-(U1-GPIO5)*%
X93540000Y-85760000D03*
%TO.P,U1,6,GPIO6*%
%TO.N,unconnected-(U1-GPIO6-Pad6)*%
X91000000Y-88300000D03*
%TO.P,U1,7,GPIO7*%
%TO.N,Net-(U1-GPIO7)*%
X91000000Y-85760000D03*
%TO.P,U1,8,GPIO8*%
%TO.N,unconnected-(U1-GPIO8-Pad8)*%
X88460000Y-88300000D03*
%TO.P,U1,9,GPIO9*%
%TO.N,Net-(U1-GPIO9)*%
X88460000Y-85760000D03*
%TO.P,U1,10,GPIO10*%
%TO.N,unconnected-(U1-GPIO10-Pad10)*%
X85920000Y-88300000D03*
%TO.P,U1,11,GPIO11*%
%TO.N,Net-(U1-GPIO11)*%
X85920000Y-85760000D03*
%TO.P,U1,12,GPIO12*%
%TO.N,Net-(U1-GPIO12)*%
X83380000Y-85760000D03*
%TO.P,U1,13,GPIO13*%
%TO.N,Net-(U1-GPIO13)*%
X83380000Y-88300000D03*
%TO.P,U1,14,GPIO14*%
%TO.N,Net-(U1-GPIO14)*%
X80840000Y-88300000D03*
%TO.P,U1,15,GPIO15*%
%TO.N,unconnected-(U1-GPIO15-Pad15)*%
X80840000Y-106080000D03*
%TO.P,U1,16,GPIO16*%
%TO.N,unconnected-(U1-GPIO16-Pad16)*%
X85920000Y-108620000D03*
%TO.P,U1,17,GPIO17*%
%TO.N,unconnected-(U1-GPIO17-Pad17)*%
X85920000Y-106080000D03*
%TO.P,U1,18,GPIO18*%
%TO.N,unconnected-(U1-GPIO18-Pad18)*%
X88460000Y-108620000D03*
%TO.P,U1,21,GPIO21*%
%TO.N,Net-(U1-GPIO21)*%
X88460000Y-106080000D03*
%TO.P,U1,33,GPIO33*%
%TO.N,unconnected-(U1-GPIO33-Pad33)*%
X91000000Y-108620000D03*
%TO.P,U1,34,GPIO34*%
%TO.N,Net-(U1-GPIO34)*%
X91000000Y-106080000D03*
%TO.P,U1,35,GPIO35*%
%TO.N,unconnected-(U1-GPIO35-Pad35)*%
X93540000Y-108620000D03*
%TO.P,U1,36,GPIO36*%
%TO.N,Net-(U1-GPIO36)*%
X93540000Y-106080000D03*
%TO.P,U1,37,GPIO37*%
%TO.N,unconnected-(U1-GPIO37-Pad37)*%
X96080000Y-108620000D03*
%TO.P,U1,38,GPIO38*%
%TO.N,Net-(U1-GPIO38)*%
X96080000Y-106080000D03*
%TO.P,U1,39,GPIO39*%
%TO.N,Net-(U1-GPIO39)*%
X98620000Y-108620000D03*
%TO.P,U1,40,GPIO40*%
%TO.N,Net-(U1-GPIO40)*%
X98620000Y-106080000D03*
%TO.P,U1,41,VSYS*%
%TO.N,/VSYS*%
X80840000Y-108620000D03*
%TO.P,U1,42,3.3V*%
%TO.N,Net-(D3-VDD)*%
X80840000Y-85760000D03*
%TO.P,U1,43,GND*%
%TO.N,GND*%
X83380000Y-108620000D03*
%TO.P,U1,44,GND*%
X83380000Y-106080000D03*
%TO.P,U1,45,EN*%
%TO.N,unconnected-(U1-EN-Pad45)*%
X98620000Y-85760000D03*
%TD*%
%TO.P,R1,1*%
%TO.N,/5V*%
X57500000Y-82420000D03*
%TO.P,R1,2*%
%TO.N,GND*%
X57500000Y-92580000D03*
%TD*%
%TO.P,J7,1,1*%
%TO.N,Net-(U1-GPIO40)*%
X112300000Y-98160000D03*
%TO.P,J7,2,2*%
%TO.N,Net-(U1-GPIO39)*%
X112300000Y-100700000D03*
%TD*%
%TO.P,J2,1,1*%
%TO.N,Net-(U2-3Y)*%
X93100000Y-62030000D03*
%TO.P,J2,2,2*%
%TO.N,Net-(U2-4Y)*%
X93100000Y-64570000D03*
%TD*%
%TO.P,SW1,1,A*%
%TO.N,/5V*%
X53000000Y-83920000D03*
%TO.P,SW1,2,B*%
%TO.N,/VBAT*%
X53000000Y-86460000D03*
%TO.P,SW1,3,C*%
%TO.N,unconnected-(SW1-C-Pad3)*%
X53000000Y-89000000D03*
%TD*%
D11*
%TO.P,DH4,1,DH*%
%TO.N,GND*%
X112000000Y-107000000D03*
%TD*%
D10*
%TO.P,J6,1,1*%
%TO.N,Net-(U1-GPIO36)*%
X112300000Y-90500000D03*
%TO.P,J6,2,2*%
%TO.N,Net-(U1-GPIO38)*%
X112300000Y-93040000D03*
%TD*%
%TO.P,J1,1,1*%
%TO.N,GND*%
X64500000Y-85000000D03*
%TO.P,J1,2,2*%
%TO.N,/VBAT*%
X61960000Y-85000000D03*
%TD*%
%TO.P,J4,1,1*%
%TO.N,GND*%
X72960000Y-82000000D03*
%TO.P,J4,2,2*%
%TO.N,/VCC*%
X75500000Y-82000000D03*
%TO.P,J4,3,3*%
%TO.N,Net-(U1-GPIO13)*%
X78040000Y-82000000D03*
%TO.P,J4,4,4*%
%TO.N,Net-(U1-GPIO14)*%
X80580000Y-82000000D03*
%TD*%
D11*
%TO.P,D1,1*%
%TO.N,/5V*%
X69680000Y-76300000D03*
%TO.P,D1,2*%
%TO.N,/VCC*%
X78290000Y-76300000D03*
%TD*%
%TO.P,DH2,1,DH*%
%TO.N,GND*%
X94500000Y-53000000D03*
%TD*%
%TO.P,DH1,1,DH*%
%TO.N,GND*%
X70500000Y-53000000D03*
%TD*%
D12*
%TO.N,Net-(D3-VDD)*%
X80840000Y-85760000D02*
X91520000Y-75080000D01*
X91520000Y-75080000D02*
X94599999Y-75080000D01*
%TD*%
%TA.AperFunction,Conductor*%
%TO.N,GND*%
G36*
X96942539Y-50520185D02*
G01*
X96988294Y-50572989D01*
X96999500Y-50624500D01*
X96999500Y-80065891D01*
X97033608Y-80193187D01*
X97066554Y-80250250D01*
X97099500Y-80307314D01*
X97192686Y-80400500D01*
X97306814Y-80466392D01*
X97434108Y-80500500D01*
X114375500Y-80500500D01*
X114442539Y-80520185D01*
X114488294Y-80572989D01*
X114499500Y-80624500D01*
X114499500Y-109875500D01*
X114479815Y-109942539D01*
X114427011Y-109988294D01*
X114375500Y-109999500D01*
X99655716Y-109999500D01*
X99588677Y-109979815D01*
X99542922Y-109927011D01*
X99532978Y-109857853D01*
X99562003Y-109794297D01*
X99582826Y-109775185D01*
X99597510Y-109764517D01*
X99764517Y-109597510D01*
X99903343Y-109406433D01*
X100010568Y-109195992D01*
X100083553Y-108971368D01*
X100111694Y-108793694D01*
X100120500Y-108738097D01*
X100120500Y-108501902D01*
X100102353Y-108387327D01*
X100083553Y-108268631D01*
X100010566Y-108044003D01*
X99903342Y-107833566D01*
X99867721Y-107784538D01*
X99764517Y-107642490D01*
X99597510Y-107475483D01*
X99562872Y-107450317D01*
X99520207Y-107394989D01*
X99514228Y-107325375D01*
X99546833Y-107263580D01*
X99562873Y-107249682D01*
X99597510Y-107224517D01*
X99764517Y-107057510D01*
X99890584Y-106883994D01*
X110230000Y-106883994D01*
X110230000Y-107116005D01*
X110230001Y-107116022D01*
X110260283Y-107346040D01*
X110260286Y-107346053D01*
X110320336Y-107570167D01*
X110409124Y-107784521D01*
X110409132Y-107784538D01*
X110525136Y-107985461D01*
X110525142Y-107985469D01*
X110584117Y-108062327D01*
X111137425Y-107509019D01*
X111223249Y-107637463D01*
X111362537Y-107776751D01*
X111490979Y-107862573D01*
X110937671Y-108415881D01*
X111014530Y-108474857D01*
X111014538Y-108474863D01*
X111215461Y-108590867D01*
X111215478Y-108590875D01*
X111429832Y-108679663D01*
X111653946Y-108739713D01*
X111653959Y-108739716D01*
X111883977Y-108769998D01*
X111883995Y-108770000D01*
X112116005Y-108770000D01*
X112116022Y-108769998D01*
X112346040Y-108739716D01*
X112346053Y-108739713D01*
X112570167Y-108679663D01*
X112784521Y-108590875D01*
X112784538Y-108590867D01*
X112985475Y-108474855D01*
X113062327Y-108415883D01*
X113062327Y-108415880D01*
X112509020Y-107862573D01*
X112637463Y-107776751D01*
X112776751Y-107637463D01*
X112862573Y-107509020D01*
X113415880Y-108062327D01*
X113415883Y-108062327D01*
X113474855Y-107985475D01*
X113590867Y-107784538D01*
X113590875Y-107784521D01*
X113679663Y-107570167D01*
X113739713Y-107346053D01*
X113739716Y-107346040D01*
X113769998Y-107116022D01*
X113770000Y-107116005D01*
X113770000Y-106883994D01*
X113769998Y-106883977D01*
X113739716Y-106653959D01*
X113739713Y-106653946D01*
X113679663Y-106429832D01*
X113590875Y-106215478D01*
X113590867Y-106215461D01*
X113474863Y-106014538D01*
X113474857Y-106014530D01*
X113415881Y-105937671D01*
X112862573Y-106490979D01*
X112776751Y-106362537D01*
X112637463Y-106223249D01*
X112509019Y-106137425D01*
X113062327Y-105584117D01*
X112985469Y-105525142D01*
X112985461Y-105525136D01*
X112784538Y-105409132D01*
X112784521Y-105409124D01*
X112570167Y-105320336D01*
X112346053Y-105260286D01*
X112346040Y-105260283D01*
X112116022Y-105230001D01*
X112116005Y-105230000D01*
X111883995Y-105230000D01*
X111883977Y-105230001D01*
X111653959Y-105260283D01*
X111653946Y-105260286D01*
X111429832Y-105320336D01*
X111215478Y-105409124D01*
X111215461Y-105409132D01*
X111014541Y-105525134D01*
X111014533Y-105525140D01*
X110937671Y-105584116D01*
X110937671Y-105584117D01*
X111490979Y-106137425D01*
X111362537Y-106223249D01*
X111223249Y-106362537D01*
X111137426Y-106490979D01*
X110584117Y-105937671D01*
X110584116Y-105937671D01*
X110525140Y-106014533D01*
X110525134Y-106014541D01*
X110409132Y-106215461D01*
X110409124Y-106215478D01*
X110320336Y-106429832D01*
X110260286Y-106653946D01*
X110260283Y-106653959D01*
X110230001Y-106883977D01*
X110230000Y-106883994D01*
X99890584Y-106883994D01*
X99903343Y-106866433D01*
X100010568Y-106655992D01*
X100083553Y-106431368D01*
X100116516Y-106223249D01*
X100120500Y-106198097D01*
X100120500Y-105961902D01*
X100099005Y-105826197D01*
X100083553Y-105728632D01*
X100083552Y-105728628D01*
X100083552Y-105728627D01*
X100064629Y-105670388D01*
X100010566Y-105504003D01*
X99903342Y-105293566D01*
X99889999Y-105275201D01*
X99764517Y-105102490D01*
X99597510Y-104935483D01*
X99406433Y-104796657D01*
X99195996Y-104689433D01*
X98971368Y-104616446D01*
X98738097Y-104579500D01*
X98738092Y-104579500D01*
X98501908Y-104579500D01*
X98501903Y-104579500D01*
X98268631Y-104616446D01*
X98044003Y-104689433D01*
X97833566Y-104796657D01*
X97750047Y-104857338D01*
X97642490Y-104935483D01*
X97642488Y-104935485D01*
X97642487Y-104935485D01*
X97475484Y-105102488D01*
X97450318Y-105137127D01*
X97394987Y-105179792D01*
X97325374Y-105185771D01*
X97263579Y-105153165D01*
X97249682Y-105137127D01*
X97224517Y-105102490D01*
X97057510Y-104935483D01*
X96866433Y-104796657D01*
X96655996Y-104689433D01*
X96431368Y-104616446D01*
X96198097Y-104579500D01*
X96198092Y-104579500D01*
X95961908Y-104579500D01*
X95961903Y-104579500D01*
X95728631Y-104616446D01*
X95504003Y-104689433D01*
X95293566Y-104796657D01*
X95210047Y-104857338D01*
X95102490Y-104935483D01*
X95102488Y-104935485D01*
X95102487Y-104935485D01*
X94935484Y-105102488D01*
X94910318Y-105137127D01*
X94854987Y-105179792D01*
X94785374Y-105185771D01*
X94723579Y-105153165D01*
X94709682Y-105137127D01*
X94684517Y-105102490D01*
X94517510Y-104935483D01*
X94326433Y-104796657D01*
X94115996Y-104689433D01*
X93891368Y-104616446D01*
X93658097Y-104579500D01*
X93658092Y-104579500D01*
X93421908Y-104579500D01*
X93421903Y-104579500D01*
X93188631Y-104616446D01*
X92964003Y-104689433D01*
X92753566Y-104796657D01*
X92670047Y-104857338D01*
X92562490Y-104935483D01*
X92562488Y-104935485D01*
X92562487Y-104935485D01*
X92395484Y-105102488D01*
X92370318Y-105137127D01*
X92314987Y-105179792D01*
X92245374Y-105185771D01*
X92183579Y-105153165D01*
X92169682Y-105137127D01*
X92144517Y-105102490D01*
X91977510Y-104935483D01*
X91786433Y-104796657D01*
X91575996Y-104689433D01*
X91351368Y-104616446D01*
X91118097Y-104579500D01*
X91118092Y-104579500D01*
X90881908Y-104579500D01*
X90881903Y-104579500D01*
X90648631Y-104616446D01*
X90424003Y-104689433D01*
X90213566Y-104796657D01*
X90130047Y-104857338D01*
X90022490Y-104935483D01*
X90022488Y-104935485D01*
X90022487Y-104935485D01*
X89855484Y-105102488D01*
X89830318Y-105137127D01*
X89774987Y-105179792D01*
X89705374Y-105185771D01*
X89643579Y-105153165D01*
X89629682Y-105137127D01*
X89604517Y-105102490D01*
X89437510Y-104935483D01*
X89246433Y-104796657D01*
X89035996Y-104689433D01*
X88811368Y-104616446D01*
X88578097Y-104579500D01*
X88578092Y-104579500D01*
X88341908Y-104579500D01*
X88341903Y-104579500D01*
X88108631Y-104616446D01*
X87884003Y-104689433D01*
X87673566Y-104796657D01*
X87590047Y-104857338D01*
X87482490Y-104935483D01*
X87482488Y-104935485D01*
X87482487Y-104935485D01*
X87315484Y-105102488D01*
X87290318Y-105137127D01*
X87234987Y-105179792D01*
X87165374Y-105185771D01*
X87103579Y-105153165D01*
X87089682Y-105137127D01*
X87064517Y-105102490D01*
X86897510Y-104935483D01*
X86706433Y-104796657D01*
X86495996Y-104689433D01*
X86271368Y-104616446D01*
X86038097Y-104579500D01*
X86038092Y-104579500D01*
X85801908Y-104579500D01*
X85801903Y-104579500D01*
X85568631Y-104616446D01*
X85344003Y-104689433D01*
X85133566Y-104796657D01*
X85050047Y-104857338D01*
X84942490Y-104935483D01*
X84942488Y-104935485D01*
X84942487Y-104935485D01*
X84775482Y-105102490D01*
X84732451Y-105161717D01*
X84677120Y-105204382D01*
X84622405Y-105212448D01*
X84602658Y-105210893D01*
X83822137Y-105991414D01*
X83799333Y-105906306D01*
X83740090Y-105803694D01*
X83656306Y-105719910D01*
X83553694Y-105660667D01*
X83468584Y-105637861D01*
X84249105Y-104857340D01*
X84249104Y-104857338D01*
X84166174Y-104797087D01*
X83955802Y-104689897D01*
X83731247Y-104616934D01*
X83731248Y-104616934D01*
X83498052Y-104580000D01*
X83261948Y-104580000D01*
X83028752Y-104616934D01*
X82804197Y-104689897D01*
X82593830Y-104797084D01*
X82510894Y-104857340D01*
X83291415Y-105637861D01*
X83206306Y-105660667D01*
X83103694Y-105719910D01*
X83019910Y-105803694D01*
X82960667Y-105906306D01*
X82937861Y-105991414D01*
X82157340Y-105210893D01*
X82137593Y-105212448D01*
X82133860Y-105211663D01*
X82130222Y-105212808D01*
X82099936Y-105204537D01*
X82069215Y-105198084D01*
X82065429Y-105195114D01*
X82062821Y-105194402D01*
X82053431Y-105185701D01*
X82035712Y-105171800D01*
X82031370Y-105166978D01*
X81984517Y-105102490D01*
X81817510Y-104935483D01*
X81626433Y-104796657D01*
X81415996Y-104689433D01*
X81191368Y-104616446D01*
X80958097Y-104579500D01*
X80958092Y-104579500D01*
X80721908Y-104579500D01*
X80721903Y-104579500D01*
X80488631Y-104616446D01*
X80264003Y-104689433D01*
X80053566Y-104796657D01*
X79970047Y-104857338D01*
X79862490Y-104935483D01*
X79862488Y-104935485D01*
X79862487Y-104935485D01*
X79695485Y-105102487D01*
X79695485Y-105102488D01*
X79695483Y-105102490D01*
X79652452Y-105161717D01*
X79556657Y-105293566D01*
X79449433Y-105504003D01*
X79376446Y-105728631D01*
X79339500Y-105961902D01*
X79339500Y-106198097D01*
X79376446Y-106431368D01*
X79449433Y-106655996D01*
X79534850Y-106823634D01*
X79556657Y-106866433D01*
X79695483Y-107057510D01*
X79862490Y-107224517D01*
X79897127Y-107249683D01*
X79939792Y-107305013D01*
X79945771Y-107374626D01*
X79913165Y-107436421D01*
X79897130Y-107450315D01*
X79879365Y-107463222D01*
X79862488Y-107475484D01*
X79695485Y-107642487D01*
X79695485Y-107642488D01*
X79695483Y-107642490D01*
X79652452Y-107701717D01*
X79556657Y-107833566D01*
X79449433Y-108044003D01*
X79376446Y-108268631D01*
X79339500Y-108501902D01*
X79339500Y-108738097D01*
X79376446Y-108971368D01*
X79449433Y-109195996D01*
X79556657Y-109406433D01*
X79695483Y-109597510D01*
X79862490Y-109764517D01*
X79877171Y-109775183D01*
X79919835Y-109830512D01*
X79925814Y-109900125D01*
X79893208Y-109961920D01*
X79832369Y-109996278D01*
X79804284Y-109999500D01*
X50624500Y-109999500D01*
X50557461Y-109979815D01*
X50511706Y-109927011D01*
X50500500Y-109875500D01*
X50500500Y-106883994D01*
X51230000Y-106883994D01*
X51230000Y-107116005D01*
X51230001Y-107116022D01*
X51260283Y-107346040D01*
X51260286Y-107346053D01*
X51320336Y-107570167D01*
X51409124Y-107784521D01*
X51409132Y-107784538D01*
X51525136Y-107985461D01*
X51525142Y-107985469D01*
X51584117Y-108062327D01*
X52137425Y-107509019D01*
X52223249Y-107637463D01*
X52362537Y-107776751D01*
X52490979Y-107862573D01*
X51937671Y-108415881D01*
X52014530Y-108474857D01*
X52014538Y-108474863D01*
X52215461Y-108590867D01*
X52215478Y-108590875D01*
X52429832Y-108679663D01*
X52653946Y-108739713D01*
X52653959Y-108739716D01*
X52883977Y-108769998D01*
X52883995Y-108770000D01*
X53116005Y-108770000D01*
X53116022Y-108769998D01*
X53346040Y-108739716D01*
X53346053Y-108739713D01*
X53570167Y-108679663D01*
X53784521Y-108590875D01*
X53784538Y-108590867D01*
X53985475Y-108474855D01*
X54062327Y-108415883D01*
X54062327Y-108415880D01*
X53509020Y-107862573D01*
X53637463Y-107776751D01*
X53776751Y-107637463D01*
X53862573Y-107509020D01*
X54415880Y-108062327D01*
X54415883Y-108062327D01*
X54474855Y-107985475D01*
X54590867Y-107784538D01*
X54590875Y-107784521D01*
X54679663Y-107570167D01*
X54739713Y-107346053D01*
X54739716Y-107346040D01*
X54769998Y-107116022D01*
X54770000Y-107116005D01*
X54770000Y-106883994D01*
X54769998Y-106883977D01*
X54739716Y-106653959D01*
X54739713Y-106653946D01*
X54679663Y-106429832D01*
X54590875Y-106215478D01*
X54590867Y-106215461D01*
X54474863Y-106014538D01*
X54474857Y-106014530D01*
X54415881Y-105937671D01*
X53862573Y-106490979D01*
X53776751Y-106362537D01*
X53637463Y-106223249D01*
X53509019Y-106137425D01*
X54062327Y-105584117D01*
X53985469Y-105525142D01*
X53985461Y-105525136D01*
X53784538Y-105409132D01*
X53784521Y-105409124D01*
X53570167Y-105320336D01*
X53346053Y-105260286D01*
X53346040Y-105260283D01*
X53116022Y-105230001D01*
X53116005Y-105230000D01*
X52883995Y-105230000D01*
X52883977Y-105230001D01*
X52653959Y-105260283D01*
X52653946Y-105260286D01*
X52429832Y-105320336D01*
X52215478Y-105409124D01*
X52215461Y-105409132D01*
X52014541Y-105525134D01*
X52014533Y-105525140D01*
X51937671Y-105584116D01*
X51937671Y-105584117D01*
X52490979Y-106137425D01*
X52362537Y-106223249D01*
X52223249Y-106362537D01*
X52137426Y-106490979D01*
X51584117Y-105937671D01*
X51584116Y-105937671D01*
X51525140Y-106014533D01*
X51525134Y-106014541D01*
X51409132Y-106215461D01*
X51409124Y-106215478D01*
X51320336Y-106429832D01*
X51260286Y-106653946D01*
X51260283Y-106653959D01*
X51230001Y-106883977D01*
X51230000Y-106883994D01*
X50500500Y-106883994D01*
X50500500Y-98041902D01*
X110799500Y-98041902D01*
X110799500Y-98278097D01*
X110836446Y-98511368D01*
X110909433Y-98735996D01*
X111016657Y-98946433D01*
X111155483Y-99137510D01*
X111322490Y-99304517D01*
X111357127Y-99329683D01*
X111399792Y-99385013D01*
X111405771Y-99454626D01*
X111373165Y-99516421D01*
X111357130Y-99530315D01*
X111339365Y-99543222D01*
X111322488Y-99555484D01*
X111155485Y-99722487D01*
X111155485Y-99722488D01*
X111155483Y-99722490D01*
X111095862Y-99804550D01*
X111016657Y-99913566D01*
X110909433Y-100124003D01*
X110836446Y-100348631D01*
X110799500Y-100581902D01*
X110799500Y-100818097D01*
X110836446Y-101051368D01*
X110909433Y-101275996D01*
X111016657Y-101486433D01*
X111155483Y-101677510D01*
X111322490Y-101844517D01*
X111513567Y-101983343D01*
X111612991Y-102034002D01*
X111724003Y-102090566D01*
X111724005Y-102090566D01*
X111724008Y-102090568D01*
X111844412Y-102129689D01*
X111948631Y-102163553D01*
X112181903Y-102200500D01*
X112181908Y-102200500D01*
X112418097Y-102200500D01*
X112651368Y-102163553D01*
X112875992Y-102090568D01*
X113086433Y-101983343D01*
X113277510Y-101844517D01*
X113444517Y-101677510D01*
X113583343Y-101486433D01*
X113690568Y-101275992D01*
X113763553Y-101051368D01*
X113800500Y-100818097D01*
X113800500Y-100581902D01*
X113763553Y-100348631D01*
X113690566Y-100124003D01*
X113583342Y-99913566D01*
X113444517Y-99722490D01*
X113277510Y-99555483D01*
X113242872Y-99530317D01*
X113200207Y-99474989D01*
X113194228Y-99405375D01*
X113226833Y-99343580D01*
X113242873Y-99329682D01*
X113277510Y-99304517D01*
X113444517Y-99137510D01*
X113583343Y-98946433D01*
X113690568Y-98735992D01*
X113763553Y-98511368D01*
X113800500Y-98278097D01*
X113800500Y-98041902D01*
X113763553Y-97808631D01*
X113690566Y-97584003D01*
X113583342Y-97373566D01*
X113444517Y-97182490D01*
X113277510Y-97015483D01*
X113086433Y-96876657D01*
X112875996Y-96769433D01*
X112651368Y-96696446D01*
X112418097Y-96659500D01*
X112418092Y-96659500D01*
X112181908Y-96659500D01*
X112181903Y-96659500D01*
X111948631Y-96696446D01*
X111724003Y-96769433D01*
X111513566Y-96876657D01*
X111404550Y-96955862D01*
X111322490Y-97015483D01*
X111322488Y-97015485D01*
X111322487Y-97015485D01*
X111155485Y-97182487D01*
X111155485Y-97182488D01*
X111155483Y-97182490D01*
X111095862Y-97264550D01*
X111016657Y-97373566D01*
X110909433Y-97584003D01*
X110836446Y-97808631D01*
X110799500Y-98041902D01*
X50500500Y-98041902D01*
X50500500Y-92461947D01*
X56000000Y-92461947D01*
X56000000Y-92698052D01*
X56036934Y-92931247D01*
X56109897Y-93155802D01*
X56217087Y-93366174D01*
X56277338Y-93449104D01*
X56277340Y-93449105D01*
X57057861Y-92668584D01*
X57080667Y-92753694D01*
X57139910Y-92856306D01*
X57223694Y-92940090D01*
X57326306Y-92999333D01*
X57411415Y-93022138D01*
X56630893Y-93802658D01*
X56713828Y-93862914D01*
X56924197Y-93970102D01*
X57148752Y-94043065D01*
X57148751Y-94043065D01*
X57381948Y-94080000D01*
X57618052Y-94080000D01*
X57851247Y-94043065D01*
X58075802Y-93970102D01*
X58286163Y-93862918D01*
X58286169Y-93862914D01*
X58369104Y-93802658D01*
X58369105Y-93802658D01*
X57588584Y-93022138D01*
X57673694Y-92999333D01*
X57776306Y-92940090D01*
X57860090Y-92856306D01*
X57919333Y-92753694D01*
X57942138Y-92668585D01*
X58722658Y-93449105D01*
X58722658Y-93449104D01*
X58782914Y-93366169D01*
X58782918Y-93366163D01*
X58890102Y-93155802D01*
X58963065Y-92931247D01*
X59000000Y-92698052D01*
X59000000Y-92461947D01*
X58963065Y-92228752D01*
X58890102Y-92004197D01*
X58782914Y-91793828D01*
X58722658Y-91710894D01*
X58722658Y-91710893D01*
X57942137Y-92491414D01*
X57919333Y-92406306D01*
X57860090Y-92303694D01*
X57776306Y-92219910D01*
X57673694Y-92160667D01*
X57588584Y-92137861D01*
X58369105Y-91357340D01*
X58369104Y-91357338D01*
X58286174Y-91297087D01*
X58075802Y-91189897D01*
X57851247Y-91116934D01*
X57851248Y-91116934D01*
X57618052Y-91080000D01*
X57381948Y-91080000D01*
X57148752Y-91116934D01*
X56924197Y-91189897D01*
X56713830Y-91297084D01*
X56630894Y-91357340D01*
X57411415Y-92137861D01*
X57326306Y-92160667D01*
X57223694Y-92219910D01*
X57139910Y-92303694D01*
X57080667Y-92406306D01*
X57057861Y-92491415D01*
X56277340Y-91710894D01*
X56217084Y-91793830D01*
X56109897Y-92004197D01*
X56036934Y-92228752D01*
X56000000Y-92461947D01*
X50500500Y-92461947D01*
X50500500Y-90773947D01*
X67929500Y-90773947D01*
X67929500Y-91006052D01*
X67938709Y-91075996D01*
X67959794Y-91236149D01*
X67976122Y-91297087D01*
X68019862Y-91460328D01*
X68108677Y-91674745D01*
X68108685Y-91674762D01*
X68224720Y-91875743D01*
X68224721Y-91875745D01*
X68366009Y-92059875D01*
X68366015Y-92059882D01*
X68530117Y-92223984D01*
X68530124Y-92223990D01*
X68714254Y-92365278D01*
X68714256Y-92365279D01*
X68915237Y-92481314D01*
X68915240Y-92481315D01*
X68915248Y-92481320D01*
X69129670Y-92570137D01*
X69353851Y-92630206D01*
X69583955Y-92660500D01*
X69583962Y-92660500D01*
X69816038Y-92660500D01*
X69816045Y-92660500D01*
X70046149Y-92630206D01*
X70270330Y-92570137D01*
X70484752Y-92481320D01*
X70685748Y-92365276D01*
X70869877Y-92223989D01*
X71033989Y-92059877D01*
X71175276Y-91875748D01*
X71291320Y-91674752D01*
X71380137Y-91460330D01*
X71440206Y-91236149D01*
X71470500Y-91006045D01*
X71470500Y-90773955D01*
X71440206Y-90543851D01*
X71396812Y-90381902D01*
X110799500Y-90381902D01*
X110799500Y-90618097D01*
X110836446Y-90851368D01*
X110909433Y-91075996D01*
X110991036Y-91236149D01*
X111016657Y-91286433D01*
X111155483Y-91477510D01*
X111322490Y-91644517D01*
X111357127Y-91669683D01*
X111399792Y-91725013D01*
X111405771Y-91794626D01*
X111373165Y-91856421D01*
X111357130Y-91870315D01*
X111349660Y-91875743D01*
X111322488Y-91895484D01*
X111155485Y-92062487D01*
X111155485Y-92062488D01*
X111155483Y-92062490D01*
X111106434Y-92130000D01*
X111016657Y-92253566D01*
X110909433Y-92464003D01*
X110836446Y-92688631D01*
X110799500Y-92921902D01*
X110799500Y-93158097D01*
X110836446Y-93391368D01*
X110909433Y-93615996D01*
X111004543Y-93802658D01*
X111016657Y-93826433D01*
X111155483Y-94017510D01*
X111322490Y-94184517D01*
X111513567Y-94323343D01*
X111612991Y-94374002D01*
X111724003Y-94430566D01*
X111724005Y-94430566D01*
X111724008Y-94430568D01*
X111844412Y-94469689D01*
X111948631Y-94503553D01*
X112181903Y-94540500D01*
X112181908Y-94540500D01*
X112418097Y-94540500D01*
X112651368Y-94503553D01*
X112875992Y-94430568D01*
X113086433Y-94323343D01*
X113277510Y-94184517D01*
X113444517Y-94017510D01*
X113583343Y-93826433D01*
X113690568Y-93615992D01*
X113763553Y-93391368D01*
X113767545Y-93366163D01*
X113800500Y-93158097D01*
X113800500Y-92921902D01*
X113763553Y-92688631D01*
X113728256Y-92579999D01*
X113690568Y-92464008D01*
X113690566Y-92464005D01*
X113690566Y-92464003D01*
X113583342Y-92253566D01*
X113444517Y-92062490D01*
X113277510Y-91895483D01*
X113242872Y-91870317D01*
X113200207Y-91814989D01*
X113194228Y-91745375D01*
X113226833Y-91683580D01*
X113242873Y-91669682D01*
X113277510Y-91644517D01*
X113444517Y-91477510D01*
X113583343Y-91286433D01*
X113690568Y-91075992D01*
X113763553Y-90851368D01*
X113775815Y-90773947D01*
X113800500Y-90618097D01*
X113800500Y-90381902D01*
X113763553Y-90148631D01*
X113729689Y-90044412D01*
X113690568Y-89924008D01*
X113690566Y-89924005D01*
X113690566Y-89924003D01*
X113634002Y-89812991D01*
X113583343Y-89713567D01*
X113444517Y-89522490D01*
X113277510Y-89355483D01*
X113086433Y-89216657D01*
X113042414Y-89194228D01*
X112875996Y-89109433D01*
X112651368Y-89036446D01*
X112418097Y-88999500D01*
X112418092Y-88999500D01*
X112181908Y-88999500D01*
X112181903Y-88999500D01*
X111948631Y-89036446D01*
X111724003Y-89109433D01*
X111513566Y-89216657D01*
X111404550Y-89295862D01*
X111322490Y-89355483D01*
X111322488Y-89355485D01*
X111322487Y-89355485D01*
X111155485Y-89522487D01*
X111155485Y-89522488D01*
X111155483Y-89522490D01*
X111111271Y-89583342D01*
X111016657Y-89713566D01*
X110909433Y-89924003D01*
X110836446Y-90148631D01*
X110799500Y-90381902D01*
X71396812Y-90381902D01*
X71380137Y-90319670D01*
X71291320Y-90105248D01*
X71291314Y-90105237D01*
X71175279Y-89904256D01*
X71175278Y-89904254D01*
X71033990Y-89720124D01*
X71033984Y-89720117D01*
X70869882Y-89556015D01*
X70869875Y-89556009D01*
X70685745Y-89414721D01*
X70685743Y-89414720D01*
X70484762Y-89298685D01*
X70484754Y-89298681D01*
X70484752Y-89298680D01*
X70433646Y-89277511D01*
X70270328Y-89209862D01*
X70128203Y-89171780D01*
X70046149Y-89149794D01*
X70017386Y-89146007D01*
X69816052Y-89119500D01*
X69816045Y-89119500D01*
X69583955Y-89119500D01*
X69583947Y-89119500D01*
X69353851Y-89149794D01*
X69129671Y-89209862D01*
X68915254Y-89298677D01*
X68915237Y-89298685D01*
X68714256Y-89414720D01*
X68714254Y-89414721D01*
X68530124Y-89556009D01*
X68530117Y-89556015D01*
X68366015Y-89720117D01*
X68366009Y-89720124D01*
X68224721Y-89904254D01*
X68224720Y-89904256D01*
X68108685Y-90105237D01*
X68108677Y-90105254D01*
X68019862Y-90319671D01*
X67959794Y-90543851D01*
X67929500Y-90773947D01*
X50500500Y-90773947D01*
X50500500Y-83801902D01*
X51499500Y-83801902D01*
X51499500Y-84038097D01*
X51536446Y-84271368D01*
X51609433Y-84495996D01*
X51682762Y-84639910D01*
X51716657Y-84706433D01*
X51855483Y-84897510D01*
X52022490Y-85064517D01*
X52057127Y-85089683D01*
X52099792Y-85145013D01*
X52105771Y-85214626D01*
X52073165Y-85276421D01*
X52057130Y-85290315D01*
X52039365Y-85303222D01*
X52022488Y-85315484D01*
X51855485Y-85482487D01*
X51855485Y-85482488D01*
X51855483Y-85482490D01*
X51795862Y-85564550D01*
X51716657Y-85673566D01*
X51609433Y-85884003D01*
X51536446Y-86108631D01*
X51499500Y-86341902D01*
X51499500Y-86578097D01*
X51536446Y-86811368D01*
X51609433Y-87035996D01*
X51716657Y-87246433D01*
X51855483Y-87437510D01*
X52022490Y-87604517D01*
X52057127Y-87629683D01*
X52099792Y-87685013D01*
X52105771Y-87754626D01*
X52073165Y-87816421D01*
X52057130Y-87830315D01*
X52039365Y-87843222D01*
X52022488Y-87855484D01*
X51855485Y-88022487D01*
X51855485Y-88022488D01*
X51855483Y-88022490D01*
X51795862Y-88104550D01*
X51716657Y-88213566D01*
X51609433Y-88424003D01*
X51536446Y-88648631D01*
X51499500Y-88881902D01*
X51499500Y-89118097D01*
X51536446Y-89351368D01*
X51609433Y-89575996D01*
X51667810Y-89690566D01*
X51716657Y-89786433D01*
X51855483Y-89977510D01*
X52022490Y-90144517D01*
X52213567Y-90283343D01*
X52284863Y-90319670D01*
X52424003Y-90390566D01*
X52424005Y-90390566D01*
X52424008Y-90390568D01*
X52481133Y-90409129D01*
X52648631Y-90463553D01*
X52881903Y-90500500D01*
X52881908Y-90500500D01*
X53118097Y-90500500D01*
X53351368Y-90463553D01*
X53575992Y-90390568D01*
X53786433Y-90283343D01*
X53977510Y-90144517D01*
X54144517Y-89977510D01*
X54283343Y-89786433D01*
X54390568Y-89575992D01*
X54463553Y-89351368D01*
X54471898Y-89298680D01*
X54500500Y-89118097D01*
X54500500Y-88881902D01*
X54463553Y-88648631D01*
X54390566Y-88424003D01*
X54283342Y-88213566D01*
X54260341Y-88181908D01*
X54144517Y-88022490D01*
X53977510Y-87855483D01*
X53942872Y-87830317D01*
X53900207Y-87774989D01*
X53894228Y-87705375D01*
X53926833Y-87643580D01*
X53942873Y-87629682D01*
X53977510Y-87604517D01*
X54144517Y-87437510D01*
X54283343Y-87246433D01*
X54390568Y-87035992D01*
X54463553Y-86811368D01*
X54472743Y-86753343D01*
X54500500Y-86578097D01*
X54500500Y-86341902D01*
X54463553Y-86108631D01*
X54398428Y-85908199D01*
X54390568Y-85884008D01*
X54390566Y-85884005D01*
X54390566Y-85884003D01*
X54283342Y-85673566D01*
X54260341Y-85641908D01*
X54144517Y-85482490D01*
X53977510Y-85315483D01*
X53942872Y-85290317D01*
X53900207Y-85234989D01*
X53894228Y-85165375D01*
X53926833Y-85103580D01*
X53942873Y-85089682D01*
X53977510Y-85064517D01*
X54144517Y-84897510D01*
X54155857Y-84881902D01*
X60459500Y-84881902D01*
X60459500Y-85118097D01*
X60496446Y-85351368D01*
X60569433Y-85575996D01*
X60676519Y-85786163D01*
X60676657Y-85786433D01*
X60815483Y-85977510D01*
X60982490Y-86144517D01*
X61173567Y-86283343D01*
X61272991Y-86334002D01*
X61384003Y-86390566D01*
X61384005Y-86390566D01*
X61384008Y-86390568D01*
X61504412Y-86429689D01*
X61608631Y-86463553D01*
X61841903Y-86500500D01*
X61841908Y-86500500D01*
X62078097Y-86500500D01*
X62311368Y-86463553D01*
X62312870Y-86463065D01*
X62535992Y-86390568D01*
X62746433Y-86283343D01*
X62937510Y-86144517D01*
X63104517Y-85977510D01*
X63151370Y-85913022D01*
X63155713Y-85908199D01*
X63180150Y-85893142D01*
X63202877Y-85875618D01*
X63210393Y-85874509D01*
X63215199Y-85871549D01*
X63228730Y-85871806D01*
X63257594Y-85867551D01*
X63277340Y-85869105D01*
X64057861Y-85088584D01*
X64080667Y-85173694D01*
X64139910Y-85276306D01*
X64223694Y-85360090D01*
X64326306Y-85419333D01*
X64411415Y-85442138D01*
X63630893Y-86222658D01*
X63713828Y-86282914D01*
X63924197Y-86390102D01*
X64148752Y-86463065D01*
X64148751Y-86463065D01*
X64381948Y-86500000D01*
X64618052Y-86500000D01*
X64851247Y-86463065D01*
X65075802Y-86390102D01*
X65286163Y-86282918D01*
X65286169Y-86282914D01*
X65369104Y-86222658D01*
X65369105Y-86222658D01*
X64588584Y-85442138D01*
X64673694Y-85419333D01*
X64776306Y-85360090D01*
X64860090Y-85276306D01*
X64919333Y-85173694D01*
X64942138Y-85088585D01*
X65722658Y-85869105D01*
X65722658Y-85869104D01*
X65782914Y-85786169D01*
X65782918Y-85786163D01*
X65856424Y-85641902D01*
X79339500Y-85641902D01*
X79339500Y-85878097D01*
X79376446Y-86111368D01*
X79449433Y-86335996D01*
X79532998Y-86500000D01*
X79556657Y-86546433D01*
X79695483Y-86737510D01*
X79862490Y-86904517D01*
X79897127Y-86929683D01*
X79939792Y-86985013D01*
X79945771Y-87054626D01*
X79913165Y-87116421D01*
X79897130Y-87130315D01*
X79879365Y-87143222D01*
X79862488Y-87155484D01*
X79695485Y-87322487D01*
X79695485Y-87322488D01*
X79695483Y-87322490D01*
X79639320Y-87399792D01*
X79556657Y-87513566D01*
X79449433Y-87724003D01*
X79376446Y-87948631D01*
X79339500Y-88181902D01*
X79339500Y-88418097D01*
X79376446Y-88651368D01*
X79449433Y-88875996D01*
X79512362Y-88999500D01*
X79556657Y-89086433D01*
X79695483Y-89277510D01*
X79862490Y-89444517D01*
X80053567Y-89583343D01*
X80152991Y-89634002D01*
X80264003Y-89690566D01*
X80264005Y-89690566D01*
X80264008Y-89690568D01*
X80354950Y-89720117D01*
X80488631Y-89763553D01*
X80721903Y-89800500D01*
X80721908Y-89800500D01*
X80958097Y-89800500D01*
X81191368Y-89763553D01*
X81415992Y-89690568D01*
X81626433Y-89583343D01*
X81817510Y-89444517D01*
X81984517Y-89277510D01*
X82009682Y-89242872D01*
X82065011Y-89200207D01*
X82134625Y-89194228D01*
X82196420Y-89226833D01*
X82210315Y-89242870D01*
X82235483Y-89277510D01*
X82402490Y-89444517D01*
X82593567Y-89583343D01*
X82692991Y-89634002D01*
X82804003Y-89690566D01*
X82804005Y-89690566D01*
X82804008Y-89690568D01*
X82894950Y-89720117D01*
X83028631Y-89763553D01*
X83261903Y-89800500D01*
X83261908Y-89800500D01*
X83498097Y-89800500D01*
X83731368Y-89763553D01*
X83955992Y-89690568D01*
X84166433Y-89583343D01*
X84357510Y-89444517D01*
X84524517Y-89277510D01*
X84549682Y-89242872D01*
X84605011Y-89200207D01*
X84674625Y-89194228D01*
X84736420Y-89226833D01*
X84750315Y-89242870D01*
X84775483Y-89277510D01*
X84942490Y-89444517D01*
X85133567Y-89583343D01*
X85232991Y-89634002D01*
X85344003Y-89690566D01*
X85344005Y-89690566D01*
X85344008Y-89690568D01*
X85434950Y-89720117D01*
X85568631Y-89763553D01*
X85801903Y-89800500D01*
X85801908Y-89800500D01*
X86038097Y-89800500D01*
X86271368Y-89763553D01*
X86495992Y-89690568D01*
X86706433Y-89583343D01*
X86897510Y-89444517D01*
X87064517Y-89277510D01*
X87089682Y-89242872D01*
X87145011Y-89200207D01*
X87214625Y-89194228D01*
X87276420Y-89226833D01*
X87290315Y-89242870D01*
X87315483Y-89277510D01*
X87482490Y-89444517D01*
X87673567Y-89583343D01*
X87772991Y-89634002D01*
X87884003Y-89690566D01*
X87884005Y-89690566D01*
X87884008Y-89690568D01*
X87974950Y-89720117D01*
X88108631Y-89763553D01*
X88341903Y-89800500D01*
X88341908Y-89800500D01*
X88578097Y-89800500D01*
X88811368Y-89763553D01*
X89035992Y-89690568D01*
X89246433Y-89583343D01*
X89437510Y-89444517D01*
X89604517Y-89277510D01*
X89629682Y-89242872D01*
X89685011Y-89200207D01*
X89754625Y-89194228D01*
X89816420Y-89226833D01*
X89830315Y-89242870D01*
X89855483Y-89277510D01*
X90022490Y-89444517D01*
X90213567Y-89583343D01*
X90312991Y-89634002D01*
X90424003Y-89690566D01*
X90424005Y-89690566D01*
X90424008Y-89690568D01*
X90514950Y-89720117D01*
X90648631Y-89763553D01*
X90881903Y-89800500D01*
X90881908Y-89800500D01*
X91118097Y-89800500D01*
X91351368Y-89763553D01*
X91575992Y-89690568D01*
X91786433Y-89583343D01*
X91977510Y-89444517D01*
X92144517Y-89277510D01*
X92169682Y-89242872D01*
X92225011Y-89200207D01*
X92294625Y-89194228D01*
X92356420Y-89226833D01*
X92370315Y-89242870D01*
X92395483Y-89277510D01*
X92562490Y-89444517D01*
X92753567Y-89583343D01*
X92852991Y-89634002D01*
X92964003Y-89690566D01*
X92964005Y-89690566D01*
X92964008Y-89690568D01*
X93054950Y-89720117D01*
X93188631Y-89763553D01*
X93421903Y-89800500D01*
X93421908Y-89800500D01*
X93658097Y-89800500D01*
X93891368Y-89763553D01*
X94115992Y-89690568D01*
X94326433Y-89583343D01*
X94517510Y-89444517D01*
X94684517Y-89277510D01*
X94709682Y-89242872D01*
X94765011Y-89200207D01*
X94834625Y-89194228D01*
X94896420Y-89226833D01*
X94910315Y-89242870D01*
X94935483Y-89277510D01*
X95102490Y-89444517D01*
X95293567Y-89583343D01*
X95392991Y-89634002D01*
X95504003Y-89690566D01*
X95504005Y-89690566D01*
X95504008Y-89690568D01*
X95594950Y-89720117D01*
X95728631Y-89763553D01*
X95961903Y-89800500D01*
X95961908Y-89800500D01*
X96198097Y-89800500D01*
X96431368Y-89763553D01*
X96655992Y-89690568D01*
X96866433Y-89583343D01*
X97057510Y-89444517D01*
X97224517Y-89277510D01*
X97249682Y-89242872D01*
X97305011Y-89200207D01*
X97374625Y-89194228D01*
X97436420Y-89226833D01*
X97450315Y-89242870D01*
X97475483Y-89277510D01*
X97642490Y-89444517D01*
X97833567Y-89583343D01*
X97932991Y-89634002D01*
X98044003Y-89690566D01*
X98044005Y-89690566D01*
X98044008Y-89690568D01*
X98134950Y-89720117D01*
X98268631Y-89763553D01*
X98501903Y-89800500D01*
X98501908Y-89800500D01*
X98738097Y-89800500D01*
X98971368Y-89763553D01*
X99195992Y-89690568D01*
X99406433Y-89583343D01*
X99597510Y-89444517D01*
X99764517Y-89277510D01*
X99903343Y-89086433D01*
X100010568Y-88875992D01*
X100083553Y-88651368D01*
X100083986Y-88648632D01*
X100120500Y-88418097D01*
X100120500Y-88181902D01*
X100083553Y-87948631D01*
X100010566Y-87724003D01*
X99903342Y-87513566D01*
X99889999Y-87495201D01*
X99764517Y-87322490D01*
X99597510Y-87155483D01*
X99562872Y-87130317D01*
X99520207Y-87074989D01*
X99514228Y-87005375D01*
X99546833Y-86943580D01*
X99562873Y-86929682D01*
X99597510Y-86904517D01*
X99764517Y-86737510D01*
X99903343Y-86546433D01*
X100010568Y-86335992D01*
X100083553Y-86111368D01*
X100083986Y-86108632D01*
X100120500Y-85878097D01*
X100120500Y-85641902D01*
X100083553Y-85408631D01*
X100040595Y-85276421D01*
X100010568Y-85184008D01*
X100010566Y-85184005D01*
X100010566Y-85184003D01*
X99946998Y-85059244D01*
X99903343Y-84973567D01*
X99764517Y-84782490D01*
X99597510Y-84615483D01*
X99406433Y-84476657D01*
X99195996Y-84369433D01*
X98971368Y-84296446D01*
X98738097Y-84259500D01*
X98738092Y-84259500D01*
X98501908Y-84259500D01*
X98501903Y-84259500D01*
X98268631Y-84296446D01*
X98044003Y-84369433D01*
X97833566Y-84476657D01*
X97732619Y-84550000D01*
X97642490Y-84615483D01*
X97642488Y-84615485D01*
X97642487Y-84615485D01*
X97475484Y-84782488D01*
X97450318Y-84817127D01*
X97394987Y-84859792D01*
X97325374Y-84865771D01*
X97263579Y-84833165D01*
X97249682Y-84817127D01*
X97240254Y-84804150D01*
X97224517Y-84782490D01*
X97057510Y-84615483D01*
X96866433Y-84476657D01*
X96655996Y-84369433D01*
X96431368Y-84296446D01*
X96198097Y-84259500D01*
X96198092Y-84259500D01*
X95961908Y-84259500D01*
X95961903Y-84259500D01*
X95728631Y-84296446D01*
X95504003Y-84369433D01*
X95293566Y-84476657D01*
X95192619Y-84550000D01*
X95102490Y-84615483D01*
X95102488Y-84615485D01*
X95102487Y-84615485D01*
X94935484Y-84782488D01*
X94910318Y-84817127D01*
X94854987Y-84859792D01*
X94785374Y-84865771D01*
X94723579Y-84833165D01*
X94709682Y-84817127D01*
X94700254Y-84804150D01*
X94684517Y-84782490D01*
X94517510Y-84615483D01*
X94326433Y-84476657D01*
X94115996Y-84369433D01*
X93891368Y-84296446D01*
X93658097Y-84259500D01*
X93658092Y-84259500D01*
X93421908Y-84259500D01*
X93421903Y-84259500D01*
X93188631Y-84296446D01*
X92964003Y-84369433D01*
X92753566Y-84476657D01*
X92652619Y-84550000D01*
X92562490Y-84615483D01*
X92562488Y-84615485D01*
X92562487Y-84615485D01*
X92395484Y-84782488D01*
X92370318Y-84817127D01*
X92314987Y-84859792D01*
X92245374Y-84865771D01*
X92183579Y-84833165D01*
X92169682Y-84817127D01*
X92160254Y-84804150D01*
X92144517Y-84782490D01*
X91977510Y-84615483D01*
X91786433Y-84476657D01*
X91575996Y-84369433D01*
X91351368Y-84296446D01*
X91118097Y-84259500D01*
X91118092Y-84259500D01*
X90881908Y-84259500D01*
X90881903Y-84259500D01*
X90648631Y-84296446D01*
X90424003Y-84369433D01*
X90213566Y-84476657D01*
X90112619Y-84550000D01*
X90022490Y-84615483D01*
X90022488Y-84615485D01*
X90022487Y-84615485D01*
X89855484Y-84782488D01*
X89830318Y-84817127D01*
X89774987Y-84859792D01*
X89705374Y-84865771D01*
X89643579Y-84833165D01*
X89629682Y-84817127D01*
X89620254Y-84804150D01*
X89604517Y-84782490D01*
X89437510Y-84615483D01*
X89246433Y-84476657D01*
X89035996Y-84369433D01*
X88811368Y-84296446D01*
X88578097Y-84259500D01*
X88578092Y-84259500D01*
X88341908Y-84259500D01*
X88341903Y-84259500D01*
X88108631Y-84296446D01*
X87884003Y-84369433D01*
X87673566Y-84476657D01*
X87572619Y-84550000D01*
X87482490Y-84615483D01*
X87482488Y-84615485D01*
X87482487Y-84615485D01*
X87315484Y-84782488D01*
X87290318Y-84817127D01*
X87234987Y-84859792D01*
X87165374Y-84865771D01*
X87103579Y-84833165D01*
X87089682Y-84817127D01*
X87080254Y-84804150D01*
X87064517Y-84782490D01*
X86897510Y-84615483D01*
X86706433Y-84476657D01*
X86495996Y-84369433D01*
X86271368Y-84296446D01*
X86038097Y-84259500D01*
X86038092Y-84259500D01*
X85801908Y-84259500D01*
X85801903Y-84259500D01*
X85568631Y-84296446D01*
X85344003Y-84369433D01*
X85133566Y-84476657D01*
X85032619Y-84550000D01*
X84942490Y-84615483D01*
X84942488Y-84615485D01*
X84942487Y-84615485D01*
X84775484Y-84782488D01*
X84750318Y-84817127D01*
X84694987Y-84859792D01*
X84625374Y-84865771D01*
X84563579Y-84833165D01*
X84549682Y-84817127D01*
X84540254Y-84804150D01*
X84524517Y-84782490D01*
X84357510Y-84615483D01*
X84166433Y-84476657D01*
X83955996Y-84369433D01*
X83731369Y-84296447D01*
X83594348Y-84274744D01*
X83531214Y-84244814D01*
X83494283Y-84185502D01*
X83495281Y-84115640D01*
X83526064Y-84064592D01*
X84778754Y-82811902D01*
X110799500Y-82811902D01*
X110799500Y-83048097D01*
X110836446Y-83281368D01*
X110909433Y-83505996D01*
X111009987Y-83703342D01*
X111016657Y-83716433D01*
X111155483Y-83907510D01*
X111322490Y-84074517D01*
X111357127Y-84099683D01*
X111399792Y-84155013D01*
X111405771Y-84224626D01*
X111373165Y-84286421D01*
X111357130Y-84300315D01*
X111349302Y-84306003D01*
X111322488Y-84325484D01*
X111155485Y-84492487D01*
X111155485Y-84492488D01*
X111155483Y-84492490D01*
X111095862Y-84574550D01*
X111016657Y-84683566D01*
X110909433Y-84894003D01*
X110836446Y-85118631D01*
X110799500Y-85351902D01*
X110799500Y-85588097D01*
X110836446Y-85821368D01*
X110909433Y-86045996D01*
X110999448Y-86222658D01*
X111016657Y-86256433D01*
X111155483Y-86447510D01*
X111322490Y-86614517D01*
X111513567Y-86753343D01*
X111612991Y-86804002D01*
X111724003Y-86860566D01*
X111724005Y-86860566D01*
X111724008Y-86860568D01*
X111844412Y-86899689D01*
X111948631Y-86933553D01*
X112181903Y-86970500D01*
X112181908Y-86970500D01*
X112418097Y-86970500D01*
X112651368Y-86933553D01*
X112663282Y-86929682D01*
X112875992Y-86860568D01*
X113086433Y-86753343D01*
X113277510Y-86614517D01*
X113444517Y-86447510D01*
X113583343Y-86256433D01*
X113690568Y-86045992D01*
X113763553Y-85821368D01*
X113769129Y-85786163D01*
X113800500Y-85588097D01*
X113800500Y-85351902D01*
X113763553Y-85118631D01*
X113705757Y-84940756D01*
X113690568Y-84894008D01*
X113690566Y-84894005D01*
X113690566Y-84894003D01*
X113633745Y-84782487D01*
X113583343Y-84683567D01*
X113444517Y-84492490D01*
X113277510Y-84325483D01*
X113242872Y-84300317D01*
X113200207Y-84244989D01*
X113194228Y-84175375D01*
X113226833Y-84113580D01*
X113242873Y-84099682D01*
X113277510Y-84074517D01*
X113444517Y-83907510D01*
X113583343Y-83716433D01*
X113690568Y-83505992D01*
X113763553Y-83281368D01*
X113772852Y-83222658D01*
X113800500Y-83048097D01*
X113800500Y-82811902D01*
X113763553Y-82578631D01*
X113721758Y-82450000D01*
X113690568Y-82354008D01*
X113690566Y-82354005D01*
X113690566Y-82354003D01*
X113601547Y-82179295D01*
X113583343Y-82143567D01*
X113444517Y-81952490D01*
X113277510Y-81785483D01*
X113086433Y-81646657D01*
X113073191Y-81639910D01*
X112875996Y-81539433D01*
X112651368Y-81466446D01*
X112418097Y-81429500D01*
X112418092Y-81429500D01*
X112181908Y-81429500D01*
X112181903Y-81429500D01*
X111948631Y-81466446D01*
X111724003Y-81539433D01*
X111513566Y-81646657D01*
X111426837Y-81709670D01*
X111322490Y-81785483D01*
X111322488Y-81785485D01*
X111322487Y-81785485D01*
X111155485Y-81952487D01*
X111155485Y-81952488D01*
X111155483Y-81952490D01*
X111120966Y-81999999D01*
X111016657Y-82143566D01*
X110909433Y-82354003D01*
X110836446Y-82578631D01*
X110799500Y-82811902D01*
X84778754Y-82811902D01*
X91773838Y-75816819D01*
X91835161Y-75783334D01*
X91861519Y-75780500D01*
X93196883Y-75780500D01*
X93263922Y-75800185D01*
X93307367Y-75848203D01*
X93316656Y-75866433D01*
X93455482Y-76057510D01*
X93622489Y-76224517D01*
X93657126Y-76249683D01*
X93699791Y-76305013D01*
X93705770Y-76374626D01*
X93673164Y-76436421D01*
X93657129Y-76450315D01*
X93639364Y-76463222D01*
X93622487Y-76475484D01*
X93455484Y-76642487D01*
X93455484Y-76642488D01*
X93455482Y-76642490D01*
X93452824Y-76646149D01*
X93316656Y-76833566D01*
X93209432Y-77044003D01*
X93136445Y-77268631D01*
X93099499Y-77501902D01*
X93099499Y-77738097D01*
X93136445Y-77971368D01*
X93209432Y-78195996D01*
X93316656Y-78406433D01*
X93455482Y-78597510D01*
X93622489Y-78764517D01*
X93813566Y-78903343D01*
X93912990Y-78954002D01*
X94024002Y-79010566D01*
X94024004Y-79010566D01*
X94024007Y-79010568D01*
X94144411Y-79049689D01*
X94248630Y-79083553D01*
X94481902Y-79120500D01*
X94481907Y-79120500D01*
X94718096Y-79120500D01*
X94951367Y-79083553D01*
X95175991Y-79010568D01*
X95386432Y-78903343D01*
X95577509Y-78764517D01*
X95744516Y-78597510D01*
X95883342Y-78406433D01*
X95990567Y-78195992D01*
X96063552Y-77971368D01*
X96076230Y-77891322D01*
X96100499Y-77738097D01*
X96100499Y-77501902D01*
X96063552Y-77268631D01*
X96003809Y-77084762D01*
X95990567Y-77044008D01*
X95990565Y-77044005D01*
X95990565Y-77044003D01*
X95902857Y-76871867D01*
X95883342Y-76833567D01*
X95744516Y-76642490D01*
X95577509Y-76475483D01*
X95542871Y-76450317D01*
X95500206Y-76394989D01*
X95494227Y-76325375D01*
X95526832Y-76263580D01*
X95542872Y-76249682D01*
X95577509Y-76224517D01*
X95744516Y-76057510D01*
X95883342Y-75866433D01*
X95990567Y-75655992D01*
X96063552Y-75431368D01*
X96078664Y-75335953D01*
X96100499Y-75198097D01*
X96100499Y-74961902D01*
X96063552Y-74728631D01*
X95990565Y-74504003D01*
X95918512Y-74362592D01*
X95883342Y-74293567D01*
X95744516Y-74102490D01*
X95577509Y-73935483D01*
X95518281Y-73892451D01*
X95475616Y-73837122D01*
X95467549Y-73782404D01*
X95469103Y-73762657D01*
X94688583Y-72982138D01*
X94773693Y-72959333D01*
X94876305Y-72900090D01*
X94960089Y-72816306D01*
X95019332Y-72713694D01*
X95042137Y-72628585D01*
X95822657Y-73409105D01*
X95822657Y-73409104D01*
X95882913Y-73326169D01*
X95882917Y-73326163D01*
X95990101Y-73115802D01*
X96063064Y-72891247D01*
X96099999Y-72658052D01*
X96099999Y-72421947D01*
X96063064Y-72188752D01*
X95990101Y-71964197D01*
X95882913Y-71753828D01*
X95822657Y-71670894D01*
X95822657Y-71670893D01*
X95042136Y-72451414D01*
X95019332Y-72366306D01*
X94960089Y-72263694D01*
X94876305Y-72179910D01*
X94773693Y-72120667D01*
X94688583Y-72097861D01*
X95469104Y-71317340D01*
X95467550Y-71297594D01*
X95481914Y-71229216D01*
X95518283Y-71187547D01*
X95577509Y-71144517D01*
X95744516Y-70977510D01*
X95883342Y-70786433D01*
X95990567Y-70575992D01*
X96063552Y-70351368D01*
X96083409Y-70225996D01*
X96100499Y-70118097D01*
X96100499Y-69881902D01*
X96063552Y-69648631D01*
X95990565Y-69424003D01*
X95883341Y-69213566D01*
X95744516Y-69022490D01*
X95577509Y-68855483D01*
X95386432Y-68716657D01*
X95175995Y-68609433D01*
X94951367Y-68536446D01*
X94718096Y-68499500D01*
X94718091Y-68499500D01*
X94481907Y-68499500D01*
X94481902Y-68499500D01*
X94248630Y-68536446D01*
X94024002Y-68609433D01*
X93813565Y-68716657D01*
X93704549Y-68795862D01*
X93622489Y-68855483D01*
X93622487Y-68855485D01*
X93622486Y-68855485D01*
X93455484Y-69022487D01*
X93455484Y-69022488D01*
X93455482Y-69022490D01*
X93418052Y-69074008D01*
X93316656Y-69213566D01*
X93209432Y-69424003D01*
X93136445Y-69648631D01*
X93099499Y-69881902D01*
X93099499Y-70118097D01*
X93136445Y-70351368D01*
X93209432Y-70575996D01*
X93316656Y-70786433D01*
X93455482Y-70977510D01*
X93622489Y-71144517D01*
X93681715Y-71187547D01*
X93724380Y-71242875D01*
X93732447Y-71297593D01*
X93730892Y-71317340D01*
X94511414Y-72097861D01*
X94426305Y-72120667D01*
X94323693Y-72179910D01*
X94239909Y-72263694D01*
X94180666Y-72366306D01*
X94157860Y-72451415D01*
X93377339Y-71670894D01*
X93317083Y-71753830D01*
X93209896Y-71964197D01*
X93136933Y-72188752D01*
X93099999Y-72421947D01*
X93099999Y-72658052D01*
X93136933Y-72891247D01*
X93209896Y-73115802D01*
X93317086Y-73326174D01*
X93377337Y-73409104D01*
X93377339Y-73409105D01*
X94157860Y-72628584D01*
X94180666Y-72713694D01*
X94239909Y-72816306D01*
X94323693Y-72900090D01*
X94426305Y-72959333D01*
X94511414Y-72982138D01*
X93730892Y-73762658D01*
X93732447Y-73782405D01*
X93718083Y-73850783D01*
X93681716Y-73892451D01*
X93622489Y-73935482D01*
X93455484Y-74102487D01*
X93455484Y-74102488D01*
X93455482Y-74102490D01*
X93395861Y-74184550D01*
X93316656Y-74293566D01*
X93307367Y-74311797D01*
X93259391Y-74362592D01*
X93196883Y-74379500D01*
X91451004Y-74379500D01*
X91315677Y-74406418D01*
X91315667Y-74406421D01*
X91188192Y-74459222D01*
X91073454Y-74535887D01*
X81336823Y-84272518D01*
X81275500Y-84306003D01*
X81210824Y-84302768D01*
X81191370Y-84296447D01*
X80958097Y-84259500D01*
X80958092Y-84259500D01*
X80721908Y-84259500D01*
X80721903Y-84259500D01*
X80488631Y-84296446D01*
X80264003Y-84369433D01*
X80053566Y-84476657D01*
X79952619Y-84550000D01*
X79862490Y-84615483D01*
X79862488Y-84615485D01*
X79862487Y-84615485D01*
X79695485Y-84782487D01*
X79695485Y-84782488D01*
X79695483Y-84782490D01*
X79639320Y-84859792D01*
X79556657Y-84973566D01*
X79449433Y-85184003D01*
X79376446Y-85408631D01*
X79339500Y-85641902D01*
X65856424Y-85641902D01*
X65887587Y-85580741D01*
X65887587Y-85580740D01*
X65890102Y-85575803D01*
X65963065Y-85351247D01*
X66000000Y-85118052D01*
X66000000Y-84881947D01*
X65963065Y-84648752D01*
X65890102Y-84424197D01*
X65782914Y-84213828D01*
X65722658Y-84130894D01*
X65722658Y-84130893D01*
X64942137Y-84911414D01*
X64919333Y-84826306D01*
X64860090Y-84723694D01*
X64776306Y-84639910D01*
X64673694Y-84580667D01*
X64588584Y-84557861D01*
X65369105Y-83777340D01*
X65369104Y-83777338D01*
X65286174Y-83717087D01*
X65075802Y-83609897D01*
X64851247Y-83536934D01*
X64851248Y-83536934D01*
X64618052Y-83500000D01*
X64381948Y-83500000D01*
X64148752Y-83536934D01*
X63924197Y-83609897D01*
X63713830Y-83717084D01*
X63630894Y-83777340D01*
X64411415Y-84557861D01*
X64326306Y-84580667D01*
X64223694Y-84639910D01*
X64139910Y-84723694D01*
X64080667Y-84826306D01*
X64057861Y-84911414D01*
X63277340Y-84130893D01*
X63257593Y-84132448D01*
X63253860Y-84131663D01*
X63250222Y-84132808D01*
X63219936Y-84124537D01*
X63189215Y-84118084D01*
X63185429Y-84115114D01*
X63182821Y-84114402D01*
X63173431Y-84105701D01*
X63155712Y-84091800D01*
X63151370Y-84086978D01*
X63104517Y-84022490D01*
X62937510Y-83855483D01*
X62746433Y-83716657D01*
X62720301Y-83703342D01*
X62535996Y-83609433D01*
X62311368Y-83536446D01*
X62078097Y-83499500D01*
X62078092Y-83499500D01*
X61841908Y-83499500D01*
X61841903Y-83499500D01*
X61608631Y-83536446D01*
X61384003Y-83609433D01*
X61173566Y-83716657D01*
X61090047Y-83777338D01*
X60982490Y-83855483D01*
X60982488Y-83855485D01*
X60982487Y-83855485D01*
X60815485Y-84022487D01*
X60815485Y-84022488D01*
X60815483Y-84022490D01*
X60777685Y-84074514D01*
X60676657Y-84213566D01*
X60569433Y-84424003D01*
X60496446Y-84648631D01*
X60459500Y-84881902D01*
X54155857Y-84881902D01*
X54283343Y-84706433D01*
X54390568Y-84495992D01*
X54463553Y-84271368D01*
X54470956Y-84224626D01*
X54500500Y-84038097D01*
X54500500Y-83801902D01*
X54463553Y-83568631D01*
X54424966Y-83449875D01*
X54390568Y-83344008D01*
X54390566Y-83344005D01*
X54390566Y-83344003D01*
X54288922Y-83144517D01*
X54283343Y-83133567D01*
X54144517Y-82942490D01*
X53977510Y-82775483D01*
X53786433Y-82636657D01*
X53765808Y-82626148D01*
X53575996Y-82529433D01*
X53351368Y-82456446D01*
X53118154Y-82419509D01*
X53118153Y-82419509D01*
X53118096Y-82419500D01*
X53118092Y-82419500D01*
X52881908Y-82419500D01*
X52881903Y-82419500D01*
X52648631Y-82456446D01*
X52424003Y-82529433D01*
X52213566Y-82636657D01*
X52125066Y-82700957D01*
X52022490Y-82775483D01*
X52022488Y-82775485D01*
X52022487Y-82775485D01*
X51855485Y-82942487D01*
X51855485Y-82942488D01*
X51855483Y-82942490D01*
X51795862Y-83024550D01*
X51716657Y-83133566D01*
X51609433Y-83344003D01*
X51536446Y-83568631D01*
X51499500Y-83801902D01*
X50500500Y-83801902D01*
X50500500Y-82301902D01*
X55999500Y-82301902D01*
X55999500Y-82538097D01*
X56036446Y-82771368D01*
X56109433Y-82995996D01*
X56185109Y-83144517D01*
X56216657Y-83206433D01*
X56355483Y-83397510D01*
X56522490Y-83564517D01*
X56713567Y-83703343D01*
X56812991Y-83754002D01*
X56924003Y-83810566D01*
X56924005Y-83810566D01*
X56924008Y-83810568D01*
X57044412Y-83849689D01*
X57148631Y-83883553D01*
X57381903Y-83920500D01*
X57381908Y-83920500D01*
X57618097Y-83920500D01*
X57851368Y-83883553D01*
X57889017Y-83871320D01*
X58075992Y-83810568D01*
X58286433Y-83703343D01*
X58477510Y-83564517D01*
X58644517Y-83397510D01*
X58783343Y-83206433D01*
X58890568Y-82995992D01*
X58963553Y-82771368D01*
X58981751Y-82656472D01*
X59000500Y-82538097D01*
X59000500Y-82301903D01*
X58981080Y-82179295D01*
X58981080Y-82179294D01*
X58980193Y-82173694D01*
X58978649Y-82163947D01*
X67929500Y-82163947D01*
X67929500Y-82396052D01*
X67959794Y-82626148D01*
X68019862Y-82850328D01*
X68108677Y-83064745D01*
X68108685Y-83064762D01*
X68224720Y-83265743D01*
X68224721Y-83265745D01*
X68366009Y-83449875D01*
X68366015Y-83449882D01*
X68530117Y-83613984D01*
X68530124Y-83613990D01*
X68714254Y-83755278D01*
X68714256Y-83755279D01*
X68915237Y-83871314D01*
X68915240Y-83871315D01*
X68915248Y-83871320D01*
X69129670Y-83960137D01*
X69353851Y-84020206D01*
X69583955Y-84050500D01*
X69583962Y-84050500D01*
X69816038Y-84050500D01*
X69816045Y-84050500D01*
X70046149Y-84020206D01*
X70270330Y-83960137D01*
X70484752Y-83871320D01*
X70685748Y-83755276D01*
X70869877Y-83613989D01*
X71033989Y-83449877D01*
X71175276Y-83265748D01*
X71200154Y-83222658D01*
X71263234Y-83113400D01*
X71263234Y-83113399D01*
X71291318Y-83064755D01*
X71291320Y-83064752D01*
X71380137Y-82850330D01*
X71410137Y-82738364D01*
X71446500Y-82678708D01*
X71509347Y-82648178D01*
X71578723Y-82656472D01*
X71632601Y-82700957D01*
X71640395Y-82714165D01*
X71677085Y-82786172D01*
X71737338Y-82869104D01*
X71737340Y-82869105D01*
X72517861Y-82088584D01*
X72540667Y-82173694D01*
X72599910Y-82276306D01*
X72683694Y-82360090D01*
X72786306Y-82419333D01*
X72871415Y-82442138D01*
X72090893Y-83222658D01*
X72173828Y-83282914D01*
X72384197Y-83390102D01*
X72608752Y-83463065D01*
X72608751Y-83463065D01*
X72841948Y-83500000D01*
X73078052Y-83500000D01*
X73311247Y-83463065D01*
X73535802Y-83390102D01*
X73746163Y-83282918D01*
X73746169Y-83282914D01*
X73829104Y-83222658D01*
X73829105Y-83222658D01*
X73048584Y-82442138D01*
X73133694Y-82419333D01*
X73236306Y-82360090D01*
X73320090Y-82276306D01*
X73379333Y-82173694D01*
X73402138Y-82088585D01*
X74182657Y-82869104D01*
X74202404Y-82867550D01*
X74270781Y-82881914D01*
X74312451Y-82918282D01*
X74355483Y-82977510D01*
X74522490Y-83144517D01*
X74713567Y-83283343D01*
X74812991Y-83334002D01*
X74924003Y-83390566D01*
X74924005Y-83390566D01*
X74924008Y-83390568D01*
X75044412Y-83429689D01*
X75148631Y-83463553D01*
X75381903Y-83500500D01*
X75381908Y-83500500D01*
X75618097Y-83500500D01*
X75851368Y-83463553D01*
X75852870Y-83463065D01*
X76075992Y-83390568D01*
X76286433Y-83283343D01*
X76477510Y-83144517D01*
X76644517Y-82977510D01*
X76669682Y-82942872D01*
X76725011Y-82900207D01*
X76794625Y-82894228D01*
X76856420Y-82926833D01*
X76870315Y-82942870D01*
X76895483Y-82977510D01*
X77062490Y-83144517D01*
X77253567Y-83283343D01*
X77352991Y-83334002D01*
X77464003Y-83390566D01*
X77464005Y-83390566D01*
X77464008Y-83390568D01*
X77584412Y-83429689D01*
X77688631Y-83463553D01*
X77921903Y-83500500D01*
X77921908Y-83500500D01*
X78158097Y-83500500D01*
X78391368Y-83463553D01*
X78392870Y-83463065D01*
X78615992Y-83390568D01*
X78826433Y-83283343D01*
X79017510Y-83144517D01*
X79184517Y-82977510D01*
X79209682Y-82942872D01*
X79265011Y-82900207D01*
X79334625Y-82894228D01*
X79396420Y-82926833D01*
X79410315Y-82942870D01*
X79435483Y-82977510D01*
X79602490Y-83144517D01*
X79793567Y-83283343D01*
X79892991Y-83334002D01*
X80004003Y-83390566D01*
X80004005Y-83390566D01*
X80004008Y-83390568D01*
X80124412Y-83429689D01*
X80228631Y-83463553D01*
X80461903Y-83500500D01*
X80461908Y-83500500D01*
X80698097Y-83500500D01*
X80931368Y-83463553D01*
X80932870Y-83463065D01*
X81155992Y-83390568D01*
X81366433Y-83283343D01*
X81557510Y-83144517D01*
X81724517Y-82977510D01*
X81863343Y-82786433D01*
X81970568Y-82575992D01*
X82043553Y-82351368D01*
X82051387Y-82301908D01*
X82080500Y-82118097D01*
X82080500Y-81881902D01*
X82043553Y-81648631D01*
X81976573Y-81442490D01*
X81970568Y-81424008D01*
X81970566Y-81424005D01*
X81970566Y-81424003D01*
X81863342Y-81213566D01*
X81803277Y-81130894D01*
X81724517Y-81022490D01*
X81557510Y-80855483D01*
X81366433Y-80716657D01*
X81311535Y-80688685D01*
X81155996Y-80609433D01*
X80931368Y-80536446D01*
X80698097Y-80499500D01*
X80698092Y-80499500D01*
X80461908Y-80499500D01*
X80461903Y-80499500D01*
X80228631Y-80536446D01*
X80004003Y-80609433D01*
X79793566Y-80716657D01*
X79710047Y-80777338D01*
X79602490Y-80855483D01*
X79602488Y-80855485D01*
X79602487Y-80855485D01*
X79435484Y-81022488D01*
X79410318Y-81057127D01*
X79354987Y-81099792D01*
X79285374Y-81105771D01*
X79223579Y-81073165D01*
X79209682Y-81057127D01*
X79189561Y-81029433D01*
X79184517Y-81022490D01*
X79017510Y-80855483D01*
X78826433Y-80716657D01*
X78771535Y-80688685D01*
X78615996Y-80609433D01*
X78391368Y-80536446D01*
X78158097Y-80499500D01*
X78158092Y-80499500D01*
X77921908Y-80499500D01*
X77921903Y-80499500D01*
X77688631Y-80536446D01*
X77464003Y-80609433D01*
X77253566Y-80716657D01*
X77170047Y-80777338D01*
X77062490Y-80855483D01*
X77062488Y-80855485D01*
X77062487Y-80855485D01*
X76895484Y-81022488D01*
X76870318Y-81057127D01*
X76814987Y-81099792D01*
X76745374Y-81105771D01*
X76683579Y-81073165D01*
X76669682Y-81057127D01*
X76649561Y-81029433D01*
X76644517Y-81022490D01*
X76477510Y-80855483D01*
X76286433Y-80716657D01*
X76231535Y-80688685D01*
X76075996Y-80609433D01*
X75851368Y-80536446D01*
X75618097Y-80499500D01*
X75618092Y-80499500D01*
X75381908Y-80499500D01*
X75381903Y-80499500D01*
X75148631Y-80536446D01*
X74924003Y-80609433D01*
X74713566Y-80716657D01*
X74630047Y-80777338D01*
X74522490Y-80855483D01*
X74522488Y-80855485D01*
X74522487Y-80855485D01*
X74355482Y-81022490D01*
X74312451Y-81081717D01*
X74257120Y-81124382D01*
X74202405Y-81132448D01*
X74182658Y-81130893D01*
X73402137Y-81911414D01*
X73379333Y-81826306D01*
X73320090Y-81723694D01*
X73236306Y-81639910D01*
X73133694Y-81580667D01*
X73048584Y-81557861D01*
X73829105Y-80777340D01*
X73829104Y-80777338D01*
X73746174Y-80717087D01*
X73535802Y-80609897D01*
X73311247Y-80536934D01*
X73311248Y-80536934D01*
X73078052Y-80500000D01*
X72841948Y-80500000D01*
X72608752Y-80536934D01*
X72384197Y-80609897D01*
X72173830Y-80717084D01*
X72090894Y-80777340D01*
X72871415Y-81557861D01*
X72786306Y-81580667D01*
X72683694Y-81639910D01*
X72599910Y-81723694D01*
X72540667Y-81826306D01*
X72517861Y-81911415D01*
X71737340Y-81130894D01*
X71677084Y-81213830D01*
X71569897Y-81424195D01*
X71538364Y-81521245D01*
X71498926Y-81578920D01*
X71434567Y-81606118D01*
X71365721Y-81594203D01*
X71314245Y-81546959D01*
X71305872Y-81530379D01*
X71291322Y-81495254D01*
X71291320Y-81495248D01*
X71274692Y-81466447D01*
X71175279Y-81294256D01*
X71175278Y-81294254D01*
X71033990Y-81110124D01*
X71033984Y-81110117D01*
X70869882Y-80946015D01*
X70869872Y-80946007D01*
X70839856Y-80922974D01*
X70685745Y-80804721D01*
X70685743Y-80804720D01*
X70484762Y-80688685D01*
X70484754Y-80688681D01*
X70484752Y-80688680D01*
X70293434Y-80609433D01*
X70270328Y-80599862D01*
X70112083Y-80557461D01*
X70046149Y-80539794D01*
X70017386Y-80536007D01*
X69816052Y-80509500D01*
X69816045Y-80509500D01*
X69583955Y-80509500D01*
X69583947Y-80509500D01*
X69353851Y-80539794D01*
X69129671Y-80599862D01*
X68915254Y-80688677D01*
X68915237Y-80688685D01*
X68714256Y-80804720D01*
X68714254Y-80804721D01*
X68530124Y-80946009D01*
X68530117Y-80946015D01*
X68366015Y-81110117D01*
X68366009Y-81110124D01*
X68224721Y-81294254D01*
X68224720Y-81294256D01*
X68108685Y-81495237D01*
X68108677Y-81495254D01*
X68019862Y-81709671D01*
X67959794Y-81933851D01*
X67929500Y-82163947D01*
X58978649Y-82163947D01*
X58963553Y-82068632D01*
X58890568Y-81844008D01*
X58890566Y-81844005D01*
X58890566Y-81844003D01*
X58791018Y-81648631D01*
X58783343Y-81633567D01*
X58644517Y-81442490D01*
X58477510Y-81275483D01*
X58286433Y-81136657D01*
X58278172Y-81132448D01*
X58075996Y-81029433D01*
X57851368Y-80956446D01*
X57618097Y-80919500D01*
X57618092Y-80919500D01*
X57381908Y-80919500D01*
X57381903Y-80919500D01*
X57148631Y-80956446D01*
X56924003Y-81029433D01*
X56713566Y-81136657D01*
X56632988Y-81195201D01*
X56522490Y-81275483D01*
X56522488Y-81275485D01*
X56522487Y-81275485D01*
X56355485Y-81442487D01*
X56355485Y-81442488D01*
X56355483Y-81442490D01*
X56317160Y-81495237D01*
X56216657Y-81633566D01*
X56109433Y-81844003D01*
X56036446Y-82068631D01*
X55999500Y-82301902D01*
X50500500Y-82301902D01*
X50500500Y-80624500D01*
X50520185Y-80557461D01*
X50572989Y-80511706D01*
X50624500Y-80500500D01*
X67565890Y-80500500D01*
X67565892Y-80500500D01*
X67693186Y-80466392D01*
X67807314Y-80400500D01*
X67900500Y-80307314D01*
X67966392Y-80193186D01*
X68000500Y-80065892D01*
X68000500Y-77384890D01*
X68020185Y-77317851D01*
X68072989Y-77272096D01*
X68142147Y-77262152D01*
X68205703Y-77291177D01*
X68222875Y-77309403D01*
X68250112Y-77344899D01*
X68346009Y-77469875D01*
X68346015Y-77469882D01*
X68510117Y-77633984D01*
X68510124Y-77633990D01*
X68694254Y-77775278D01*
X68694256Y-77775279D01*
X68895237Y-77891314D01*
X68895240Y-77891315D01*
X68895248Y-77891320D01*
X69109670Y-77980137D01*
X69333851Y-78040206D01*
X69563955Y-78070500D01*
X69563962Y-78070500D01*
X69796038Y-78070500D01*
X69796045Y-78070500D01*
X70026149Y-78040206D01*
X70250330Y-77980137D01*
X70464752Y-77891320D01*
X70665748Y-77775276D01*
X70849877Y-77633989D01*
X71013989Y-77469877D01*
X71155276Y-77285748D01*
X71271320Y-77084752D01*
X71360137Y-76870330D01*
X71420206Y-76646149D01*
X71450500Y-76416045D01*
X71450500Y-76183955D01*
X71450499Y-76183947D01*
X76519500Y-76183947D01*
X76519500Y-76416052D01*
X76549794Y-76646148D01*
X76609862Y-76870328D01*
X76698677Y-77084745D01*
X76698685Y-77084762D01*
X76814720Y-77285743D01*
X76814721Y-77285745D01*
X76956009Y-77469875D01*
X76956015Y-77469882D01*
X77120117Y-77633984D01*
X77120124Y-77633990D01*
X77304254Y-77775278D01*
X77304256Y-77775279D01*
X77505237Y-77891314D01*
X77505240Y-77891315D01*
X77505248Y-77891320D01*
X77719670Y-77980137D01*
X77943851Y-78040206D01*
X78173955Y-78070500D01*
X78173962Y-78070500D01*
X78406038Y-78070500D01*
X78406045Y-78070500D01*
X78636149Y-78040206D01*
X78860330Y-77980137D01*
X79074752Y-77891320D01*
X79275748Y-77775276D01*
X79459877Y-77633989D01*
X79623989Y-77469877D01*
X79765276Y-77285748D01*
X79881320Y-77084752D01*
X79970137Y-76870330D01*
X80030206Y-76646149D01*
X80060500Y-76416045D01*
X80060500Y-76183955D01*
X80030206Y-75953851D01*
X79970137Y-75729670D01*
X79881320Y-75515248D01*
X79881314Y-75515237D01*
X79765279Y-75314256D01*
X79765278Y-75314254D01*
X79623990Y-75130124D01*
X79623984Y-75130117D01*
X79459882Y-74966015D01*
X79459875Y-74966009D01*
X79275745Y-74824721D01*
X79275743Y-74824720D01*
X79074762Y-74708685D01*
X79074754Y-74708681D01*
X79074752Y-74708680D01*
X78860330Y-74619863D01*
X78860331Y-74619863D01*
X78860328Y-74619862D01*
X78718203Y-74581780D01*
X78636149Y-74559794D01*
X78607386Y-74556007D01*
X78406052Y-74529500D01*
X78406045Y-74529500D01*
X78173955Y-74529500D01*
X78173947Y-74529500D01*
X77943851Y-74559794D01*
X77719671Y-74619862D01*
X77505254Y-74708677D01*
X77505237Y-74708685D01*
X77304256Y-74824720D01*
X77304254Y-74824721D01*
X77120124Y-74966009D01*
X77120117Y-74966015D01*
X76956015Y-75130117D01*
X76956009Y-75130124D01*
X76814721Y-75314254D01*
X76814720Y-75314256D01*
X76698685Y-75515237D01*
X76698677Y-75515254D01*
X76609862Y-75729671D01*
X76549794Y-75953851D01*
X76519500Y-76183947D01*
X71450499Y-76183947D01*
X71420206Y-75953851D01*
X71360137Y-75729670D01*
X71271320Y-75515248D01*
X71271314Y-75515237D01*
X71155279Y-75314256D01*
X71155278Y-75314254D01*
X71013990Y-75130124D01*
X71013984Y-75130117D01*
X70849882Y-74966015D01*
X70849875Y-74966009D01*
X70665745Y-74824721D01*
X70665743Y-74824720D01*
X70464762Y-74708685D01*
X70464754Y-74708681D01*
X70464752Y-74708680D01*
X70250330Y-74619863D01*
X70250331Y-74619863D01*
X70250328Y-74619862D01*
X70108203Y-74581780D01*
X70026149Y-74559794D01*
X69997386Y-74556007D01*
X69796052Y-74529500D01*
X69796045Y-74529500D01*
X69563955Y-74529500D01*
X69563947Y-74529500D01*
X69333851Y-74559794D01*
X69109671Y-74619862D01*
X68895254Y-74708677D01*
X68895237Y-74708685D01*
X68694256Y-74824720D01*
X68694254Y-74824721D01*
X68510124Y-74966009D01*
X68510117Y-74966015D01*
X68346015Y-75130117D01*
X68346009Y-75130124D01*
X68222876Y-75290595D01*
X68166448Y-75331798D01*
X68096702Y-75335953D01*
X68035782Y-75301741D01*
X68003029Y-75240023D01*
X68000500Y-75215109D01*
X68000500Y-61641902D01*
X71499500Y-61641902D01*
X71499500Y-61878097D01*
X71536446Y-62111368D01*
X71609433Y-62335996D01*
X71643442Y-62402741D01*
X71716657Y-62546433D01*
X71855483Y-62737510D01*
X72022490Y-62904517D01*
X72057127Y-62929683D01*
X72099792Y-62985013D01*
X72105771Y-63054626D01*
X72073165Y-63116421D01*
X72057130Y-63130315D01*
X72039365Y-63143222D01*
X72022488Y-63155484D01*
X71855485Y-63322487D01*
X71855485Y-63322488D01*
X71855483Y-63322490D01*
X71809034Y-63386421D01*
X71716657Y-63513566D01*
X71609433Y-63724003D01*
X71536446Y-63948631D01*
X71499500Y-64181902D01*
X71499500Y-64418097D01*
X71536446Y-64651368D01*
X71609433Y-64875996D01*
X71643442Y-64942741D01*
X71716657Y-65086433D01*
X71855483Y-65277510D01*
X72022490Y-65444517D01*
X72213567Y-65583343D01*
X72264903Y-65609500D01*
X72424003Y-65690566D01*
X72424005Y-65690566D01*
X72424008Y-65690568D01*
X72512842Y-65719432D01*
X72648631Y-65763553D01*
X72881903Y-65800500D01*
X72881908Y-65800500D01*
X73118097Y-65800500D01*
X73351368Y-65763553D01*
X73575992Y-65690568D01*
X73786433Y-65583343D01*
X73977510Y-65444517D01*
X74144517Y-65277510D01*
X74283343Y-65086433D01*
X74390568Y-64875992D01*
X74463553Y-64651368D01*
X74468100Y-64622661D01*
X74498968Y-64427770D01*
X74498982Y-64427679D01*
X74500500Y-64418093D01*
X74500500Y-64181902D01*
X74463553Y-63948631D01*
X74409920Y-63783567D01*
X74390568Y-63724008D01*
X74390566Y-63724005D01*
X74390566Y-63724003D01*
X74283342Y-63513566D01*
X74219347Y-63425485D01*
X74144517Y-63322490D01*
X73977510Y-63155483D01*
X73942872Y-63130317D01*
X73900207Y-63074989D01*
X73894228Y-63005375D01*
X73926833Y-62943580D01*
X73942873Y-62929682D01*
X73977510Y-62904517D01*
X74144517Y-62737510D01*
X74283343Y-62546433D01*
X74390568Y-62335992D01*
X74463553Y-62111368D01*
X74468100Y-62082661D01*
X74498968Y-61887770D01*
X74498982Y-61887679D01*
X74500500Y-61878093D01*
X74500500Y-61641902D01*
X74463553Y-61408631D01*
X74409920Y-61243567D01*
X74390568Y-61184008D01*
X74390566Y-61184005D01*
X74390566Y-61184003D01*
X74323555Y-61052487D01*
X74283343Y-60973567D01*
X74144517Y-60782490D01*
X73977510Y-60615483D01*
X73786433Y-60476657D01*
X73768481Y-60467510D01*
X73575996Y-60369433D01*
X73351368Y-60296446D01*
X73118097Y-60259500D01*
X73118092Y-60259500D01*
X72881908Y-60259500D01*
X72881903Y-60259500D01*
X72648631Y-60296446D01*
X72424003Y-60369433D01*
X72213566Y-60476657D01*
X72140835Y-60529500D01*
X72022490Y-60615483D01*
X72022488Y-60615485D01*
X72022487Y-60615485D01*
X71855485Y-60782487D01*
X71855485Y-60782488D01*
X71855483Y-60782490D01*
X71795862Y-60864550D01*
X71716657Y-60973566D01*
X71609433Y-61184003D01*
X71536446Y-61408631D01*
X71499500Y-61641902D01*
X68000500Y-61641902D01*
X68000500Y-52883994D01*
X68730000Y-52883994D01*
X68730000Y-53116005D01*
X68730001Y-53116022D01*
X68760283Y-53346040D01*
X68760286Y-53346053D01*
X68820336Y-53570167D01*
X68909124Y-53784521D01*
X68909132Y-53784538D01*
X69025136Y-53985461D01*
X69025142Y-53985469D01*
X69084117Y-54062327D01*
X69637425Y-53509019D01*
X69723249Y-53637463D01*
X69862537Y-53776751D01*
X69990979Y-53862573D01*
X69437671Y-54415881D01*
X69514530Y-54474857D01*
X69514538Y-54474863D01*
X69715461Y-54590867D01*
X69715478Y-54590875D01*
X69929832Y-54679663D01*
X70153946Y-54739713D01*
X70153959Y-54739716D01*
X70383977Y-54769998D01*
X70383995Y-54770000D01*
X70616005Y-54770000D01*
X70616022Y-54769998D01*
X70846040Y-54739716D01*
X70846053Y-54739713D01*
X71070167Y-54679663D01*
X71284521Y-54590875D01*
X71284538Y-54590867D01*
X71485475Y-54474855D01*
X71562327Y-54415883D01*
X71562327Y-54415880D01*
X71521164Y-54374717D01*
X71438349Y-54291902D01*
X77489500Y-54291902D01*
X77489500Y-54528097D01*
X77526446Y-54761368D01*
X77599433Y-54985996D01*
X77706657Y-55196433D01*
X77845483Y-55387510D01*
X78012490Y-55554517D01*
X78047127Y-55579683D01*
X78089792Y-55635013D01*
X78095771Y-55704626D01*
X78063165Y-55766421D01*
X78047130Y-55780315D01*
X78029365Y-55793222D01*
X78012488Y-55805484D01*
X77845485Y-55972487D01*
X77845485Y-55972488D01*
X77845483Y-55972490D01*
X77785862Y-56054550D01*
X77706657Y-56163566D01*
X77599433Y-56374003D01*
X77526446Y-56598631D01*
X77489500Y-56831902D01*
X77489500Y-57068097D01*
X77526446Y-57301368D01*
X77599433Y-57525996D01*
X77706657Y-57736433D01*
X77845483Y-57927510D01*
X78012490Y-58094517D01*
X78047127Y-58119683D01*
X78089792Y-58175013D01*
X78095771Y-58244626D01*
X78063165Y-58306421D01*
X78047130Y-58320315D01*
X78029365Y-58333222D01*
X78012488Y-58345484D01*
X77845485Y-58512487D01*
X77845485Y-58512488D01*
X77845483Y-58512490D01*
X77785862Y-58594550D01*
X77706657Y-58703566D01*
X77599433Y-58914003D01*
X77526446Y-59138631D01*
X77489500Y-59371902D01*
X77489500Y-59608097D01*
X77526446Y-59841368D01*
X77599433Y-60065996D01*
X77698029Y-60259500D01*
X77706657Y-60276433D01*
X77845483Y-60467510D01*
X78012490Y-60634517D01*
X78071716Y-60677547D01*
X78114381Y-60732875D01*
X78122448Y-60787593D01*
X78120893Y-60807340D01*
X78943554Y-61630000D01*
X78937339Y-61630000D01*
X78835606Y-61657259D01*
X78744394Y-61709920D01*
X78669920Y-61784394D01*
X78617259Y-61875606D01*
X78590000Y-61977339D01*
X78590000Y-61983554D01*
X77767340Y-61160894D01*
X77707084Y-61243830D01*
X77599897Y-61454197D01*
X77526934Y-61678752D01*
X77490000Y-61911947D01*
X77490000Y-62148052D01*
X77526934Y-62381247D01*
X77599897Y-62605802D01*
X77707087Y-62816174D01*
X77767338Y-62899104D01*
X77767340Y-62899105D01*
X78590000Y-62076445D01*
X78590000Y-62082661D01*
X78617259Y-62184394D01*
X78669920Y-62275606D01*
X78744394Y-62350080D01*
X78835606Y-62402741D01*
X78937339Y-62430000D01*
X78943554Y-62430000D01*
X78120893Y-63252658D01*
X78123854Y-63290276D01*
X78123854Y-63309733D01*
X78120894Y-63347340D01*
X78943554Y-64170000D01*
X78937339Y-64170000D01*
X78835606Y-64197259D01*
X78744394Y-64249920D01*
X78669920Y-64324394D01*
X78617259Y-64415606D01*
X78590000Y-64517339D01*
X78590000Y-64523554D01*
X77767340Y-63700894D01*
X77707084Y-63783830D01*
X77599897Y-63994197D01*
X77526934Y-64218752D01*
X77490000Y-64451947D01*
X77490000Y-64688052D01*
X77526934Y-64921247D01*
X77599897Y-65145802D01*
X77707087Y-65356174D01*
X77767338Y-65439104D01*
X77767340Y-65439105D01*
X78590000Y-64616445D01*
X78590000Y-64622661D01*
X78617259Y-64724394D01*
X78669920Y-64815606D01*
X78744394Y-64890080D01*
X78835606Y-64942741D01*
X78937339Y-64970000D01*
X78943554Y-64970000D01*
X78120893Y-65792658D01*
X78122448Y-65812405D01*
X78108084Y-65880783D01*
X78071717Y-65922451D01*
X78012490Y-65965482D01*
X77845485Y-66132487D01*
X77845485Y-66132488D01*
X77845483Y-66132490D01*
X77785862Y-66214550D01*
X77706657Y-66323566D01*
X77599433Y-66534003D01*
X77526446Y-66758631D01*
X77489500Y-66991902D01*
X77489500Y-67228097D01*
X77526446Y-67461368D01*
X77599433Y-67685996D01*
X77706657Y-67896433D01*
X77845483Y-68087510D01*
X78012490Y-68254517D01*
X78047127Y-68279683D01*
X78089792Y-68335013D01*
X78095771Y-68404626D01*
X78063165Y-68466421D01*
X78047130Y-68480315D01*
X78029365Y-68493222D01*
X78012488Y-68505484D01*
X77845485Y-68672487D01*
X77845485Y-68672488D01*
X77845483Y-68672490D01*
X77813394Y-68716657D01*
X77706657Y-68863566D01*
X77599433Y-69074003D01*
X77526446Y-69298631D01*
X77489500Y-69531902D01*
X77489500Y-69768097D01*
X77526446Y-70001368D01*
X77599433Y-70225996D01*
X77663314Y-70351368D01*
X77706657Y-70436433D01*
X77845483Y-70627510D01*
X78012490Y-70794517D01*
X78047127Y-70819683D01*
X78089792Y-70875013D01*
X78095771Y-70944626D01*
X78063165Y-71006421D01*
X78047130Y-71020315D01*
X78029365Y-71033222D01*
X78012488Y-71045484D01*
X77845485Y-71212487D01*
X77845485Y-71212488D01*
X77845483Y-71212490D01*
X77833331Y-71229216D01*
X77706657Y-71403566D01*
X77599433Y-71614003D01*
X77526446Y-71838631D01*
X77489500Y-72071902D01*
X77489500Y-72308097D01*
X77526446Y-72541368D01*
X77599433Y-72765996D01*
X77664428Y-72893554D01*
X77706657Y-72976433D01*
X77845483Y-73167510D01*
X78012490Y-73334517D01*
X78203567Y-73473343D01*
X78302991Y-73524002D01*
X78414003Y-73580566D01*
X78414005Y-73580566D01*
X78414008Y-73580568D01*
X78524432Y-73616447D01*
X78638631Y-73653553D01*
X78871903Y-73690500D01*
X78871908Y-73690500D01*
X79108097Y-73690500D01*
X79341368Y-73653553D01*
X79565992Y-73580568D01*
X79776433Y-73473343D01*
X79967510Y-73334517D01*
X80134517Y-73167510D01*
X80273343Y-72976433D01*
X80380568Y-72765992D01*
X80453553Y-72541368D01*
X80463153Y-72480756D01*
X80490500Y-72308097D01*
X80490500Y-72071902D01*
X80453553Y-71838631D01*
X80380566Y-71614003D01*
X80273342Y-71403566D01*
X80134517Y-71212490D01*
X79967510Y-71045483D01*
X79932872Y-71020317D01*
X79890207Y-70964989D01*
X79884228Y-70895375D01*
X79916833Y-70833580D01*
X79932873Y-70819682D01*
X79967510Y-70794517D01*
X80134517Y-70627510D01*
X80273343Y-70436433D01*
X80380568Y-70225992D01*
X80453553Y-70001368D01*
X80490500Y-69768097D01*
X80490500Y-69531902D01*
X80453553Y-69298631D01*
X80380566Y-69074003D01*
X80273342Y-68863566D01*
X80267471Y-68855485D01*
X80134517Y-68672490D01*
X79967510Y-68505483D01*
X79932872Y-68480317D01*
X79890207Y-68424989D01*
X79884228Y-68355375D01*
X79916833Y-68293580D01*
X79932873Y-68279682D01*
X79967510Y-68254517D01*
X80134517Y-68087510D01*
X80273343Y-67896433D01*
X80380568Y-67685992D01*
X80453553Y-67461368D01*
X80490500Y-67228097D01*
X80490500Y-66991902D01*
X80453553Y-66758631D01*
X80380566Y-66534003D01*
X80273342Y-66323566D01*
X80134517Y-66132490D01*
X79967510Y-65965483D01*
X79908282Y-65922451D01*
X79865617Y-65867122D01*
X79857550Y-65812404D01*
X79859104Y-65792657D01*
X79036446Y-64970000D01*
X79042661Y-64970000D01*
X79144394Y-64942741D01*
X79235606Y-64890080D01*
X79310080Y-64815606D01*
X79362741Y-64724394D01*
X79390000Y-64622661D01*
X79390000Y-64616446D01*
X80212658Y-65439105D01*
X80212658Y-65439104D01*
X80272914Y-65356169D01*
X80272918Y-65356163D01*
X80380102Y-65145802D01*
X80453065Y-64921247D01*
X80490000Y-64688052D01*
X80490000Y-64451947D01*
X80453065Y-64218752D01*
X80380102Y-63994197D01*
X80272914Y-63783828D01*
X80212658Y-63700894D01*
X80212658Y-63700893D01*
X79390000Y-64523552D01*
X79390000Y-64517339D01*
X79362741Y-64415606D01*
X79310080Y-64324394D01*
X79235606Y-64249920D01*
X79144394Y-64197259D01*
X79042661Y-64170000D01*
X79036447Y-64170000D01*
X79859104Y-63347340D01*
X79856144Y-63309735D01*
X79856144Y-63290275D01*
X79859104Y-63252657D01*
X79036446Y-62430000D01*
X79042661Y-62430000D01*
X79144394Y-62402741D01*
X79235606Y-62350080D01*
X79310080Y-62275606D01*
X79362741Y-62184394D01*
X79390000Y-62082661D01*
X79390000Y-62076446D01*
X80212658Y-62899105D01*
X80212658Y-62899104D01*
X80272914Y-62816169D01*
X80272918Y-62816163D01*
X80380102Y-62605802D01*
X80453065Y-62381247D01*
X80490000Y-62148052D01*
X80490000Y-61911947D01*
X80453065Y-61678752D01*
X80380102Y-61454197D01*
X80272914Y-61243828D01*
X80212658Y-61160894D01*
X80212658Y-61160893D01*
X79390000Y-61983552D01*
X79390000Y-61977339D01*
X79362741Y-61875606D01*
X79310080Y-61784394D01*
X79235606Y-61709920D01*
X79144394Y-61657259D01*
X79042661Y-61630000D01*
X79036447Y-61630000D01*
X79859105Y-60807340D01*
X79857551Y-60787594D01*
X79871915Y-60719216D01*
X79908284Y-60677547D01*
X79967510Y-60634517D01*
X80134517Y-60467510D01*
X80273343Y-60276433D01*
X80380568Y-60065992D01*
X80453553Y-59841368D01*
X80490500Y-59608097D01*
X80490500Y-59371902D01*
X80453553Y-59138631D01*
X80380566Y-58914003D01*
X80273342Y-58703566D01*
X80134517Y-58512490D01*
X79967510Y-58345483D01*
X79932872Y-58320317D01*
X79890207Y-58264989D01*
X79884228Y-58195375D01*
X79916833Y-58133580D01*
X79932873Y-58119682D01*
X79967510Y-58094517D01*
X80134517Y-57927510D01*
X80273343Y-57736433D01*
X80380568Y-57525992D01*
X80453553Y-57301368D01*
X80490500Y-57068097D01*
X80490500Y-56831902D01*
X80453553Y-56598631D01*
X80380566Y-56374003D01*
X80273342Y-56163566D01*
X80134517Y-55972490D01*
X79967510Y-55805483D01*
X79932872Y-55780317D01*
X79890207Y-55724989D01*
X79884228Y-55655375D01*
X79916833Y-55593580D01*
X79932873Y-55579682D01*
X79967510Y-55554517D01*
X80134517Y-55387510D01*
X80273343Y-55196433D01*
X80380568Y-54985992D01*
X80453553Y-54761368D01*
X80466494Y-54679663D01*
X80490500Y-54528097D01*
X80490500Y-54291902D01*
X85109500Y-54291902D01*
X85109500Y-54528097D01*
X85146446Y-54761368D01*
X85219433Y-54985996D01*
X85326657Y-55196433D01*
X85465483Y-55387510D01*
X85632490Y-55554517D01*
X85667127Y-55579683D01*
X85709792Y-55635013D01*
X85715771Y-55704626D01*
X85683165Y-55766421D01*
X85667130Y-55780315D01*
X85649365Y-55793222D01*
X85632488Y-55805484D01*
X85465485Y-55972487D01*
X85465485Y-55972488D01*
X85465483Y-55972490D01*
X85405862Y-56054550D01*
X85326657Y-56163566D01*
X85219433Y-56374003D01*
X85146446Y-56598631D01*
X85109500Y-56831902D01*
X85109500Y-57068097D01*
X85146446Y-57301368D01*
X85219433Y-57525996D01*
X85326657Y-57736433D01*
X85465483Y-57927510D01*
X85632490Y-58094517D01*
X85667127Y-58119683D01*
X85709792Y-58175013D01*
X85715771Y-58244626D01*
X85683165Y-58306421D01*
X85667130Y-58320315D01*
X85649365Y-58333222D01*
X85632488Y-58345484D01*
X85465485Y-58512487D01*
X85465485Y-58512488D01*
X85465483Y-58512490D01*
X85405862Y-58594550D01*
X85326657Y-58703566D01*
X85219433Y-58914003D01*
X85146446Y-59138631D01*
X85109500Y-59371902D01*
X85109500Y-59608097D01*
X85146446Y-59841368D01*
X85219433Y-60065996D01*
X85318029Y-60259500D01*
X85326657Y-60276433D01*
X85465483Y-60467510D01*
X85632490Y-60634517D01*
X85691716Y-60677547D01*
X85734381Y-60732875D01*
X85742448Y-60787593D01*
X85740893Y-60807340D01*
X86563554Y-61630000D01*
X86557339Y-61630000D01*
X86455606Y-61657259D01*
X86364394Y-61709920D01*
X86289920Y-61784394D01*
X86237259Y-61875606D01*
X86210000Y-61977339D01*
X86210000Y-61983554D01*
X85387340Y-61160894D01*
X85327084Y-61243830D01*
X85219897Y-61454197D01*
X85146934Y-61678752D01*
X85110000Y-61911947D01*
X85110000Y-62148052D01*
X85146934Y-62381247D01*
X85219897Y-62605802D01*
X85327087Y-62816174D01*
X85387338Y-62899104D01*
X85387340Y-62899105D01*
X86210000Y-62076445D01*
X86210000Y-62082661D01*
X86237259Y-62184394D01*
X86289920Y-62275606D01*
X86364394Y-62350080D01*
X86455606Y-62402741D01*
X86557339Y-62430000D01*
X86563554Y-62430000D01*
X85740893Y-63252658D01*
X85743854Y-63290276D01*
X85743854Y-63309733D01*
X85740894Y-63347340D01*
X86563554Y-64170000D01*
X86557339Y-64170000D01*
X86455606Y-64197259D01*
X86364394Y-64249920D01*
X86289920Y-64324394D01*
X86237259Y-64415606D01*
X86210000Y-64517339D01*
X86210000Y-64523554D01*
X85387340Y-63700894D01*
X85327084Y-63783830D01*
X85219897Y-63994197D01*
X85146934Y-64218752D01*
X85110000Y-64451947D01*
X85110000Y-64688052D01*
X85146934Y-64921247D01*
X85219897Y-65145802D01*
X85327087Y-65356174D01*
X85387338Y-65439104D01*
X85387340Y-65439105D01*
X86210000Y-64616445D01*
X86210000Y-64622661D01*
X86237259Y-64724394D01*
X86289920Y-64815606D01*
X86364394Y-64890080D01*
X86455606Y-64942741D01*
X86557339Y-64970000D01*
X86563554Y-64970000D01*
X85740893Y-65792658D01*
X85742448Y-65812405D01*
X85728084Y-65880783D01*
X85691717Y-65922451D01*
X85632490Y-65965482D01*
X85465485Y-66132487D01*
X85465485Y-66132488D01*
X85465483Y-66132490D01*
X85405862Y-66214550D01*
X85326657Y-66323566D01*
X85219433Y-66534003D01*
X85146446Y-66758631D01*
X85109500Y-66991902D01*
X85109500Y-67228097D01*
X85146446Y-67461368D01*
X85219433Y-67685996D01*
X85326657Y-67896433D01*
X85465483Y-68087510D01*
X85632490Y-68254517D01*
X85667127Y-68279683D01*
X85709792Y-68335013D01*
X85715771Y-68404626D01*
X85683165Y-68466421D01*
X85667130Y-68480315D01*
X85649365Y-68493222D01*
X85632488Y-68505484D01*
X85465485Y-68672487D01*
X85465485Y-68672488D01*
X85465483Y-68672490D01*
X85433394Y-68716657D01*
X85326657Y-68863566D01*
X85219433Y-69074003D01*
X85146446Y-69298631D01*
X85109500Y-69531902D01*
X85109500Y-69768097D01*
X85146446Y-70001368D01*
X85219433Y-70225996D01*
X85283314Y-70351368D01*
X85326657Y-70436433D01*
X85465483Y-70627510D01*
X85632490Y-70794517D01*
X85667127Y-70819683D01*
X85709792Y-70875013D01*
X85715771Y-70944626D01*
X85683165Y-71006421D01*
X85667130Y-71020315D01*
X85649365Y-71033222D01*
X85632488Y-71045484D01*
X85465485Y-71212487D01*
X85465485Y-71212488D01*
X85465483Y-71212490D01*
X85453331Y-71229216D01*
X85326657Y-71403566D01*
X85219433Y-71614003D01*
X85146446Y-71838631D01*
X85109500Y-72071902D01*
X85109500Y-72308097D01*
X85146446Y-72541368D01*
X85219433Y-72765996D01*
X85284428Y-72893554D01*
X85326657Y-72976433D01*
X85465483Y-73167510D01*
X85632490Y-73334517D01*
X85823567Y-73473343D01*
X85922991Y-73524002D01*
X86034003Y-73580566D01*
X86034005Y-73580566D01*
X86034008Y-73580568D01*
X86144432Y-73616447D01*
X86258631Y-73653553D01*
X86491903Y-73690500D01*
X86491908Y-73690500D01*
X86728097Y-73690500D01*
X86961368Y-73653553D01*
X87185992Y-73580568D01*
X87396433Y-73473343D01*
X87587510Y-73334517D01*
X87754517Y-73167510D01*
X87893343Y-72976433D01*
X88000568Y-72765992D01*
X88073553Y-72541368D01*
X88083153Y-72480756D01*
X88096312Y-72397677D01*
X88110500Y-72308097D01*
X88110500Y-72071902D01*
X88073553Y-71838631D01*
X88000566Y-71614003D01*
X87893342Y-71403566D01*
X87754517Y-71212490D01*
X87587510Y-71045483D01*
X87552872Y-71020317D01*
X87510207Y-70964989D01*
X87504228Y-70895375D01*
X87536833Y-70833580D01*
X87552873Y-70819682D01*
X87587510Y-70794517D01*
X87754517Y-70627510D01*
X87893343Y-70436433D01*
X88000568Y-70225992D01*
X88073553Y-70001368D01*
X88096318Y-69857638D01*
X88110500Y-69768097D01*
X88110500Y-69531902D01*
X88073553Y-69298631D01*
X88000566Y-69074003D01*
X87893342Y-68863566D01*
X87887471Y-68855485D01*
X87754517Y-68672490D01*
X87587510Y-68505483D01*
X87552872Y-68480317D01*
X87510207Y-68424989D01*
X87504228Y-68355375D01*
X87536833Y-68293580D01*
X87552873Y-68279682D01*
X87587510Y-68254517D01*
X87754517Y-68087510D01*
X87893343Y-67896433D01*
X88000568Y-67685992D01*
X88073553Y-67461368D01*
X88110500Y-67228097D01*
X88110500Y-66991902D01*
X88073553Y-66758631D01*
X88000566Y-66534003D01*
X87893342Y-66323566D01*
X87754517Y-66132490D01*
X87587510Y-65965483D01*
X87528282Y-65922451D01*
X87485617Y-65867122D01*
X87477550Y-65812404D01*
X87479104Y-65792657D01*
X86656446Y-64970000D01*
X86662661Y-64970000D01*
X86764394Y-64942741D01*
X86855606Y-64890080D01*
X86930080Y-64815606D01*
X86982741Y-64724394D01*
X87010000Y-64622661D01*
X87010000Y-64616446D01*
X87832658Y-65439105D01*
X87832658Y-65439104D01*
X87892914Y-65356169D01*
X87892918Y-65356163D01*
X88000102Y-65145802D01*
X88073065Y-64921247D01*
X88110000Y-64688052D01*
X88110000Y-64451947D01*
X88073065Y-64218752D01*
X88000102Y-63994197D01*
X87892914Y-63783828D01*
X87832658Y-63700894D01*
X87832658Y-63700893D01*
X87010000Y-64523552D01*
X87010000Y-64517339D01*
X86982741Y-64415606D01*
X86930080Y-64324394D01*
X86855606Y-64249920D01*
X86764394Y-64197259D01*
X86662661Y-64170000D01*
X86656447Y-64170000D01*
X87479104Y-63347340D01*
X87476144Y-63309735D01*
X87476144Y-63290275D01*
X87479104Y-63252657D01*
X86656446Y-62430000D01*
X86662661Y-62430000D01*
X86764394Y-62402741D01*
X86855606Y-62350080D01*
X86930080Y-62275606D01*
X86982741Y-62184394D01*
X87010000Y-62082661D01*
X87010000Y-62076446D01*
X87832658Y-62899105D01*
X87832658Y-62899104D01*
X87892914Y-62816169D01*
X87892918Y-62816163D01*
X88000102Y-62605802D01*
X88073065Y-62381247D01*
X88110000Y-62148052D01*
X88110000Y-61911947D01*
X88109993Y-61911902D01*
X91599500Y-61911902D01*
X91599500Y-62148097D01*
X91636446Y-62381368D01*
X91709433Y-62605996D01*
X91816519Y-62816163D01*
X91816657Y-62816433D01*
X91955483Y-63007510D01*
X92122490Y-63174517D01*
X92157127Y-63199683D01*
X92199792Y-63255013D01*
X92205771Y-63324626D01*
X92173165Y-63386421D01*
X92157130Y-63400315D01*
X92139365Y-63413222D01*
X92122488Y-63425484D01*
X91955485Y-63592487D01*
X91955485Y-63592488D01*
X91955483Y-63592490D01*
X91895862Y-63674550D01*
X91816657Y-63783566D01*
X91709433Y-63994003D01*
X91636446Y-64218631D01*
X91599500Y-64451902D01*
X91599500Y-64688097D01*
X91636446Y-64921368D01*
X91709433Y-65145996D01*
X91816519Y-65356163D01*
X91816657Y-65356433D01*
X91955483Y-65547510D01*
X92122490Y-65714517D01*
X92313567Y-65853343D01*
X92367421Y-65880783D01*
X92524003Y-65960566D01*
X92524005Y-65960566D01*
X92524008Y-65960568D01*
X92644412Y-65999689D01*
X92748631Y-66033553D01*
X92981903Y-66070500D01*
X92981908Y-66070500D01*
X93218097Y-66070500D01*
X93451368Y-66033553D01*
X93675992Y-65960568D01*
X93886433Y-65853343D01*
X94077510Y-65714517D01*
X94244517Y-65547510D01*
X94383343Y-65356433D01*
X94490568Y-65145992D01*
X94563553Y-64921368D01*
X94563572Y-64921247D01*
X94600500Y-64688097D01*
X94600500Y-64451902D01*
X94563553Y-64218631D01*
X94490566Y-63994003D01*
X94383477Y-63783830D01*
X94383343Y-63783567D01*
X94244517Y-63592490D01*
X94077510Y-63425483D01*
X94042872Y-63400317D01*
X94000207Y-63344989D01*
X93994228Y-63275375D01*
X94026833Y-63213580D01*
X94042873Y-63199682D01*
X94077510Y-63174517D01*
X94244517Y-63007510D01*
X94383343Y-62816433D01*
X94490568Y-62605992D01*
X94563553Y-62381368D01*
X94563572Y-62381247D01*
X94600500Y-62148097D01*
X94600500Y-61911902D01*
X94563553Y-61678631D01*
X94490566Y-61454003D01*
X94383477Y-61243830D01*
X94383343Y-61243567D01*
X94244517Y-61052490D01*
X94077510Y-60885483D01*
X93886433Y-60746657D01*
X93675996Y-60639433D01*
X93451368Y-60566446D01*
X93218097Y-60529500D01*
X93218092Y-60529500D01*
X92981908Y-60529500D01*
X92981903Y-60529500D01*
X92748631Y-60566446D01*
X92524003Y-60639433D01*
X92313566Y-60746657D01*
X92257222Y-60787594D01*
X92122490Y-60885483D01*
X92122488Y-60885485D01*
X92122487Y-60885485D01*
X91955485Y-61052487D01*
X91955485Y-61052488D01*
X91955483Y-61052490D01*
X91895862Y-61134550D01*
X91816657Y-61243566D01*
X91709433Y-61454003D01*
X91636446Y-61678631D01*
X91599500Y-61911902D01*
X88109993Y-61911902D01*
X88073065Y-61678752D01*
X88000102Y-61454197D01*
X87892914Y-61243828D01*
X87832658Y-61160894D01*
X87832658Y-61160893D01*
X87010000Y-61983552D01*
X87010000Y-61977339D01*
X86982741Y-61875606D01*
X86930080Y-61784394D01*
X86855606Y-61709920D01*
X86764394Y-61657259D01*
X86662661Y-61630000D01*
X86656447Y-61630000D01*
X87479105Y-60807340D01*
X87477551Y-60787594D01*
X87491915Y-60719216D01*
X87528284Y-60677547D01*
X87587510Y-60634517D01*
X87754517Y-60467510D01*
X87893343Y-60276433D01*
X88000568Y-60065992D01*
X88073553Y-59841368D01*
X88110500Y-59608097D01*
X88110500Y-59371902D01*
X88073553Y-59138631D01*
X88000566Y-58914003D01*
X87893342Y-58703566D01*
X87754517Y-58512490D01*
X87587510Y-58345483D01*
X87552872Y-58320317D01*
X87510207Y-58264989D01*
X87504228Y-58195375D01*
X87536833Y-58133580D01*
X87552873Y-58119682D01*
X87587510Y-58094517D01*
X87754517Y-57927510D01*
X87893343Y-57736433D01*
X88000568Y-57525992D01*
X88073553Y-57301368D01*
X88110500Y-57068097D01*
X88110500Y-56831902D01*
X88073553Y-56598631D01*
X88000566Y-56374003D01*
X87893342Y-56163566D01*
X87754517Y-55972490D01*
X87587510Y-55805483D01*
X87552872Y-55780317D01*
X87510207Y-55724989D01*
X87504228Y-55655375D01*
X87536833Y-55593580D01*
X87552873Y-55579682D01*
X87587510Y-55554517D01*
X87754517Y-55387510D01*
X87893343Y-55196433D01*
X88000568Y-54985992D01*
X88073553Y-54761368D01*
X88086494Y-54679663D01*
X88110500Y-54528097D01*
X88110500Y-54291902D01*
X88073553Y-54058631D01*
X88039689Y-53954412D01*
X88000568Y-53834008D01*
X88000566Y-53834005D01*
X88000566Y-53834003D01*
X87893342Y-53623566D01*
X87754517Y-53432490D01*
X87587510Y-53265483D01*
X87396433Y-53126657D01*
X87185992Y-53019432D01*
X87069465Y-52981570D01*
X86961368Y-52946446D01*
X86728097Y-52909500D01*
X86728092Y-52909500D01*
X86491908Y-52909500D01*
X86491903Y-52909500D01*
X86258631Y-52946446D01*
X86034003Y-53019433D01*
X85823566Y-53126657D01*
X85714550Y-53205862D01*
X85632490Y-53265483D01*
X85632488Y-53265485D01*
X85632487Y-53265485D01*
X85465485Y-53432487D01*
X85465485Y-53432488D01*
X85465483Y-53432490D01*
X85435558Y-53473678D01*
X85326657Y-53623566D01*
X85219433Y-53834003D01*
X85146446Y-54058631D01*
X85109500Y-54291902D01*
X80490500Y-54291902D01*
X80453553Y-54058631D01*
X80419689Y-53954412D01*
X80380568Y-53834008D01*
X80380566Y-53834005D01*
X80380566Y-53834003D01*
X80273342Y-53623566D01*
X80134517Y-53432490D01*
X79967510Y-53265483D01*
X79776433Y-53126657D01*
X79755527Y-53116005D01*
X79565996Y-53019433D01*
X79341368Y-52946446D01*
X79108097Y-52909500D01*
X79108092Y-52909500D01*
X78871908Y-52909500D01*
X78871903Y-52909500D01*
X78638631Y-52946446D01*
X78414003Y-53019433D01*
X78203566Y-53126657D01*
X78094550Y-53205862D01*
X78012490Y-53265483D01*
X78012488Y-53265485D01*
X78012487Y-53265485D01*
X77845485Y-53432487D01*
X77845485Y-53432488D01*
X77845483Y-53432490D01*
X77815558Y-53473678D01*
X77706657Y-53623566D01*
X77599433Y-53834003D01*
X77526446Y-54058631D01*
X77489500Y-54291902D01*
X71438349Y-54291902D01*
X71009020Y-53862573D01*
X71137463Y-53776751D01*
X71276751Y-53637463D01*
X71362573Y-53509020D01*
X71915880Y-54062327D01*
X71915883Y-54062327D01*
X71974855Y-53985475D01*
X72090867Y-53784538D01*
X72090875Y-53784521D01*
X72179663Y-53570167D01*
X72239713Y-53346053D01*
X72239716Y-53346040D01*
X72269998Y-53116022D01*
X72270000Y-53116005D01*
X72270000Y-52883994D01*
X92730000Y-52883994D01*
X92730000Y-53116005D01*
X92730001Y-53116022D01*
X92760283Y-53346040D01*
X92760286Y-53346053D01*
X92820336Y-53570167D01*
X92909124Y-53784521D01*
X92909132Y-53784538D01*
X93025136Y-53985461D01*
X93025142Y-53985469D01*
X93084117Y-54062327D01*
X93637425Y-53509019D01*
X93723249Y-53637463D01*
X93862537Y-53776751D01*
X93990979Y-53862573D01*
X93437671Y-54415881D01*
X93514530Y-54474857D01*
X93514538Y-54474863D01*
X93715461Y-54590867D01*
X93715478Y-54590875D01*
X93929832Y-54679663D01*
X94153946Y-54739713D01*
X94153959Y-54739716D01*
X94383977Y-54769998D01*
X94383995Y-54770000D01*
X94616005Y-54770000D01*
X94616022Y-54769998D01*
X94846040Y-54739716D01*
X94846053Y-54739713D01*
X95070167Y-54679663D01*
X95284521Y-54590875D01*
X95284538Y-54590867D01*
X95485475Y-54474855D01*
X95562327Y-54415883D01*
X95562327Y-54415880D01*
X95009020Y-53862573D01*
X95137463Y-53776751D01*
X95276751Y-53637463D01*
X95362573Y-53509020D01*
X95915880Y-54062327D01*
X95915883Y-54062327D01*
X95974855Y-53985475D01*
X96090867Y-53784538D01*
X96090875Y-53784521D01*
X96179663Y-53570167D01*
X96239713Y-53346053D01*
X96239716Y-53346040D01*
X96269998Y-53116022D01*
X96270000Y-53116005D01*
X96270000Y-52883994D01*
X96269998Y-52883977D01*
X96239716Y-52653959D01*
X96239713Y-52653946D01*
X96179663Y-52429832D01*
X96090875Y-52215478D01*
X96090867Y-52215461D01*
X95974863Y-52014538D01*
X95974857Y-52014530D01*
X95915881Y-51937671D01*
X95362573Y-52490979D01*
X95276751Y-52362537D01*
X95137463Y-52223249D01*
X95009019Y-52137425D01*
X95562327Y-51584117D01*
X95485469Y-51525142D01*
X95485461Y-51525136D01*
X95284538Y-51409132D01*
X95284521Y-51409124D01*
X95070167Y-51320336D01*
X94846053Y-51260286D01*
X94846040Y-51260283D01*
X94616022Y-51230001D01*
X94616005Y-51230000D01*
X94383995Y-51230000D01*
X94383977Y-51230001D01*
X94153959Y-51260283D01*
X94153946Y-51260286D01*
X93929832Y-51320336D01*
X93715478Y-51409124D01*
X93715461Y-51409132D01*
X93514541Y-51525134D01*
X93514533Y-51525140D01*
X93437671Y-51584116D01*
X93437671Y-51584117D01*
X93990979Y-52137425D01*
X93862537Y-52223249D01*
X93723249Y-52362537D01*
X93637425Y-52490979D01*
X93084117Y-51937671D01*
X93084116Y-51937671D01*
X93025140Y-52014533D01*
X93025134Y-52014541D01*
X92909132Y-52215461D01*
X92909124Y-52215478D01*
X92820336Y-52429832D01*
X92760286Y-52653946D01*
X92760283Y-52653959D01*
X92730001Y-52883977D01*
X92730000Y-52883994D01*
X72270000Y-52883994D01*
X72269998Y-52883977D01*
X72239716Y-52653959D01*
X72239713Y-52653946D01*
X72179663Y-52429832D01*
X72090875Y-52215478D01*
X72090867Y-52215461D01*
X71974863Y-52014538D01*
X71974857Y-52014530D01*
X71915881Y-51937671D01*
X71362573Y-52490979D01*
X71276751Y-52362537D01*
X71137463Y-52223249D01*
X71009019Y-52137425D01*
X71562327Y-51584117D01*
X71485469Y-51525142D01*
X71485461Y-51525136D01*
X71284538Y-51409132D01*
X71284521Y-51409124D01*
X71070167Y-51320336D01*
X70846053Y-51260286D01*
X70846040Y-51260283D01*
X70616022Y-51230001D01*
X70616005Y-51230000D01*
X70383995Y-51230000D01*
X70383977Y-51230001D01*
X70153959Y-51260283D01*
X70153946Y-51260286D01*
X69929832Y-51320336D01*
X69715478Y-51409124D01*
X69715461Y-51409132D01*
X69514541Y-51525134D01*
X69514533Y-51525140D01*
X69437671Y-51584116D01*
X69437671Y-51584117D01*
X69990979Y-52137425D01*
X69862537Y-52223249D01*
X69723249Y-52362537D01*
X69637426Y-52490979D01*
X69084117Y-51937671D01*
X69084116Y-51937671D01*
X69025140Y-52014533D01*
X69025134Y-52014541D01*
X68909132Y-52215461D01*
X68909124Y-52215478D01*
X68820336Y-52429832D01*
X68760286Y-52653946D01*
X68760283Y-52653959D01*
X68730001Y-52883977D01*
X68730000Y-52883994D01*
X68000500Y-52883994D01*
X68000500Y-50624500D01*
X68020185Y-50557461D01*
X68072989Y-50511706D01*
X68124500Y-50500500D01*
X96875500Y-50500500D01*
X96942539Y-50520185D01*
G37*
%TD.AperFunction*%
%TA.AperFunction,Conductor*%
G36*
X82960667Y-108793694D02*
G01*
X83019910Y-108896306D01*
X83103694Y-108980090D01*
X83206306Y-109039333D01*
X83291415Y-109062138D01*
X82510893Y-109842658D01*
X82512713Y-109865771D01*
X82498349Y-109934148D01*
X82449297Y-109983905D01*
X82389095Y-109999500D01*
X81875716Y-109999500D01*
X81808677Y-109979815D01*
X81762922Y-109927011D01*
X81752978Y-109857853D01*
X81782003Y-109794297D01*
X81802826Y-109775185D01*
X81817510Y-109764517D01*
X81984517Y-109597510D01*
X82027547Y-109538283D01*
X82082877Y-109495618D01*
X82137594Y-109487551D01*
X82157340Y-109489105D01*
X82937861Y-108708584D01*
X82960667Y-108793694D01*
G37*
%TD.AperFunction*%
%TA.AperFunction,Conductor*%
G36*
X84602657Y-109489104D02*
G01*
X84622404Y-109487550D01*
X84690781Y-109501914D01*
X84732451Y-109538282D01*
X84775483Y-109597510D01*
X84942490Y-109764517D01*
X84957171Y-109775183D01*
X84999835Y-109830512D01*
X85005814Y-109900125D01*
X84973208Y-109961920D01*
X84912369Y-109996278D01*
X84884284Y-109999500D01*
X84370904Y-109999500D01*
X84303865Y-109979815D01*
X84258110Y-109927011D01*
X84247286Y-109865771D01*
X84249105Y-109842658D01*
X83468584Y-109062138D01*
X83553694Y-109039333D01*
X83656306Y-108980090D01*
X83740090Y-108896306D01*
X83799333Y-108793694D01*
X83822138Y-108708585D01*
X84602657Y-109489104D01*
G37*
%TD.AperFunction*%
%TA.AperFunction,Conductor*%
G36*
X82960667Y-106253694D02*
G01*
X83019910Y-106356306D01*
X83103694Y-106440090D01*
X83206306Y-106499333D01*
X83291415Y-106522138D01*
X82510893Y-107302658D01*
X82513854Y-107340276D01*
X82513854Y-107359733D01*
X82510894Y-107397340D01*
X83291415Y-108177861D01*
X83206306Y-108200667D01*
X83103694Y-108259910D01*
X83019910Y-108343694D01*
X82960667Y-108446306D01*
X82937861Y-108531414D01*
X82157340Y-107750893D01*
X82137593Y-107752448D01*
X82069215Y-107738084D01*
X82027547Y-107701716D01*
X81984517Y-107642490D01*
X81817510Y-107475483D01*
X81782872Y-107450317D01*
X81769323Y-107432747D01*
X81752361Y-107418447D01*
X81748404Y-107405620D01*
X81740207Y-107394989D01*
X81738308Y-107372883D01*
X81731769Y-107351680D01*
X81735376Y-107338748D01*
X81734228Y-107325375D01*
X81744581Y-107305751D01*
X81750544Y-107284380D01*
X81762797Y-107271228D01*
X81766833Y-107263580D01*
X81773293Y-107257396D01*
X81777887Y-107253304D01*
X81817510Y-107224517D01*
X81984517Y-107057510D01*
X82027547Y-106998283D01*
X82082877Y-106955618D01*
X82137594Y-106947551D01*
X82157340Y-106949105D01*
X82937861Y-106168584D01*
X82960667Y-106253694D01*
G37*
%TD.AperFunction*%
%TA.AperFunction,Conductor*%
G36*
X84602657Y-106949104D02*
G01*
X84622404Y-106947550D01*
X84690781Y-106961914D01*
X84732451Y-106998282D01*
X84775483Y-107057510D01*
X84942490Y-107224517D01*
X84977127Y-107249683D01*
X85019792Y-107305013D01*
X85025771Y-107374626D01*
X84993165Y-107436421D01*
X84977130Y-107450315D01*
X84959365Y-107463222D01*
X84942488Y-107475484D01*
X84775482Y-107642490D01*
X84732451Y-107701717D01*
X84677120Y-107744382D01*
X84622405Y-107752448D01*
X84602658Y-107750893D01*
X83822137Y-108531414D01*
X83799333Y-108446306D01*
X83740090Y-108343694D01*
X83656306Y-108259910D01*
X83553694Y-108200667D01*
X83468584Y-108177861D01*
X84249104Y-107397340D01*
X84246144Y-107359735D01*
X84246144Y-107340275D01*
X84249104Y-107302657D01*
X83468584Y-106522138D01*
X83553694Y-106499333D01*
X83656306Y-106440090D01*
X83740090Y-106356306D01*
X83799333Y-106253694D01*
X83822138Y-106168585D01*
X84602657Y-106949104D01*
G37*
%TD.AperFunction*%
%TD*%
M02*
