M48
; DRILL file {KiCad 9.0.7} date 2026-02-07T17:55:12+0100
; FORMAT={-:-/ absolute / inch / decimal}
; #@! TF.CreationDate,2026-02-07T17:55:12+01:00
; #@! TF.GenerationSoftware,Kicad,Pcbnew,9.0.7
; #@! TF.FileFunction,Plated,1,2,PTH
FMAT,2
INCH
; #@! TA.AperFunction,Plated,PTH,ComponentDrill
T1C0.0315
; #@! TA.AperFunction,Plated,PTH,ComponentDrill
T2C0.0354
; #@! TA.AperFunction,Plated,PTH,ComponentDrill
T3C0.0394
; #@! TA.AperFunction,Plated,PTH,ComponentDrill
T4C0.0787
%
G90
G05
T1
X3.1098Y-2.1421
X3.1098Y-2.2421
X3.1098Y-2.3421
X3.1098Y-2.4421
X3.1098Y-2.5421
X3.1098Y-2.6421
X3.1098Y-2.7421
X3.1098Y-2.8421
X3.4098Y-2.1421
X3.4098Y-2.2421
X3.4098Y-2.3421
X3.4098Y-2.4421
X3.4098Y-2.5421
X3.4098Y-2.6421
X3.4098Y-2.7421
X3.4098Y-2.8421
T2
X2.0866Y-3.3039
X2.0866Y-3.4039
X2.0866Y-3.5039
X2.2638Y-3.2449
X2.2638Y-3.6449
X2.4394Y-3.3465
X2.5394Y-3.3465
X2.8724Y-3.2283
X2.874Y-2.4315
X2.874Y-2.5315
X2.9724Y-3.2283
X3.0724Y-3.2283
X3.1724Y-3.2283
X3.1827Y-3.3764
X3.1827Y-3.4764
X3.1827Y-4.1764
X3.1827Y-4.2764
X3.2827Y-3.3764
X3.2827Y-3.4764
X3.2827Y-4.1764
X3.2827Y-4.2764
X3.3827Y-3.3764
X3.3827Y-3.4764
X3.3827Y-4.1764
X3.3827Y-4.2764
X3.4827Y-3.3764
X3.4827Y-3.4764
X3.4827Y-4.1764
X3.4827Y-4.2764
X3.5827Y-3.3764
X3.5827Y-3.4764
X3.5827Y-4.1764
X3.5827Y-4.2764
X3.6654Y-2.4421
X3.6654Y-2.5421
X3.6827Y-3.3764
X3.6827Y-3.4764
X3.6827Y-4.1764
X3.6827Y-4.2764
X3.7244Y-2.7559
X3.7244Y-2.8559
X3.7244Y-2.9559
X3.7244Y-3.0559
X3.7827Y-3.3764
X3.7827Y-3.4764
X3.7827Y-4.1764
X3.7827Y-4.2764
X3.8827Y-3.3764
X3.8827Y-3.4764
X3.8827Y-4.1764
X3.8827Y-4.2764
X4.4213Y-3.265
X4.4213Y-3.365
X4.4213Y-3.563
X4.4213Y-3.663
X4.4213Y-3.8646
X4.4213Y-3.9646
T3
X2.7433Y-3.0039
X2.7441Y-3.2394
X2.7441Y-3.5783
X3.0823Y-3.0039
T4
X2.0866Y-4.2126
X2.7756Y-2.0866
X3.7205Y-2.0866
X4.4094Y-4.2126
M30
