%TF.GenerationSoftware,KiCad,Pcbnew,9.0.7*%
%TF.CreationDate,2026-02-07T17:54:55+01:00*%
%TF.ProjectId,robot,726f626f-742e-46b6-9963-61645f706362,rev?*%
%TF.SameCoordinates,Original*%
%TF.FileFunction,Copper,L1,Top*%
%TF.FilePolarity,Positive*%
%FSLAX46Y46*%
G04 Gerber Fmt 4.6, Leading zero omitted, Abs format (unit mm)*
G04 Created by KiCad (PCBNEW 9.0.7) date 2026-02-07 17:54:55*
%MOMM*%
%LPD*%
G01*
G04 APERTURE LIST*
%TA.AperFunction,ComponentPad*%
%ADD10C,2.000000*%
%TD*%
%TA.AperFunction,ComponentPad*%
%ADD11C,2.540000*%
%TD*%
%TA.AperFunction,Conductor*%
%ADD12C,0.400000*%
%TD*%
%TA.AperFunction,Conductor*%
%ADD13C,0.800000*%
%TD*%
%TA.AperFunction,Conductor*%
%ADD14C,0.200000*%
%TD*%
%TA.AperFunction,Conductor*%
%ADD15C,0.600000*%
%TD*%
G04 APERTURE END LIST*
D10*
%TO.P,D3,1,DOUT*%
%TO.N,unconnected-(D3-DOUT-Pad1)*%
X94599999Y-70000000D03*
%TO.P,D3,2,GND*%
%TO.N,GND*%
X94599999Y-72540000D03*
%TO.P,D3,3,VDD*%
%TO.N,Net-(D3-VDD)*%
X94599999Y-75080000D03*
%TO.P,D3,4,DIN*%
%TO.N,Net-(D3-DIN)*%
X94599999Y-77620000D03*
%TD*%
%TO.P,J5,1,1*%
%TO.N,Net-(U1-GPIO21)*%
X112300000Y-82930000D03*
%TO.P,J5,2,2*%
%TO.N,Net-(U1-GPIO34)*%
X112300000Y-85470000D03*
%TD*%
%TO.P,U2,1,EN12*%
%TO.N,Net-(U1-GPIO9)*%
X78990000Y-54410000D03*
%TO.P,U2,2,1A*%
%TO.N,Net-(U1-GPIO11)*%
X78990000Y-56950000D03*
%TO.P,U2,3,1Y*%
%TO.N,Net-(U2-1Y)*%
X78990000Y-59490000D03*
%TO.P,U2,4,GND*%
%TO.N,GND*%
X78990000Y-62030000D03*
%TO.P,U2,5,GND*%
X78990000Y-64570000D03*
%TO.P,U2,6,2Y*%
%TO.N,Net-(U2-2Y)*%
X78990000Y-67110000D03*
%TO.P,U2,7,2A*%
%TO.N,Net-(U1-GPIO12)*%
X78990000Y-69650000D03*
%TO.P,U2,8,VM*%
%TO.N,/5V*%
X78990000Y-72190000D03*
%TO.P,U2,9,EN34*%
%TO.N,Net-(U1-GPIO5)*%
X86610000Y-72190000D03*
%TO.P,U2,10,4A*%
%TO.N,Net-(U1-GPIO3)*%
X86610000Y-69650000D03*
%TO.P,U2,11,4Y*%
%TO.N,Net-(U2-4Y)*%
X86610000Y-67110000D03*
%TO.P,U2,12,GND*%
%TO.N,GND*%
X86610000Y-64570000D03*
%TO.P,U2,13,GND*%
X86610000Y-62030000D03*
%TO.P,U2,14,3Y*%
%TO.N,Net-(U2-3Y)*%
X86610000Y-59490000D03*
%TO.P,U2,15,3A*%
%TO.N,Net-(U1-GPIO7)*%
X86610000Y-56950000D03*
%TO.P,U2,16,5V*%
%TO.N,/5V*%
X86610000Y-54410000D03*
%TD*%
D11*
%TO.P,DH3,1,DH*%
%TO.N,GND*%
X53000000Y-107000000D03*
%TD*%
D10*
%TO.P,J3,1,1*%
%TO.N,Net-(U2-2Y)*%
X73000000Y-64300000D03*
%TO.P,J3,2,2*%
%TO.N,Net-(U2-1Y)*%
X73000000Y-61760000D03*
%TD*%
D11*
%TO.P,D2,1*%
%TO.N,/5V*%
X69700000Y-82280000D03*
%TO.P,D2,2*%
%TO.N,/VSYS*%
X69700000Y-90890000D03*
%TD*%
D10*
%TO.P,U1,1,GPIO1*%
%TO.N,Net-(D3-DIN)*%
X98620000Y-88300000D03*
%TO.P,U1,2,GPIO2*%
%TO.N,unconnected-(U1-GPIO2-Pad2)*%
X96080000Y-88300000D03*
%TO.P,U1,3,GPIO3*%
%TO.N,Net-(U1-GPIO3)*%
X96080000Y-85760000D03*
%TO.P,U1,4,GPIO4*%
%TO.N,unconnected-(U1-GPIO4-Pad4)*%
X93540000Y-88300000D03*
%TO.P,U1,5,GPIO5*%
%TO.N,Net-(U1-GPIO5)*%
X93540000Y-85760000D03*
%TO.P,U1,6,GPIO6*%
%TO.N,unconnected-(U1-GPIO6-Pad6)*%
X91000000Y-88300000D03*
%TO.P,U1,7,GPIO7*%
%TO.N,Net-(U1-GPIO7)*%
X91000000Y-85760000D03*
%TO.P,U1,8,GPIO8*%
%TO.N,unconnected-(U1-GPIO8-Pad8)*%
X88460000Y-88300000D03*
%TO.P,U1,9,GPIO9*%
%TO.N,Net-(U1-GPIO9)*%
X88460000Y-85760000D03*
%TO.P,U1,10,GPIO10*%
%TO.N,unconnected-(U1-GPIO10-Pad10)*%
X85920000Y-88300000D03*
%TO.P,U1,11,GPIO11*%
%TO.N,Net-(U1-GPIO11)*%
X85920000Y-85760000D03*
%TO.P,U1,12,GPIO12*%
%TO.N,Net-(U1-GPIO12)*%
X83380000Y-85760000D03*
%TO.P,U1,13,GPIO13*%
%TO.N,Net-(U1-GPIO13)*%
X83380000Y-88300000D03*
%TO.P,U1,14,GPIO14*%
%TO.N,Net-(U1-GPIO14)*%
X80840000Y-88300000D03*
%TO.P,U1,15,GPIO15*%
%TO.N,unconnected-(U1-GPIO15-Pad15)*%
X80840000Y-106080000D03*
%TO.P,U1,16,GPIO16*%
%TO.N,unconnected-(U1-GPIO16-Pad16)*%
X85920000Y-108620000D03*
%TO.P,U1,17,GPIO17*%
%TO.N,unconnected-(U1-GPIO17-Pad17)*%
X85920000Y-106080000D03*
%TO.P,U1,18,GPIO18*%
%TO.N,unconnected-(U1-GPIO18-Pad18)*%
X88460000Y-108620000D03*
%TO.P,U1,21,GPIO21*%
%TO.N,Net-(U1-GPIO21)*%
X88460000Y-106080000D03*
%TO.P,U1,33,GPIO33*%
%TO.N,unconnected-(U1-GPIO33-Pad33)*%
X91000000Y-108620000D03*
%TO.P,U1,34,GPIO34*%
%TO.N,Net-(U1-GPIO34)*%
X91000000Y-106080000D03*
%TO.P,U1,35,GPIO35*%
%TO.N,unconnected-(U1-GPIO35-Pad35)*%
X93540000Y-108620000D03*
%TO.P,U1,36,GPIO36*%
%TO.N,Net-(U1-GPIO36)*%
X93540000Y-106080000D03*
%TO.P,U1,37,GPIO37*%
%TO.N,unconnected-(U1-GPIO37-Pad37)*%
X96080000Y-108620000D03*
%TO.P,U1,38,GPIO38*%
%TO.N,Net-(U1-GPIO38)*%
X96080000Y-106080000D03*
%TO.P,U1,39,GPIO39*%
%TO.N,Net-(U1-GPIO39)*%
X98620000Y-108620000D03*
%TO.P,U1,40,GPIO40*%
%TO.N,Net-(U1-GPIO40)*%
X98620000Y-106080000D03*
%TO.P,U1,41,VSYS*%
%TO.N,/VSYS*%
X80840000Y-108620000D03*
%TO.P,U1,42,3.3V*%
%TO.N,Net-(D3-VDD)*%
X80840000Y-85760000D03*
%TO.P,U1,43,GND*%
%TO.N,GND*%
X83380000Y-108620000D03*
%TO.P,U1,44,GND*%
X83380000Y-106080000D03*
%TO.P,U1,45,EN*%
%TO.N,unconnected-(U1-EN-Pad45)*%
X98620000Y-85760000D03*
%TD*%
%TO.P,R1,1*%
%TO.N,/5V*%
X57500000Y-82420000D03*
%TO.P,R1,2*%
%TO.N,GND*%
X57500000Y-92580000D03*
%TD*%
%TO.P,J7,1,1*%
%TO.N,Net-(U1-GPIO40)*%
X112300000Y-98160000D03*
%TO.P,J7,2,2*%
%TO.N,Net-(U1-GPIO39)*%
X112300000Y-100700000D03*
%TD*%
%TO.P,J2,1,1*%
%TO.N,Net-(U2-3Y)*%
X93100000Y-62030000D03*
%TO.P,J2,2,2*%
%TO.N,Net-(U2-4Y)*%
X93100000Y-64570000D03*
%TD*%
%TO.P,SW1,1,A*%
%TO.N,/5V*%
X53000000Y-83920000D03*
%TO.P,SW1,2,B*%
%TO.N,/VBAT*%
X53000000Y-86460000D03*
%TO.P,SW1,3,C*%
%TO.N,unconnected-(SW1-C-Pad3)*%
X53000000Y-89000000D03*
%TD*%
D11*
%TO.P,DH4,1,DH*%
%TO.N,GND*%
X112000000Y-107000000D03*
%TD*%
D10*
%TO.P,J6,1,1*%
%TO.N,Net-(U1-GPIO36)*%
X112300000Y-90500000D03*
%TO.P,J6,2,2*%
%TO.N,Net-(U1-GPIO38)*%
X112300000Y-93040000D03*
%TD*%
%TO.P,J1,1,1*%
%TO.N,GND*%
X64500000Y-85000000D03*
%TO.P,J1,2,2*%
%TO.N,/VBAT*%
X61960000Y-85000000D03*
%TD*%
%TO.P,J4,1,1*%
%TO.N,GND*%
X72960000Y-82000000D03*
%TO.P,J4,2,2*%
%TO.N,/VCC*%
X75500000Y-82000000D03*
%TO.P,J4,3,3*%
%TO.N,Net-(U1-GPIO13)*%
X78040000Y-82000000D03*
%TO.P,J4,4,4*%
%TO.N,Net-(U1-GPIO14)*%
X80580000Y-82000000D03*
%TD*%
D11*
%TO.P,D1,1*%
%TO.N,/5V*%
X69680000Y-76300000D03*
%TO.P,D1,2*%
%TO.N,/VCC*%
X78290000Y-76300000D03*
%TD*%
%TO.P,DH2,1,DH*%
%TO.N,GND*%
X94500000Y-53000000D03*
%TD*%
%TO.P,DH1,1,DH*%
%TO.N,GND*%
X70500000Y-53000000D03*
%TD*%
D12*
%TO.N,/5V*%
X54500000Y-82420000D02*
X57500000Y-82420000D01*
X69560000Y-82420000D02*
X69700000Y-82280000D01*
X69790000Y-72190000D02*
X69680000Y-72300000D01*
X53000000Y-83920000D02*
X54500000Y-82420000D01*
X69680000Y-76300000D02*
X69680000Y-72300000D01*
X70200000Y-82200000D02*
X70180000Y-82180000D01*
X77300000Y-51800000D02*
X85700000Y-51800000D01*
X69700000Y-76320000D02*
X69680000Y-76300000D01*
X69680000Y-59420000D02*
X77300000Y-51800000D01*
X86610000Y-52710000D02*
X86610000Y-54410000D01*
X69700000Y-82280000D02*
X69700000Y-76320000D01*
X85700000Y-51800000D02*
X86610000Y-52710000D01*
X69980000Y-82420000D02*
X70200000Y-82200000D01*
X69680000Y-72300000D02*
X69680000Y-59420000D01*
X78990000Y-72190000D02*
X69790000Y-72190000D01*
X57500000Y-82420000D02*
X69560000Y-82420000D01*
%TO.N,/VCC*%
X78790000Y-76300000D02*
X75690000Y-79400000D01*
X75690000Y-79400000D02*
X75600000Y-79400000D01*
X75600000Y-79400000D02*
X75500000Y-79500000D01*
X75500000Y-79500000D02*
X75500000Y-82000000D01*
D13*
%TO.N,/VSYS*%
X69700000Y-90890000D02*
X69700000Y-100100000D01*
X69700000Y-100100000D02*
X78300000Y-108700000D01*
X78300000Y-108700000D02*
X78380000Y-108620000D01*
X78380000Y-108620000D02*
X80840000Y-108620000D01*
D14*
%TO.N,Net-(D3-DIN)*%
X100200000Y-84300000D02*
X100200000Y-87900000D01*
X94599999Y-77620000D02*
X94599999Y-78699999D01*
X94599999Y-78699999D02*
X100200000Y-84300000D01*
X99800000Y-88300000D02*
X98620000Y-88300000D01*
X100200000Y-87900000D02*
X99800000Y-88300000D01*
D15*
%TO.N,Net-(U2-4Y)*%
X91070000Y-66600000D02*
X93100000Y-64570000D01*
X91000000Y-66600000D02*
X91070000Y-66600000D01*
X86610000Y-67110000D02*
X90490000Y-67110000D01*
X90490000Y-67110000D02*
X91000000Y-66600000D01*
%TO.N,Net-(U2-3Y)*%
X90800000Y-59800000D02*
X90870000Y-59800000D01*
X86610000Y-59490000D02*
X90490000Y-59490000D01*
X90490000Y-59490000D02*
X90800000Y-59800000D01*
X90870000Y-59800000D02*
X93100000Y-62030000D01*
%TO.N,Net-(U2-2Y)*%
X75810000Y-67110000D02*
X78990000Y-67110000D01*
X73000000Y-64300000D02*
X75810000Y-67110000D01*
%TO.N,Net-(U2-1Y)*%
X75260000Y-59500000D02*
X73000000Y-61760000D01*
X75300000Y-59500000D02*
X75260000Y-59500000D01*
X78990000Y-59490000D02*
X75310000Y-59490000D01*
X75310000Y-59490000D02*
X75300000Y-59500000D01*
D14*
%TO.N,Net-(U1-GPIO14)*%
X79000000Y-83500000D02*
X79000000Y-86460000D01*
X79000000Y-86460000D02*
X80840000Y-88300000D01*
X80580000Y-82000000D02*
X79080000Y-83500000D01*
X79080000Y-83500000D02*
X79000000Y-83500000D01*
%TO.N,Net-(U1-GPIO13)*%
X80000000Y-90300000D02*
X82500000Y-90300000D01*
X78040000Y-82000000D02*
X78040000Y-88340000D01*
X78040000Y-88340000D02*
X80000000Y-90300000D01*
X83380000Y-89420000D02*
X83380000Y-88471000D01*
X82500000Y-90300000D02*
X83380000Y-89420000D01*
%TO.N,Net-(U1-GPIO40)*%
X104380000Y-106080000D02*
X98620000Y-106080000D01*
X112300000Y-98160000D02*
X104380000Y-106080000D01*
%TO.N,Net-(U1-GPIO38)*%
X112300000Y-93040000D02*
X109120000Y-93040000D01*
X109120000Y-93040000D02*
X96080000Y-106080000D01*
%TO.N,Net-(U1-GPIO12)*%
X80600000Y-71260000D02*
X80600000Y-78400000D01*
X83380000Y-81220000D02*
X83380000Y-85760000D01*
X78990000Y-69650000D02*
X80600000Y-71260000D01*
X83400000Y-81200000D02*
X83380000Y-81220000D01*
X80600000Y-78400000D02*
X83400000Y-81200000D01*
%TO.N,Net-(U1-GPIO21)*%
X111000000Y-83540000D02*
X88460000Y-106080000D01*
X111570000Y-82930000D02*
X111000000Y-83500000D01*
X112300000Y-82930000D02*
X111570000Y-82930000D01*
X111000000Y-83500000D02*
X111000000Y-83540000D01*
%TO.N,Net-(U1-GPIO5)*%
X86610000Y-72190000D02*
X86610000Y-74210000D01*
X86610000Y-74210000D02*
X93540000Y-81140000D01*
X93540000Y-81140000D02*
X93540000Y-85760000D01*
%TO.N,Net-(U1-GPIO3)*%
X96100000Y-82100000D02*
X96080000Y-82120000D01*
X86610000Y-69650000D02*
X88600000Y-71640000D01*
X96080000Y-82120000D02*
X96080000Y-85760000D01*
X88600000Y-71640000D02*
X88600000Y-74600000D01*
X88600000Y-74600000D02*
X96100000Y-82100000D01*
%TO.N,Net-(U1-GPIO34)*%
X112300000Y-85470000D02*
X111900000Y-85870000D01*
X111210000Y-85870000D02*
X91000000Y-106080000D01*
X111900000Y-85870000D02*
X111210000Y-85870000D01*
%TO.N,Net-(U1-GPIO7)*%
X91000000Y-80400000D02*
X91000000Y-85760000D01*
X86610000Y-56950000D02*
X84700000Y-58860000D01*
X84700000Y-58860000D02*
X84700000Y-74100000D01*
X84700000Y-74100000D02*
X91000000Y-80400000D01*
%TO.N,Net-(U1-GPIO9)*%
X78990000Y-54410000D02*
X83300000Y-58720000D01*
X83300000Y-58720000D02*
X83300000Y-75100000D01*
X83300000Y-75100000D02*
X88460000Y-80260000D01*
X88460000Y-80260000D02*
X88460000Y-85760000D01*
%TO.N,Net-(U1-GPIO36)*%
X109120000Y-90500000D02*
X93540000Y-106080000D01*
X112300000Y-90500000D02*
X109120000Y-90500000D01*
%TO.N,Net-(U1-GPIO39)*%
X112300000Y-100700000D02*
X104380000Y-108620000D01*
X104380000Y-108620000D02*
X98620000Y-108620000D01*
%TO.N,Net-(U1-GPIO11)*%
X85920000Y-80020000D02*
X85920000Y-85760000D01*
X81540000Y-59500000D02*
X81600000Y-59500000D01*
X81600000Y-59500000D02*
X81600000Y-75700000D01*
X81600000Y-75700000D02*
X85920000Y-80020000D01*
X78990000Y-56950000D02*
X81540000Y-59500000D01*
D12*
%TO.N,/VBAT*%
X60500000Y-86460000D02*
X53000000Y-86460000D01*
X61960000Y-85000000D02*
X60500000Y-86460000D01*
%TD*%
M02*
